<?xml version="1.0" encoding="UTF-8" standalone="no"?><!-- Generator: Gravit.io --><svg xmlns="http://www.w3.org/2000/svg" xmlns:xlink="http://www.w3.org/1999/xlink" style="isolation:isolate" viewBox="0 0 128 128" width="128pt" height="128pt"><defs><clipPath id="_clipPath_MyxOYuXOADfl4rGHa0zOeAd4GJIQw7dw"><rect width="128" height="128"/></clipPath></defs><g clip-path="url(#_clipPath_MyxOYuXOADfl4rGHa0zOeAd4GJIQw7dw)"><clipPath id="_clipPath_2kf2r1GlJPfD0v3X6DZTgZ7e2Xm9mMKs"><rect x="0" y="0" width="128" height="128" transform="matrix(1,0,0,1,0,0)" fill="rgb(255,255,255)"/></clipPath><g clip-path="url(#_clipPath_2kf2r1GlJPfD0v3X6DZTgZ7e2Xm9mMKs)"><g><g><linearGradient id="_lgradient_3" x1="0" y1="0.5000000000000001" x2="0.9999999999999999" y2="0.5000000000000001" gradientTransform="matrix(103.922,0,0,94.339,12.023,21.349)" gradientUnits="userSpaceOnUse"><stop offset="0%" stop-opacity="1" style="stop-color:rgb(56,76,106)"/><stop offset="5.833333333333333%" stop-opacity="1" style="stop-color:rgb(72,100,142)"/><stop offset="11.25%" stop-opacity="1" style="stop-color:rgb(55,76,104)"/><stop offset="17.916666666666668%" stop-opacity="1" style="stop-color:rgb(49,68,96)"/><stop offset="41.66666666666667%" stop-opacity="1" style="stop-color:rgb(45,63,89)"/><stop offset="55.00000000000001%" stop-opacity="1" style="stop-color:rgb(45,63,89)"/><stop offset="82.5%" stop-opacity="1" style="stop-color:rgb(49,68,96)"/><stop offset="89.58333333333334%" stop-opacity="1" style="stop-color:rgb(55,76,104)"/><stop offset="94.58333333333333%" stop-opacity="1" style="stop-color:rgb(72,100,142)"/><stop offset="98.33333333333333%" stop-opacity="1" style="stop-color:rgb(56,76,106)"/></linearGradient><path d=" M 115.945 21.349 L 115.945 21.349 L 115.945 98.019 L 115.945 108.058 C 115.945 112.273 112.366 115.688 107.952 115.688 L 20.016 115.688 C 15.603 115.688 12.023 112.273 12.023 108.058 L 12.023 98.019 C 12.023 102.056 15.603 105.327 20.016 105.327 L 107.952 105.327 C 112.366 105.327 115.945 102.056 115.945 98.019 L 115.945 98.019 L 115.945 21.349 Z " fill="url(#_lgradient_3)"/><path d=" M 20.016 12.056 L 107.952 12.056 C 112.366 12.056 115.945 15.27 115.945 19.237 L 115.945 98.281 C 115.945 102.248 112.366 105.462 107.952 105.462 L 20.016 105.462 C 15.603 105.462 12.023 102.248 12.023 98.281 L 12.023 19.237 C 12.023 15.27 15.603 12.056 20.016 12.056 Z " fill="rgb(138,183,255)"/><path d=" M 21.186 13.298 L 106.782 13.298 C 111.079 13.298 114.562 16.427 114.562 20.29 L 114.562 97.229 C 114.562 101.091 111.079 104.22 106.782 104.22 L 21.186 104.22 C 16.89 104.22 13.406 101.091 13.406 97.229 L 13.406 20.29 C 13.406 16.427 16.89 13.298 21.186 13.298 Z " fill="rgb(31,40,55)"/><clipPath id="_clipPath_NnvQs7QUFlzt8nc2DEW9ryZyUyhsXgFP"><path d=" M 21.186 13.298 L 106.782 13.298 C 111.079 13.298 114.562 16.427 114.562 20.29 L 114.562 97.229 C 114.562 101.091 111.079 104.22 106.782 104.22 L 21.186 104.22 C 16.89 104.22 13.406 101.091 13.406 97.229 L 13.406 20.29 C 13.406 16.427 16.89 13.298 21.186 13.298 Z " fill="rgb(255,255,255)"/></clipPath><g clip-path="url(#_clipPath_NnvQs7QUFlzt8nc2DEW9ryZyUyhsXgFP)"><g><path d=" M 7.108 19.844 L 122.225 19.844 M 108.538 7.556 L 108.538 110.904 M 7.108 27.722 L 122.225 27.722 M 99.763 7.556 L 99.763 110.904 M 7.108 35.599 L 122.225 35.599 M 90.99 7.556 L 90.99 110.904 M 7.108 43.475 L 122.225 43.475 M 82.215 7.556 L 82.215 110.904 M 7.108 51.352 L 122.225 51.352 M 73.441 7.556 L 73.441 110.904 M 7.108 59.23 L 122.225 59.23 M 64.667 7.556 L 64.667 110.904 M 7.108 67.107 L 122.225 67.107 M 55.893 7.556 L 55.893 110.904 M 7.108 74.984 L 122.225 74.984 M 47.118 7.556 L 47.118 110.904 M 7.108 82.861 L 122.225 82.861 M 38.345 7.556 L 38.345 110.904 M 7.108 90.738 L 122.225 90.738 M 29.57 7.556 L 29.57 110.904 M 7.108 98.615 L 122.225 98.615 M 20.795 7.556 L 20.795 110.904" fill-rule="evenodd" fill="none"/><clipPath id="_clipPath_cMqT3zLe5IIohsjKrqfHOLr2niYsJQJV"><path d=" M -283.438 -294.702 L 272.438 -294.702 L 272.438 278.89 L -283.438 278.89 L -283.438 -294.702 Z  M 7.108 19.844 L 122.225 19.844 L 7.108 19.844 L 7.108 19.844 Z  M 108.538 7.556 L 108.538 110.904 L 108.538 7.556 L 108.538 7.556 Z  M 7.108 27.722 L 122.225 27.722 L 7.108 27.722 L 7.108 27.722 Z  M 99.763 7.556 L 99.763 110.904 L 99.763 7.556 L 99.763 7.556 Z  M 7.108 35.599 L 122.225 35.599 L 7.108 35.599 L 7.108 35.599 Z  M 90.99 7.556 L 90.99 110.904 L 90.99 7.556 L 90.99 7.556 Z  M 7.108 43.475 L 122.225 43.475 L 7.108 43.475 L 7.108 43.475 Z  M 82.215 7.556 L 82.215 110.904 L 82.215 7.556 L 82.215 7.556 Z  M 7.108 51.352 L 122.225 51.352 L 7.108 51.352 L 7.108 51.352 Z  M 73.441 7.556 L 73.441 110.904 L 73.441 7.556 L 73.441 7.556 Z  M 7.108 59.23 L 122.225 59.23 L 7.108 59.23 L 7.108 59.23 Z  M 64.667 7.556 L 64.667 110.904 L 64.667 7.556 L 64.667 7.556 Z  M 7.108 67.107 L 122.225 67.107 L 7.108 67.107 L 7.108 67.107 Z  M 55.893 7.556 L 55.893 110.904 L 55.893 7.556 L 55.893 7.556 Z  M 7.108 74.984 L 122.225 74.984 L 7.108 74.984 L 7.108 74.984 Z  M 47.118 7.556 L 47.118 110.904 L 47.118 7.556 L 47.118 7.556 Z  M 7.108 82.861 L 122.225 82.861 L 7.108 82.861 L 7.108 82.861 Z  M 38.345 7.556 L 38.345 110.904 L 38.345 7.556 L 38.345 7.556 Z  M 7.108 90.738 L 122.225 90.738 L 7.108 90.738 L 7.108 90.738 Z  M 29.57 7.556 L 29.57 110.904 L 29.57 7.556 L 29.57 7.556 Z  M 7.108 98.615 L 122.225 98.615 L 7.108 98.615 L 7.108 98.615 Z  M 20.795 7.556 L 20.795 110.904 L 20.795 7.556 L 20.795 7.556 Z " fill-rule="evenodd" fill="rgb(255,255,255)"/></clipPath><g clip-path="url(#_clipPath_cMqT3zLe5IIohsjKrqfHOLr2niYsJQJV)"><mask id="_mask_7I0sE9IGSs3SLLQCudtRG6dyTk9q4HCy" x="-200%" y="-200%" width="400%" height="400%"><rect x="-200%" y="-200%" width="400%" height="400%" style="fill:white;"/><path d=" M 7.108 19.844 L 122.225 19.844 M 108.538 7.556 L 108.538 110.904 M 7.108 27.722 L 122.225 27.722 M 99.763 7.556 L 99.763 110.904 M 7.108 35.599 L 122.225 35.599 M 90.99 7.556 L 90.99 110.904 M 7.108 43.475 L 122.225 43.475 M 82.215 7.556 L 82.215 110.904 M 7.108 51.352 L 122.225 51.352 M 73.441 7.556 L 73.441 110.904 M 7.108 59.23 L 122.225 59.23 M 64.667 7.556 L 64.667 110.904 M 7.108 67.107 L 122.225 67.107 M 55.893 7.556 L 55.893 110.904 M 7.108 74.984 L 122.225 74.984 M 47.118 7.556 L 47.118 110.904 M 7.108 82.861 L 122.225 82.861 M 38.345 7.556 L 38.345 110.904 M 7.108 90.738 L 122.225 90.738 M 29.57 7.556 L 29.57 110.904 M 7.108 98.615 L 122.225 98.615 M 20.795 7.556 L 20.795 110.904" fill-rule="evenodd" fill="black" stroke="none"/></mask><path d=" M 7.108 19.844 L 122.225 19.844 M 108.538 7.556 L 108.538 110.904 M 7.108 27.722 L 122.225 27.722 M 99.763 7.556 L 99.763 110.904 M 7.108 35.599 L 122.225 35.599 M 90.99 7.556 L 90.99 110.904 M 7.108 43.475 L 122.225 43.475 M 82.215 7.556 L 82.215 110.904 M 7.108 51.352 L 122.225 51.352 M 73.441 7.556 L 73.441 110.904 M 7.108 59.23 L 122.225 59.23 M 64.667 7.556 L 64.667 110.904 M 7.108 67.107 L 122.225 67.107 M 55.893 7.556 L 55.893 110.904 M 7.108 74.984 L 122.225 74.984 M 47.118 7.556 L 47.118 110.904 M 7.108 82.861 L 122.225 82.861 M 38.345 7.556 L 38.345 110.904 M 7.108 90.738 L 122.225 90.738 M 29.57 7.556 L 29.57 110.904 M 7.108 98.615 L 122.225 98.615 M 20.795 7.556 L 20.795 110.904" fill-rule="evenodd" fill="none"/><path d=" M 7.108 19.844 L 122.225 19.844 M 108.538 7.556 L 108.538 110.904 M 7.108 27.722 L 122.225 27.722 M 99.763 7.556 L 99.763 110.904 M 7.108 35.599 L 122.225 35.599 M 90.99 7.556 L 90.99 110.904 M 7.108 43.475 L 122.225 43.475 M 82.215 7.556 L 82.215 110.904 M 7.108 51.352 L 122.225 51.352 M 73.441 7.556 L 73.441 110.904 M 7.108 59.23 L 122.225 59.23 M 64.667 7.556 L 64.667 110.904 M 7.108 67.107 L 122.225 67.107 M 55.893 7.556 L 55.893 110.904 M 7.108 74.984 L 122.225 74.984 M 47.118 7.556 L 47.118 110.904 M 7.108 82.861 L 122.225 82.861 M 38.345 7.556 L 38.345 110.904 M 7.108 90.738 L 122.225 90.738 M 29.57 7.556 L 29.57 110.904 M 7.108 98.615 L 122.225 98.615 M 20.795 7.556 L 20.795 110.904" fill-rule="evenodd" fill="none" mask="url(#_mask_7I0sE9IGSs3SLLQCudtRG6dyTk9q4HCy)" vector-effect="non-scaling-stroke" stroke-width="0.2" stroke="rgb(138,183,255)" stroke-opacity="26" stroke-linejoin="miter" stroke-linecap="butt" stroke-miterlimit="4"/></g></g></g></g><path d=" M 56.964 49.02 L 56.964 49.02 L 56.964 49.02 Q 58.442 49.02 59.558 49.296 L 59.558 49.296 L 59.558 49.296 Q 60.673 49.571 61.357 50.024 L 61.357 50.024 L 61.357 50.024 Q 62.041 50.475 62.465 51.153 L 62.465 51.153 L 62.465 51.153 Q 62.89 51.831 63.047 52.529 L 63.047 52.529 L 63.047 52.529 Q 63.204 53.229 63.204 54.09 L 63.204 54.09 L 63.204 63.24 L 60.687 63.24 L 60.303 62.323 L 60.303 62.323 Q 58.483 63.523 56.157 63.523 L 56.157 63.523 L 56.157 63.523 Q 53.626 63.523 52.051 62.294 L 52.051 62.294 L 52.051 62.294 Q 50.477 61.066 50.477 59.385 L 50.477 59.385 L 50.477 59.385 Q 50.477 58.341 50.992 57.564 L 50.992 57.564 L 50.992 57.564 Q 51.505 56.788 52.34 56.321 L 52.34 56.321 L 52.34 56.321 Q 53.173 55.855 54.433 55.559 L 54.433 55.559 L 54.433 55.559 Q 55.692 55.262 56.957 55.149 L 56.957 55.149 L 56.957 55.149 Q 58.224 55.037 59.824 55.022 L 59.824 55.022 L 59.824 54.542 L 59.824 54.542 Q 59.824 54.006 59.736 53.653 L 59.736 53.653 L 59.736 53.653 Q 59.646 53.299 59.346 52.904 L 59.346 52.904 L 59.346 52.904 Q 59.045 52.509 58.34 52.304 L 58.34 52.304 L 58.34 52.304 Q 57.635 52.099 56.541 52.099 L 56.541 52.099 L 56.541 52.099 Q 55.008 52.099 52.476 52.72 L 52.476 52.72 L 51.929 52.875 L 51.231 50.094 L 51.709 49.924 L 51.709 49.924 Q 54.241 49.02 56.964 49.02 Z  M 59.824 59.639 L 59.824 59.639 L 59.824 57.648 L 59.496 57.648 L 59.496 57.648 Q 56.731 57.648 55.383 57.988 L 55.383 57.988 L 55.383 57.988 Q 54.037 58.326 54.037 59.132 L 54.037 59.132 L 54.037 59.132 Q 54.037 59.639 54.856 60.092 L 54.856 60.092 L 54.856 60.092 Q 55.678 60.543 56.869 60.543 L 56.869 60.543 L 56.869 60.543 Q 58.552 60.543 59.824 59.639 Z  M 75.232 49.02 L 75.232 49.02 L 75.232 49.02 Q 76.26 49.02 77.217 49.233 L 77.217 49.233 L 77.217 49.233 Q 78.175 49.444 79.106 49.96 L 79.106 49.96 L 79.106 49.96 Q 80.036 50.475 80.72 51.258 L 80.72 51.258 L 80.72 51.258 Q 81.405 52.042 81.828 53.293 L 81.828 53.293 L 81.828 53.293 Q 82.253 54.542 82.253 56.124 L 82.253 56.124 L 82.253 56.124 Q 82.253 59.583 80.228 61.552 L 80.228 61.552 L 80.228 61.552 Q 78.203 63.523 74.767 63.523 L 74.767 63.523 L 74.767 63.523 Q 73.167 63.523 71.634 63.043 L 71.634 63.043 L 71.634 70.738 L 68.131 70.738 L 68.131 49.289 L 70.621 49.289 L 70.936 49.953 L 70.936 49.953 Q 73.03 49.02 75.232 49.02 Z  M 74.344 52.099 L 74.344 52.099 L 74.344 52.099 Q 72.989 52.099 71.634 52.593 L 71.634 52.593 L 71.634 60.119 L 71.634 60.119 Q 73.058 60.543 74.385 60.543 L 74.385 60.543 L 74.385 60.543 Q 75 60.543 75.576 60.445 L 75.576 60.445 L 75.576 60.445 Q 76.15 60.346 76.78 60.07 L 76.78 60.07 L 76.78 60.07 Q 77.409 59.795 77.874 59.357 L 77.874 59.357 L 77.874 59.357 Q 78.339 58.919 78.64 58.177 L 78.64 58.177 L 78.64 58.177 Q 78.942 57.437 78.942 56.477 L 78.942 56.477 L 78.942 56.477 Q 78.942 55.417 78.633 54.606 L 78.633 54.606 L 78.633 54.606 Q 78.325 53.793 77.86 53.335 L 77.86 53.335 L 77.86 53.335 Q 77.395 52.875 76.751 52.579 L 76.751 52.579 L 76.751 52.579 Q 76.108 52.282 75.534 52.191 L 75.534 52.191 L 75.534 52.191 Q 74.959 52.099 74.344 52.099 Z  M 90.436 56.377 L 84.908 49.289 L 88.891 49.289 L 92.981 54.386 L 96.923 49.289 L 100.713 49.289 L 95.131 56.392 L 100.44 63.24 L 96.458 63.24 L 92.558 58.439 L 88.849 63.24 L 85.072 63.24 L 90.436 56.377 L 90.436 56.377 Z  M 27.255 49.854 L 27.255 46.38 L 40.324 53.017 L 40.324 56.081 L 27.255 62.463 L 27.255 58.848 L 36.11 54.457 L 27.255 49.854 L 27.255 49.854 Z " fill="rgb(45,185,255)"/></g></g></g></svg>