<?xml version="1.0" encoding="UTF-8" standalone="no"?><!-- Generator: Gravit.io --><svg xmlns="http://www.w3.org/2000/svg" xmlns:xlink="http://www.w3.org/1999/xlink" style="isolation:isolate" viewBox="0 0 248 87" width="248pt" height="87pt"><defs><clipPath id="_clipPath_xKa9kO9lQBRZxnghacIAEpFApEQk8NaU"><rect width="248" height="87"/></clipPath></defs><g clip-path="url(#_clipPath_xKa9kO9lQBRZxnghacIAEpFApEQk8NaU)"><path d=" M 206.918 59.975 L 206.918 59.975 Q 207.884 59.975 208.442 60.779 L 208.442 60.779 L 208.442 60.779 Q 209 61.583 209 62.99 L 209 62.99 L 209 62.99 Q 209 65.67 207.587 67.144 L 207.587 67.144 L 207.587 67.144 Q 204.389 70.695 200.633 72.973 L 200.633 72.973 L 200.633 72.973 Q 196.878 75.251 192.118 75.251 L 192.118 75.251 L 192.118 75.251 Q 185.573 75.251 182.413 69.891 L 182.413 69.891 L 182.413 69.891 Q 179.252 64.531 179.252 56.022 L 179.252 56.022 L 179.252 56.022 Q 179.252 47.848 181.595 37.396 L 181.595 37.396 L 181.595 37.396 Q 183.937 26.944 188.511 19.44 L 188.511 19.44 L 188.511 19.44 Q 193.085 11.936 199.406 11.936 L 199.406 11.936 L 199.406 11.936 Q 202.976 11.936 205.021 14.918 L 205.021 14.918 L 205.021 14.918 Q 207.066 17.899 207.066 23.46 L 207.066 23.46 L 207.066 23.46 Q 207.066 31.433 202.158 41.952 L 202.158 41.952 L 202.158 41.952 Q 197.25 52.471 188.846 62.789 L 188.846 62.789 L 188.846 62.789 Q 189.366 65.536 190.556 66.709 L 190.556 66.709 L 190.556 66.709 Q 191.746 67.881 193.68 67.881 L 193.68 67.881 L 193.68 67.881 Q 196.729 67.881 199.034 66.307 L 199.034 66.307 L 199.034 66.307 Q 201.34 64.732 204.91 60.913 L 204.91 60.913 L 204.91 60.913 Q 205.802 59.975 206.918 59.975 L 206.918 59.975 Z  M 197.77 18.569 L 197.77 18.569 Q 196.06 18.569 193.903 24.13 L 193.903 24.13 L 193.903 24.13 Q 191.746 29.691 190.11 37.932 L 190.11 37.932 L 190.11 37.932 Q 188.474 46.173 188.325 53.744 L 188.325 53.744 L 188.325 53.744 Q 193.605 45.905 196.729 38.033 L 196.729 38.033 L 196.729 38.033 Q 199.852 30.16 199.852 23.661 L 199.852 23.661 L 199.852 23.661 Q 199.852 18.569 197.77 18.569 L 197.77 18.569 Z " fill-rule="evenodd" fill="rgb(0,0,0)"/><path d=" M 182.666 59.975 L 182.666 59.975 Q 183.632 59.975 184.19 60.779 L 184.19 60.779 L 184.19 60.779 Q 184.748 61.583 184.748 62.99 L 184.748 62.99 L 184.748 62.99 Q 184.748 65.67 183.335 67.144 L 183.335 67.144 L 183.335 67.144 Q 180.137 70.695 176.381 72.973 L 176.381 72.973 L 176.381 72.973 Q 172.626 75.251 167.866 75.251 L 167.866 75.251 L 167.866 75.251 Q 161.321 75.251 158.161 69.891 L 158.161 69.891 L 158.161 69.891 Q 155 64.531 155 56.022 L 155 56.022 L 155 56.022 Q 155 47.848 157.343 37.396 L 157.343 37.396 L 157.343 37.396 Q 159.685 26.944 164.259 19.44 L 164.259 19.44 L 164.259 19.44 Q 168.833 11.936 175.154 11.936 L 175.154 11.936 L 175.154 11.936 Q 178.724 11.936 180.769 14.918 L 180.769 14.918 L 180.769 14.918 Q 182.814 17.899 182.814 23.46 L 182.814 23.46 L 182.814 23.46 Q 182.814 31.433 177.906 41.952 L 177.906 41.952 L 177.906 41.952 Q 172.998 52.471 164.594 62.789 L 164.594 62.789 L 164.594 62.789 Q 165.114 65.536 166.304 66.709 L 166.304 66.709 L 166.304 66.709 Q 167.494 67.881 169.428 67.881 L 169.428 67.881 L 169.428 67.881 Q 172.477 67.881 174.782 66.307 L 174.782 66.307 L 174.782 66.307 Q 177.088 64.732 180.658 60.913 L 180.658 60.913 L 180.658 60.913 Q 181.55 59.975 182.666 59.975 L 182.666 59.975 Z  M 173.518 18.569 L 173.518 18.569 Q 171.808 18.569 169.651 24.13 L 169.651 24.13 L 169.651 24.13 Q 167.494 29.691 165.858 37.932 L 165.858 37.932 L 165.858 37.932 Q 164.222 46.173 164.073 53.744 L 164.073 53.744 L 164.073 53.744 Q 169.353 45.905 172.477 38.033 L 172.477 38.033 L 172.477 38.033 Q 175.6 30.16 175.6 23.661 L 175.6 23.661 L 175.6 23.661 Q 175.6 18.569 173.518 18.569 L 173.518 18.569 Z " fill-rule="evenodd" fill="rgb(0,0,0)"/><path d=" M 145.829 75.385 L 145.829 75.385 Q 140.994 75.385 138.801 72.303 L 138.801 72.303 L 138.801 72.303 Q 136.607 69.221 136.607 64.129 L 136.607 64.129 L 136.607 64.129 Q 136.607 61.114 137.462 56.391 L 137.462 56.391 L 137.462 56.391 Q 138.317 51.667 139.656 47.58 L 139.656 47.58 L 139.656 47.58 Q 140.325 45.436 141.441 44.632 L 141.441 44.632 L 141.441 44.632 Q 142.556 43.828 145.01 43.828 L 145.01 43.828 L 145.01 43.828 Q 148.803 43.828 148.803 46.106 L 148.803 46.106 L 148.803 46.106 Q 148.803 47.781 147.39 53.878 L 147.39 53.878 L 147.39 53.878 Q 145.605 61.248 145.605 63.861 L 145.605 63.861 L 145.605 63.861 Q 145.605 65.871 146.2 66.943 L 146.2 66.943 L 146.2 66.943 Q 146.795 68.015 148.208 68.015 L 148.208 68.015 L 148.208 68.015 Q 149.547 68.015 151.555 66.34 L 151.555 66.34 L 151.555 66.34 Q 153.563 64.665 156.91 61.047 L 156.91 61.047 L 156.91 61.047 Q 157.802 60.109 158.918 60.109 L 158.918 60.109 L 158.918 60.109 Q 159.884 60.109 160.442 60.913 L 160.442 60.913 L 160.442 60.913 Q 161 61.717 161 63.124 L 161 63.124 L 161 63.124 Q 161 65.804 159.587 67.278 L 159.587 67.278 L 159.587 67.278 Q 152.224 75.385 145.829 75.385 L 145.829 75.385 Z " fill="rgb(0,0,0)"/><path d=" M 105.132 75.251 L 105.132 75.251 Q 102.305 75.251 101.153 72.571 L 101.153 72.571 L 101.153 72.571 Q 100 69.891 100 63.995 L 100 63.995 L 100 63.995 Q 100 55.285 102.752 47.446 L 102.752 47.446 L 102.752 47.446 Q 103.421 45.503 104.946 44.599 L 104.946 44.599 L 104.946 44.599 Q 106.47 43.694 109.222 43.694 L 109.222 43.694 L 109.222 43.694 Q 110.709 43.694 111.304 44.029 L 111.304 44.029 L 111.304 44.029 Q 111.899 44.364 111.899 45.302 L 111.899 45.302 L 111.899 45.302 Q 111.899 46.374 110.784 50.126 L 110.784 50.126 L 110.784 50.126 Q 110.04 52.806 109.594 54.816 L 109.594 54.816 L 109.594 54.816 Q 109.148 56.826 108.85 59.774 L 108.85 59.774 L 108.85 59.774 Q 111.304 54.012 114.353 50.394 L 114.353 50.394 L 114.353 50.394 Q 117.403 46.776 120.34 45.235 L 120.34 45.235 L 120.34 45.235 Q 123.278 43.694 125.732 43.694 L 125.732 43.694 L 125.732 43.694 Q 130.566 43.694 130.566 48.049 L 130.566 48.049 L 130.566 48.049 Q 130.566 50.662 128.93 57.496 L 128.93 57.496 L 128.93 57.496 Q 127.517 63.325 127.517 65.201 L 127.517 65.201 L 127.517 65.201 Q 127.517 67.881 129.674 67.881 L 129.674 67.881 L 129.674 67.881 Q 131.161 67.881 133.206 66.24 L 133.206 66.24 L 133.206 66.24 Q 135.251 64.598 138.672 60.913 L 138.672 60.913 L 138.672 60.913 Q 139.565 59.975 140.68 59.975 L 140.68 59.975 L 140.68 59.975 Q 141.647 59.975 142.205 60.779 L 142.205 60.779 L 142.205 60.779 Q 142.763 61.583 142.763 62.99 L 142.763 62.99 L 142.763 62.99 Q 142.763 65.67 141.35 67.144 L 141.35 67.144 L 141.35 67.144 Q 138.152 70.695 134.47 72.973 L 134.47 72.973 L 134.47 72.973 Q 130.789 75.251 126.104 75.251 L 126.104 75.251 L 126.104 75.251 Q 122.311 75.251 120.377 73.275 L 120.377 73.275 L 120.377 73.275 Q 118.444 71.298 118.444 67.546 L 118.444 67.546 L 118.444 67.546 Q 118.444 65.67 119.485 60.846 L 119.485 60.846 L 119.485 60.846 Q 120.452 56.625 120.452 55.017 L 120.452 55.017 L 120.452 55.017 Q 120.452 53.945 119.634 53.945 L 119.634 53.945 L 119.634 53.945 Q 118.667 53.945 116.919 56.19 L 116.919 56.19 L 116.919 56.19 Q 115.171 58.434 113.349 62.119 L 113.349 62.119 L 113.349 62.119 Q 111.527 65.804 110.412 69.891 L 110.412 69.891 L 110.412 69.891 Q 109.594 73.04 108.515 74.146 L 108.515 74.146 L 108.515 74.146 Q 107.437 75.251 105.132 75.251 L 105.132 75.251 Z " fill="rgb(0,0,0)"/><path d=" M 74.17 75.385 L 74.17 75.385 Q 69.559 75.385 66.807 72.37 L 66.807 72.37 L 66.807 72.37 Q 64.055 69.355 64.055 64.464 L 64.055 64.464 L 64.055 64.464 Q 64.055 59.104 66.807 54.314 L 66.807 54.314 L 66.807 54.314 Q 69.559 49.523 74.132 46.609 L 74.132 46.609 L 74.132 46.609 Q 78.706 43.694 83.838 43.694 L 83.838 43.694 L 83.838 43.694 Q 85.474 43.694 86.032 44.264 L 86.032 44.264 L 86.032 44.264 Q 86.589 44.833 86.961 46.307 L 86.961 46.307 L 86.961 46.307 Q 88.523 46.039 90.234 46.039 L 90.234 46.039 L 90.234 46.039 Q 93.878 46.039 93.878 48.384 L 93.878 48.384 L 93.878 48.384 Q 93.878 49.791 92.762 55.084 L 92.762 55.084 L 92.762 55.084 Q 91.052 62.789 91.052 65.804 L 91.052 65.804 L 91.052 65.804 Q 91.052 66.809 91.609 67.412 L 91.609 67.412 L 91.609 67.412 Q 92.167 68.015 93.06 68.015 L 93.06 68.015 L 93.06 68.015 Q 94.473 68.015 96.481 66.374 L 96.481 66.374 L 96.481 66.374 Q 98.489 64.732 101.91 61.047 L 101.91 61.047 L 101.91 61.047 Q 102.802 60.109 103.918 60.109 L 103.918 60.109 L 103.918 60.109 Q 104.884 60.109 105.442 60.913 L 105.442 60.913 L 105.442 60.913 Q 106 61.717 106 63.124 L 106 63.124 L 106 63.124 Q 106 65.804 104.587 67.278 L 104.587 67.278 L 104.587 67.278 Q 101.538 70.695 98.117 73.04 L 98.117 73.04 L 98.117 73.04 Q 94.696 75.385 91.498 75.385 L 91.498 75.385 L 91.498 75.385 Q 89.044 75.385 86.998 73.878 L 86.998 73.878 L 86.998 73.878 Q 84.953 72.37 83.912 69.757 L 83.912 69.757 L 83.912 69.757 Q 80.045 75.385 74.17 75.385 L 74.17 75.385 Z  M 76.847 68.618 L 76.847 68.618 Q 78.483 68.618 79.971 66.876 L 79.971 66.876 L 79.971 66.876 Q 81.458 65.134 82.127 62.253 L 82.127 62.253 L 84.879 49.925 L 84.879 49.925 Q 81.755 49.992 79.115 52.036 L 79.115 52.036 L 79.115 52.036 Q 76.475 54.079 74.913 57.429 L 74.913 57.429 L 74.913 57.429 Q 73.352 60.779 73.352 64.531 L 73.352 64.531 L 73.352 64.531 Q 73.352 66.608 74.281 67.613 L 74.281 67.613 L 74.281 67.613 Q 75.211 68.618 76.847 68.618 L 76.847 68.618 Z " fill-rule="evenodd" fill="rgb(0,0,0)"/><path d=" M 71.215 46.106 L 71.215 46.106 Q 72.926 46.106 73.707 46.776 L 73.707 46.776 L 73.707 46.776 Q 74.488 47.446 74.488 48.518 L 74.488 48.518 L 74.488 48.518 Q 74.488 50.26 73.335 51.6 L 73.335 51.6 L 73.335 51.6 Q 72.182 52.94 69.728 53.007 L 69.728 53.007 L 69.728 53.007 Q 63.778 53.141 59.167 52.203 L 59.167 52.203 L 59.167 52.203 Q 53.887 62.186 46.413 68.786 L 46.413 68.786 L 46.413 68.786 Q 38.939 75.385 31.427 75.385 L 31.427 75.385 L 31.427 75.385 Q 23.693 75.385 19.9 67.278 L 19.9 67.278 L 19.9 67.278 Q 16.107 59.171 16.107 45.369 L 16.107 45.369 L 16.107 45.369 Q 16.107 33.577 17.966 24.197 L 17.966 24.197 L 17.966 24.197 Q 18.636 20.713 19.863 19.474 L 19.863 19.474 L 19.863 19.474 Q 21.09 18.234 24.065 18.234 L 24.065 18.234 L 24.065 18.234 Q 28.973 18.234 28.973 22.053 L 28.973 22.053 L 28.973 22.053 Q 28.973 22.455 28.824 23.527 L 28.824 23.527 L 28.824 23.527 Q 26.593 35.587 26.593 45.369 L 26.593 45.369 L 26.593 45.369 Q 26.593 55.62 28.49 60.947 L 28.49 60.947 L 28.49 60.947 Q 30.386 66.273 34.179 66.273 L 34.179 66.273 L 34.179 66.273 Q 38.046 66.273 42.583 61.449 L 42.583 61.449 L 42.583 61.449 Q 47.119 56.625 50.912 49.322 L 50.912 49.322 L 50.912 49.322 Q 46.376 46.776 44.07 42.723 L 44.07 42.723 L 44.07 42.723 Q 41.765 38.669 41.765 33.376 L 41.765 33.376 L 41.765 33.376 Q 41.765 28.083 43.587 24.432 L 43.587 24.432 L 43.587 24.432 Q 45.409 20.78 48.57 18.971 L 48.57 18.971 L 48.57 18.971 Q 51.73 17.162 55.598 17.162 L 55.598 17.162 L 55.598 17.162 Q 60.357 17.162 63.146 20.244 L 63.146 20.244 L 63.146 20.244 Q 65.935 23.326 65.935 28.686 L 65.935 28.686 L 65.935 28.686 Q 65.935 36.391 62.217 45.503 L 62.217 45.503 L 62.217 45.503 Q 66.158 46.106 71.215 46.106 L 71.215 46.106 L 71.215 46.106 Z  M 49.276 32.907 L 49.276 32.907 Q 49.276 39.473 53.961 42.622 L 53.961 42.622 L 53.961 42.622 Q 56.862 35.118 56.862 30.227 L 56.862 30.227 L 56.862 30.227 Q 56.862 27.413 56.044 26.107 L 56.044 26.107 L 56.044 26.107 Q 55.226 24.8 53.813 24.8 L 53.813 24.8 L 53.813 24.8 Q 51.805 24.8 50.54 26.911 L 50.54 26.911 L 50.54 26.911 Q 49.276 29.021 49.276 32.907 L 49.276 32.907 L 49.276 32.907 Z " fill-rule="evenodd" fill="rgb(0,0,0)"/><path d=" M 211.102 75.385 C 208.276 75.385 205.97 74.38 204.186 72.37 C 202.475 70.36 201.583 67.747 201.583 64.464 C 201.583 60.913 202.475 57.496 204.334 54.28 C 206.194 51.131 208.648 48.518 211.697 46.575 C 214.746 44.632 217.944 43.694 221.365 43.694 C 222.481 43.694 223.224 43.895 223.596 44.23 C 223.968 44.632 224.265 45.302 224.489 46.307 C 225.455 46.106 226.497 46.039 227.612 46.039 C 228.802 46.039 229.694 46.307 230.364 46.843 C 231.033 47.379 231.331 48.116 231.331 49.121 C 231.331 50.126 231.108 51.935 230.587 54.481 C 230.066 57.228 229.62 59.774 229.323 62.253 C 229.025 64.732 228.876 67.546 228.876 70.628 C 228.876 72.303 228.505 73.509 227.761 74.246 C 226.943 74.983 225.678 75.385 223.968 75.385 C 222.257 75.385 221.068 74.983 220.175 74.246 C 219.431 73.509 218.985 72.37 218.985 70.695 L 219.06 69.623 C 217.498 73.442 214.895 75.385 211.102 75.385 Z  M 214.002 68.618 C 215.415 68.618 216.68 67.747 217.795 66.005 C 218.911 64.263 219.952 61.181 220.844 56.692 L 222.257 49.925 C 220.249 49.992 218.316 50.662 216.605 52.002 C 214.895 53.409 213.482 55.218 212.441 57.429 C 211.399 59.64 210.879 62.052 210.879 64.531 C 210.879 65.871 211.176 66.876 211.771 67.546 C 212.292 68.283 213.036 68.618 214.002 68.618 Z " fill="rgb(0,0,0)"/><path d=" M 146.247 39.452 C 144.164 39.452 142.602 39.016 141.562 38.146 C 140.521 37.274 140 36.057 140 34.494 C 140 32.931 140.682 31.625 142.045 30.575 C 143.409 29.526 145.107 29 147.139 29 C 148.974 29 150.461 29.402 151.602 30.206 C 152.742 31.009 153.312 32.149 153.312 33.622 C 153.312 35.409 152.668 36.828 151.378 37.877 C 150.09 38.927 148.379 39.452 146.247 39.452 Z " fill="rgb(251,189,78)"/></g></svg>