<svg width="895" height="505" viewBox="0 0 895 505" fill="none" xmlns="http://www.w3.org/2000/svg">
<rect width="70.3721" height="708.947" transform="matrix(0.948789 0.315911 -0.369681 0.929159 86.166 -139.978)" fill="#AA9065" fill-opacity="0.15"/>
<rect width="70.3721" height="708.947" transform="matrix(0.948789 0.315911 -0.369681 0.929159 228.273 -139.978)" fill="#AA9065" fill-opacity="0.15"/>
<rect width="70.3721" height="708.947" transform="matrix(0.948789 0.315911 -0.369681 0.929159 370.379 -139.978)" fill="#AA9065" fill-opacity="0.15"/>
<rect width="70.3721" height="708.947" transform="matrix(0.948789 0.315911 -0.369681 0.929159 512.486 -139.978)" fill="#AA9065" fill-opacity="0.15"/>
<rect width="70.3721" height="708.947" transform="matrix(0.948789 0.315911 -0.369681 0.929159 654.592 -139.978)" fill="#AA9065" fill-opacity="0.15"/>
<rect width="70.3721" height="708.947" transform="matrix(0.948789 0.315911 -0.369681 0.929159 796.699 -139.978)" fill="#AA9065" fill-opacity="0.15"/>
<rect width="70.3721" height="708.947" transform="matrix(0.948789 0.315911 -0.369681 0.929159 938.805 -139.978)" fill="#AA9065" fill-opacity="0.15"/>
<rect width="70.3721" height="708.947" transform="matrix(0.948789 0.315911 -0.369681 0.929159 1080.91 -139.978)" fill="#AA9065" fill-opacity="0.15"/>
</svg>
