<?xml version="1.0" encoding="UTF-8" standalone="no"?><!-- Generator: Gravit.io --><svg xmlns="http://www.w3.org/2000/svg" xmlns:xlink="http://www.w3.org/1999/xlink" style="isolation:isolate" viewBox="0 0 128 128" width="128pt" height="128pt"><defs><clipPath id="_clipPath_UPjQYOC7T3SNoA2caoRbs1MNOWm2C0vn"><rect width="128" height="128"/></clipPath></defs><g clip-path="url(#_clipPath_UPjQYOC7T3SNoA2caoRbs1MNOWm2C0vn)"><linearGradient id="_lgradient_53" x1="0" y1="0.5" x2="1" y2="0.5" gradientTransform="matrix(92.5,0,0,90.172,17.75,22.669)" gradientUnits="userSpaceOnUse"><stop offset="1.6666666666666667%" stop-opacity="1" style="stop-color:rgb(35,140,61)"/><stop offset="3.75%" stop-opacity="1" style="stop-color:rgb(43,151,68)"/><stop offset="12.083333333333334%" stop-opacity="1" style="stop-color:rgb(35,140,61)"/><stop offset="88.75%" stop-opacity="1" style="stop-color:rgb(35,140,61)"/><stop offset="95.99086988304475%" stop-opacity="1" style="stop-color:rgb(43,151,68)"/><stop offset="98.75%" stop-opacity="1" style="stop-color:rgb(35,140,61)"/></linearGradient><path d=" M 110.25 22.669 L 110.25 22.669 L 110.25 98.139 L 110.25 105.331 C 110.25 109.48 107.065 112.842 103.135 112.842 L 24.865 112.842 C 20.936 112.842 17.75 109.48 17.75 105.331 L 17.75 98.139 C 17.75 102.112 20.936 105.331 24.865 105.331 L 103.135 105.331 C 107.065 105.331 110.25 102.112 110.25 98.139 L 110.25 98.139 L 110.25 22.669 Z " fill="url(#_lgradient_53)"/><path d=" M 24.865 12.4 L 103.135 12.4 C 107.065 12.4 110.25 15.621 110.25 19.593 L 110.25 98.756 C 110.25 102.728 107.065 105.948 103.135 105.948 L 24.865 105.948 C 20.936 105.948 17.75 102.728 17.75 98.756 L 17.75 19.593 C 17.75 15.621 20.936 12.4 24.865 12.4 Z " fill="rgb(80,213,111)"/><linearGradient id="_lgradient_54" x1="0.5" y1="1" x2="0.5000000000000001" y2="0" gradientTransform="matrix(92.5,0,0,93.548,17.75,11.783)" gradientUnits="userSpaceOnUse"><stop offset="0%" stop-opacity="1" style="stop-color:rgb(38,181,71)"/><stop offset="100%" stop-opacity="1" style="stop-color:rgb(34,132,57)"/></linearGradient><path d=" M 24.865 11.783 L 103.135 11.783 C 107.065 11.783 110.25 15.004 110.25 18.977 L 110.25 98.139 C 110.25 102.112 107.065 105.331 103.135 105.331 L 24.865 105.331 C 20.936 105.331 17.75 102.112 17.75 98.139 L 17.75 18.977 C 17.75 15.004 20.936 11.783 24.865 11.783 Z " fill="url(#_lgradient_54)"/><g><linearGradient id="_lgradient_55" x1="0" y1="0.5" x2="1" y2="0.5" gradientTransform="matrix(39.25,0,0,34.112,44.375,44.99)" gradientUnits="userSpaceOnUse"><stop offset="1.25%" stop-opacity="1" style="stop-color:rgb(51,51,51)"/><stop offset="3.75%" stop-opacity="1" style="stop-color:rgb(81,81,81)"/><stop offset="11.666666666666666%" stop-opacity="1" style="stop-color:rgb(51,51,51)"/><stop offset="87.91666666666667%" stop-opacity="1" style="stop-color:rgb(51,51,51)"/><stop offset="95.99086988304475%" stop-opacity="1" style="stop-color:rgb(81,81,81)"/><stop offset="98.75%" stop-opacity="1" style="stop-color:rgb(51,51,51)"/></linearGradient><path d=" M 83.625 44.99 L 83.625 44.99 L 83.625 73.54 L 83.625 76.261 C 83.625 77.83 82.273 79.102 80.606 79.102 L 47.394 79.102 C 45.727 79.102 44.375 77.83 44.375 76.261 L 44.375 73.54 C 44.375 75.043 45.727 76.261 47.394 76.261 L 80.606 76.261 C 82.273 76.261 83.625 75.043 83.625 73.54 L 83.625 73.54 L 83.625 44.99 Z " fill="url(#_lgradient_55)"/><path d=" M 47.394 41.105 L 80.606 41.105 C 82.273 41.105 83.625 42.323 83.625 43.826 L 83.625 73.773 C 83.625 75.276 82.273 76.494 80.606 76.494 L 47.394 76.494 C 45.727 76.494 44.375 75.276 44.375 73.773 L 44.375 43.826 C 44.375 42.323 45.727 41.105 47.394 41.105 Z " fill="rgb(104,104,104)"/><linearGradient id="_lgradient_56" x1="0.5" y1="1" x2="0.5000000000000001" y2="0" gradientTransform="matrix(39.25,0,0,35.389,44.375,40.872)" gradientUnits="userSpaceOnUse"><stop offset="0.8333333333333334%" stop-opacity="1" style="stop-color:rgb(53,57,54)"/><stop offset="100%" stop-opacity="1" style="stop-color:rgb(8,8,8)"/></linearGradient><path d=" M 47.394 40.872 L 80.606 40.872 C 82.273 40.872 83.625 42.09 83.625 43.593 L 83.625 73.54 C 83.625 75.043 82.273 76.261 80.606 76.261 L 47.394 76.261 C 45.727 76.261 44.375 75.043 44.375 73.54 L 44.375 43.593 C 44.375 42.09 45.727 40.872 47.394 40.872 Z " fill="url(#_lgradient_56)"/></g><radialGradient id="_rgradient_0" fx="0.5" fy="0.5" cx="0.5" cy="0.5" r="0.5"><stop offset="0%" stop-opacity="1" style="stop-color:rgb(81,184,106)"/><stop offset="14.166666666666666%" stop-opacity="1" style="stop-color:rgb(83,187,108)"/><stop offset="28.749999999999996%" stop-opacity="1" style="stop-color:rgb(83,188,108)"/><stop offset="73.33333333333333%" stop-opacity="1" style="stop-color:rgb(76,183,101)"/><stop offset="100%" stop-opacity="1" style="stop-color:rgb(36,159,65)"/></radialGradient><path d=" M 52.18 38.805 L 52.18 32.555 L 50.852 30.539 M 52.18 80.852 L 52.18 87.102 L 50.852 89.117 M 42.602 47.354 L 36.352 47.354 L 34.336 46.026 M 85.932 47.354 L 92.182 47.354 L 94.198 46.026 M 75.82 38.805 L 75.82 32.555 L 77.148 30.539 M 75.82 80.852 L 75.82 87.102 L 77.148 89.117 M 42.602 70.994 L 36.352 70.994 L 34.336 72.322 M 85.932 70.994 L 92.182 70.994 L 94.198 72.322 M 63.836 38.805 L 63.836 30.539 M 63.836 80.852 L 63.836 89.117 M 42.602 59.01 L 34.336 59.01 M 85.932 59.01 L 94.198 59.01 M 58.176 38.805 L 58.176 25.852 M 58.176 80.852 L 58.176 93.805 M 42.602 53.35 L 29.648 53.35 M 85.932 53.35 L 98.885 53.35 M 69.832 38.805 L 69.832 25.852 M 69.832 80.852 L 69.832 93.805 M 42.602 65.006 L 29.648 65.006 M 85.932 65.006 L 98.885 65.006" fill-rule="evenodd" fill="none" vector-effect="non-scaling-stroke" stroke-width="2" stroke="url(#_rgradient_0)" stroke-linejoin="miter" stroke-linecap="square" stroke-miterlimit="3"/></g></svg>