<?xml version="1.0" encoding="UTF-8" standalone="no"?><!-- Generator: Gravit.io --><svg xmlns="http://www.w3.org/2000/svg" xmlns:xlink="http://www.w3.org/1999/xlink" style="isolation:isolate" viewBox="699 445 600.1 136.7" width="600.1pt" height="136.7pt"><defs><clipPath id="_clipPath_tGbdfK9Wcs22SwQFwcTXGh0NHpyVyclP"><rect x="699" y="445" width="600.1" height="136.7"/></clipPath></defs><g clip-path="url(#_clipPath_tGbdfK9Wcs22SwQFwcTXGh0NHpyVyclP)"><g><path d=" M 891.3 477.2 L 890.9 487.7 C 890.3 487.6 881.7 487.4 876.3 487.4 C 875.4 498.6 874.8 515.6 874.7 524.5 L 859.5 524.5 C 860.6 513.2 861.4 501.7 861.6 487.4 C 856.7 487.4 851.8 487.6 846.9 487.7 L 847.3 477.2 C 847.2 477.2 891.3 477.2 891.3 477.2 Z " fill="rgb(35,120,184)"/><path d=" M 894.9 502 C 895.3 498.9 897.4 495.6 901.3 495.6 C 904.8 495.6 906.5 497.8 906.5 502 L 894.9 502 Z  M 919.3 508.6 C 919.7 506.8 919.8 505 919.8 503.2 C 919.8 493.2 913.3 487.6 901.5 487.6 C 882.3 487.6 880.8 503.8 880.8 507.7 C 880.8 521.9 890.8 525.4 902.3 525.4 C 906.5 525.4 910.7 524.9 914.9 524 L 916.6 513.9 C 912.6 515.1 908.2 516.3 904 516.3 C 899.2 516.3 894.5 514.3 894.5 508.6 L 919.3 508.6 L 919.3 508.6 Z " fill="rgb(35,120,184)"/><path d=" M 953 499.6 C 950 498.6 946.9 497.9 943.8 497.9 C 938.2 497.9 934.7 501.1 934.7 506.8 C 934.7 512.2 937.6 515 943 515 C 946 515 949.1 514.3 952 513.3 L 950.3 524.1 C 946.8 525 943.2 525.4 939.6 525.4 C 927.8 525.4 921.1 519 921.1 507.1 C 921.1 503.3 922 487.6 940.2 487.6 C 944.9 487.6 948.7 488 952.4 489 L 953 499.6 Z " fill="rgb(35,120,184)"/><path d=" M 971.3 476.3 C 971 479 970.2 488.4 970 493.3 L 970.2 493.4 C 973.4 488.7 977.1 487.5 984 487.5 C 991.1 487.5 997.2 490.2 997.2 499 C 997.2 501 996.2 515.4 996.2 524.4 L 982 524.4 C 982.4 518.1 983.1 511.8 983.1 505.6 C 983.1 502.1 982 498.8 977.8 498.8 C 974.1 498.8 971.7 501.3 970.7 504.7 C 969.5 508.5 969.2 516.7 968.9 524.4 L 954.5 524.4 C 955.5 515.4 957 493.7 957 476.2 L 971.3 476.3 L 971.3 476.3 Z " fill="rgb(35,120,184)"/><path d=" M 1016.4 486.4 C 1015.6 499 1015.3 511.7 1015.1 524.5 L 1000.2 524.5 C 1001.9 509.6 1002.4 495.6 1002.5 476.3 L 1028 476.3 C 1031.5 476.3 1045.3 476.7 1045.3 489.1 C 1045.3 496.7 1040.8 500.8 1034 503.2 C 1036.8 510.4 1040.4 517.3 1043.4 524.5 L 1027.4 524.5 C 1024.8 515.3 1021.4 506.5 1018.1 497.5 C 1019.3 497.7 1020.5 497.9 1021.6 497.9 C 1025.8 497.9 1030.8 496.3 1030.8 491.3 C 1030.8 486.5 1026 486.5 1022.6 486.5 L 1016.4 486.5 L 1016.4 486.4 Z " fill="rgb(35,120,184)"/><path d=" M 1056.8 502 C 1057.2 498.9 1059.3 495.6 1063.2 495.6 C 1066.7 495.6 1068.4 497.8 1068.4 502 L 1056.8 502 Z  M 1081.2 508.6 C 1081.6 506.8 1081.7 505 1081.7 503.2 C 1081.7 493.2 1075.2 487.6 1063.4 487.6 C 1044.2 487.6 1042.7 503.8 1042.7 507.7 C 1042.7 521.9 1052.7 525.4 1064.2 525.4 C 1068.4 525.4 1072.6 524.9 1076.8 524 L 1078.5 513.9 C 1074.5 515.1 1070.1 516.3 1065.9 516.3 C 1061.1 516.3 1056.4 514.3 1056.4 508.6 L 1081.2 508.6 L 1081.2 508.6 Z " fill="rgb(35,120,184)"/><path d=" M 1097.5 498.2 C 1099.2 497.8 1101 497.4 1102.8 497.4 C 1108.1 497.4 1110.8 500.7 1110.8 505.9 C 1110.8 510.2 1108.9 515.5 1103.7 515.5 C 1098.8 515.5 1096.8 510.7 1096.8 506.5 C 1096.8 503.7 1097.1 500.9 1097.5 498.2 Z  M 1095.6 540.9 C 1095.6 534.3 1096 527.5 1096.2 520.8 C 1099.9 523.8 1104.3 525.3 1109 525.3 C 1119.4 525.3 1124.5 515.7 1124.5 506.4 C 1124.5 496.6 1119.6 487.6 1104.9 487.6 C 1096.8 487.6 1090.4 488.4 1083.9 489.5 C 1083.9 506.7 1082.9 523.9 1081.4 541 L 1095.6 540.9 L 1095.6 540.9 Z " fill="rgb(35,120,184)"/><path d=" M 1152.6 519.8 L 1152.5 519.6 C 1149.5 523.9 1145.1 525.2 1139.9 525.2 C 1129.9 525.2 1127 520.3 1127 514.2 C 1127 511.9 1128.3 495.4 1128.3 488.3 L 1142.4 488.3 C 1142.1 494.7 1141.1 501.1 1141.1 507.5 C 1141.1 511 1142.3 513.9 1146.2 513.9 C 1149.9 513.9 1151.9 511 1152.6 507.8 C 1153.5 503.8 1153.7 495.5 1153.9 488.3 L 1167.9 488.3 C 1166.7 500.3 1166.2 512.3 1165.9 524.3 L 1152.6 524.3 L 1152.6 519.8 Z " fill="rgb(35,120,184)"/><path d=" M 1184.6 498.2 C 1186.3 497.8 1188.1 497.4 1189.9 497.4 C 1195.2 497.4 1197.9 500.7 1197.9 505.9 C 1197.9 510.2 1196 515.5 1190.8 515.5 C 1185.9 515.5 1183.9 510.7 1183.9 506.5 C 1183.8 503.7 1184.1 500.9 1184.6 498.2 Z  M 1182.8 519.9 L 1182.9 519.9 C 1185.7 523.6 1189.4 525.3 1194.2 525.3 C 1205.8 525.3 1211.5 515.6 1211.5 504.9 C 1211.5 493.6 1204.9 487.5 1193.8 487.5 C 1192.3 487.5 1190.9 487.6 1189.5 487.7 C 1188.1 487.8 1186.7 488.1 1185.2 488.4 C 1185.5 483.3 1185.8 479.7 1186.3 476.3 L 1171.9 476.3 C 1171.7 492.4 1170.6 508.4 1169.4 524.5 L 1182.8 524.5 L 1182.8 519.9 Z " fill="rgb(35,120,184)"/><path d=" M 1229.6 476.3 C 1228.8 484.4 1227.2 511.8 1227 524.5 L 1212.6 524.5 C 1214 508.5 1214.8 492.4 1215.2 476.3 L 1229.6 476.3 Z " fill="rgb(35,120,184)"/><path d=" M 1230.5 524.4 C 1231.7 513.5 1232.2 502.7 1232.4 488.4 L 1246.8 488.4 C 1245.6 500.4 1245.5 512.4 1245.5 524.4 L 1230.5 524.4 Z  M 1232.8 483.9 L 1232.9 475.4 L 1246.9 475.4 L 1246.5 483.9 L 1232.8 483.9 Z " fill="rgb(35,120,184)"/><path d=" M 1280.6 499.6 C 1277.6 498.6 1274.5 497.9 1271.4 497.9 C 1265.8 497.9 1262.3 501.1 1262.3 506.8 C 1262.3 512.2 1265.2 515 1270.6 515 C 1273.6 515 1276.7 514.3 1279.6 513.3 L 1277.9 524.1 C 1274.4 525 1270.7 525.4 1267.1 525.4 C 1255.3 525.4 1248.6 519 1248.6 507.1 C 1248.6 503.3 1249.5 487.6 1267.7 487.6 C 1272.4 487.6 1276.2 488 1279.9 489 L 1280.6 499.6 Z " fill="rgb(35,120,184)"/><path d=" M 1297.1 522.6 C 1295.9 523.8 1294.4 524.4 1292.7 524.4 C 1290.9 524.4 1289.4 523.8 1288.2 522.6 C 1287 521.4 1286.4 519.9 1286.4 518.1 C 1286.4 516.3 1287.1 514.7 1288.4 513.5 C 1289.6 512.4 1291.1 511.8 1292.7 511.8 C 1294.4 511.8 1295.9 512.4 1297.2 513.6 C 1298.4 514.8 1299.1 516.3 1299.1 518.1 C 1299 519.9 1298.4 521.4 1297.1 522.6 Z  M 1289 514.4 C 1288 515.4 1287.5 516.6 1287.5 518.1 C 1287.5 519.6 1288 520.8 1289 521.8 C 1290 522.8 1291.2 523.3 1292.7 523.3 C 1294.1 523.3 1295.4 522.8 1296.4 521.8 C 1297.4 520.8 1297.9 519.5 1297.9 518.1 C 1297.9 516.7 1297.4 515.5 1296.4 514.4 C 1295.4 513.3 1294.2 512.8 1292.7 512.8 C 1291.2 512.9 1290 513.4 1289 514.4 Z  M 1289.9 521.6 L 1289.9 514.6 C 1290.3 514.6 1291 514.6 1291.9 514.6 C 1292.8 514.6 1293.2 514.6 1293.3 514.6 C 1293.8 514.6 1294.3 514.8 1294.7 515 C 1295.3 515.3 1295.6 515.9 1295.6 516.7 C 1295.6 517.3 1295.4 517.7 1295.1 518 C 1294.8 518.3 1294.4 518.4 1293.9 518.5 C 1294.3 518.6 1294.7 518.7 1294.9 518.9 C 1295.3 519.2 1295.5 519.8 1295.5 520.5 L 1295.5 521.1 C 1295.5 521.2 1295.5 521.2 1295.5 521.3 C 1295.5 521.4 1295.5 521.4 1295.6 521.5 L 1295.7 521.7 L 1294 521.7 C 1293.9 521.5 1293.9 521.2 1293.9 520.7 C 1293.9 520.3 1293.8 520 1293.8 519.8 C 1293.7 519.6 1293.5 519.4 1293.3 519.3 C 1293.2 519.2 1293 519.2 1292.7 519.2 L 1292.3 519.2 L 1291.9 519.2 L 1291.9 521.7 L 1289.9 521.6 L 1289.9 521.6 Z  M 1293.2 516 C 1292.9 515.9 1292.6 515.8 1292.1 515.8 L 1291.7 515.8 L 1291.7 517.9 L 1292.4 517.9 C 1292.8 517.9 1293.2 517.8 1293.4 517.6 C 1293.6 517.4 1293.8 517.1 1293.8 516.8 C 1293.8 516.4 1293.6 516.1 1293.2 516 Z " fill="rgb(35,120,184)"/></g><g><path d=" M 701.3 503.4 L 699 514.9 C 699 514.9 712.9 522.9 722.3 543.6 C 730.6 561.8 732.6 581.7 732.6 581.7 L 736.1 572.2 C 736.1 572.2 734.2 552.9 725.7 534.1 C 715 510.4 701.3 503.4 701.3 503.4 Z " fill="rgb(35,120,184)"/><path d=" M 705.3 481.8 L 702.8 495.1 C 702.8 495.1 718 505.3 726.2 523.6 C 736.1 545.6 737.7 567.1 737.7 567.1 L 741.6 556.1 C 741.6 556.1 740.5 538 732.1 517.4 C 721.3 490.6 705.3 481.8 705.3 481.8 Z " fill="rgb(35,120,184)"/><path d=" M 723.6 491.9 C 723.6 491.9 730.2 472.3 746.5 472.6 C 762.4 472.9 768.9 486.6 784 485.3 C 805.7 483.4 820.6 455.3 820.6 455.3 L 818.4 445 C 818.4 445 805.1 469.5 783.7 470.4 C 769.6 471 764.7 459.4 749.7 458.4 C 729.4 457.1 722 480.1 722 480.1 L 723.6 491.9 Z " fill="rgb(35,120,184)"/><path d=" M 743.4 541.8 C 743.4 541.8 752 524.5 767.6 524.7 C 781.8 524.9 789.1 538.6 804.3 537.5 C 822 536.2 832.8 511.4 832.8 511.4 L 830.8 502.2 C 830.8 502.2 821.5 523.4 803.7 524.1 C 789.6 524.6 785.2 512.9 770.2 511.8 C 753.1 510.6 744 528.2 744 528.2 L 743.4 541.8 Z " fill="rgb(35,120,184)"/></g></g></svg>