<?xml version="1.0" encoding="UTF-8" standalone="no"?><!-- Generator: Gravit.io --><svg xmlns="http://www.w3.org/2000/svg" xmlns:xlink="http://www.w3.org/1999/xlink" style="isolation:isolate" viewBox="0 0 340 63" width="340pt" height="63pt"><defs><clipPath id="_clipPath_bRTDpkUSJwNYrbwXYMIgEqD5c4axlsw8"><rect width="340" height="63"/></clipPath></defs><g clip-path="url(#_clipPath_bRTDpkUSJwNYrbwXYMIgEqD5c4axlsw8)"><path d=" M 139.6 34.3 C 137.5 35.9 135.3 37.4 133 38.9 C 130.8 40.3 128.8 41.4 127 42 C 125.2 42.6 124.1 42.5 123.4 41.7 C 122.8 40.7 122.8 39.1 123.3 37.1 C 123.8 35.1 124.6 33 125.5 30.8 C 126.5 28.8 127.3 26.8 128 24.8 C 128.7 22.8 129 20.7 129 18.6 C 129 16.5 128.3 14.4 127.1 12.4 C 126 10.7 124.4 9.4 122.2 8.6 C 120 7.8 117.6 7.3 114.9 7.4 C 112.2 7.4 109.6 7.9 107 8.9 C 105 9.7 103.1 10.8 101.4 12.4 C 99.7 14 98.4 16 97.4 18.3 C 97.1 19.2 96.8 20.3 96.7 21.7 C 96.6 23.1 96.5 24.3 96.5 25.5 C 96.5 26.7 96.5 27.2 96.5 27.3 C 95.4 28.1 94.2 29 92.8 30.1 C 91.4 31.2 90 32.5 88.7 34 C 87.3 35.7 86.1 37.3 85.1 39 C 84.1 40.6 83.5 41.9 83.3 42.8 C 83.2 43.2 83.3 44.1 83.6 45.8 C 83.9 47.4 84.8 49.3 86.1 51.4 C 87.4 53.5 89.7 55.5 92.7 57.3 C 92.7 57.3 92.8 57.3 92.9 57.1 C 93 57 93.1 56.9 93.1 56.9 C 93 56.9 92.7 56.5 92 55.7 C 91.3 54.9 90.7 53.9 90.1 52.7 C 89.5 51.5 89.2 50.2 89.3 48.9 C 89.4 47.1 90.6 45.4 92.8 43.9 C 95 42.4 98.8 41 104.2 39.9 C 105.7 39.5 107 38.9 108.2 38.1 C 109.3 37.3 109.9 36.9 110 36.8 C 109.6 41.1 110.3 45 112.3 48.5 C 113.9 51.5 116.1 54.1 118.7 56.5 L 143.6 31.6 L 143.6 31.5 C 142.5 32.1 141.1 33.1 139.6 34.3 Z  M 107 20.5 C 106.6 21.5 106.2 22.6 105.8 23.6 C 105.4 24.6 105.2 25.2 105.2 25.4 C 105.3 25.5 105.5 25.8 105.9 26.3 C 106.3 26.7 106.5 27 106.6 27.2 C 106.6 27.4 106.5 28.1 106.2 29 C 105.9 29.9 105.3 30.6 104.3 31.1 C 103.1 31.6 102 31.6 100.9 31.4 C 99.8 31.1 99 30.8 98.4 30.4 C 97.8 30 97.4 29.7 97.4 29.7 L 107.6 18.6 L 107.6 19 C 107.6 18.9 107.4 19.4 107 20.5 Z " fill="rgb(255,0,0)"/><path d=" M 335 16.1 C 338 16.1 340.3 18.4 340.3 21.3 C 340.3 24.2 338 26.5 335 26.5 C 332 26.5 329.6 24.2 329.6 21.3 C 329.6 18.4 332 16.1 335 16.1 Z  M 334.9 17.1 C 332.6 17.1 330.9 19 330.9 21.2 C 330.9 23.5 332.6 25.3 335 25.3 C 337.3 25.3 339 23.5 339 21.2 C 338.9 19 337.3 17.1 334.9 17.1 Z  M 334.1 23.9 L 332.9 23.9 L 332.9 18.8 C 333.4 18.7 334 18.6 334.9 18.6 C 335.9 18.6 336.3 18.8 336.7 19 C 337 19.2 337.2 19.6 337.2 20.1 C 337.2 20.7 336.8 21.1 336.1 21.3 L 336.1 21.4 C 336.6 21.6 336.9 22 337.1 22.7 C 337.3 23.5 337.3 23.8 337.5 24 L 336.2 24 C 336 23.8 336 23.4 335.8 22.8 C 335.7 22.2 335.4 22 334.7 22 L 334.1 22 L 334.1 23.9 Z  M 334.1 21 L 334.7 21 C 335.4 21 335.9 20.8 335.9 20.2 C 335.9 19.7 335.5 19.4 334.8 19.4 C 334.5 19.4 334.3 19.4 334.1 19.5 L 334.1 21 Z " fill="rgb(255,0,0)"/><path d=" M 0.3 13.3 L 29.4 13.3 L 29.4 22.1 L 21.4 22.1 L 21.4 45.9 L 8.4 45.9 L 8.4 22.1 L 0.3 22.1 L 0.3 13.3 Z " fill="rgb(255,0,0)"/><path d=" M 54.8 45.9 L 43.8 45.9 L 43.8 32.1 C 43.8 31.2 43.6 30.5 43.3 30.1 C 43 29.7 42.5 29.5 41.8 29.5 C 41.1 29.5 40.7 29.7 40.3 30.1 C 39.9 30.5 39.8 31.3 39.8 32.5 L 39.8 46 L 28.7 46 L 28.7 13.3 L 39.8 13.3 L 39.8 26.3 C 40.6 25 41.5 24.1 42.6 23.5 C 43.7 22.9 45.1 22.6 46.8 22.6 C 48 22.6 49 22.7 49.9 23 C 50.8 23.3 51.5 23.6 52.1 24.1 C 52.7 24.6 53.2 25.1 53.6 25.7 C 54 26.3 54.3 27.1 54.5 28.2 C 54.7 29.1 54.8 30.4 54.8 32.2 L 54.8 45.9 Z " fill="rgb(255,0,0)"/><path d=" M 82.1 36.5 L 66.4 36.5 L 66.4 37.3 C 66.4 38.8 66.6 39.8 67.1 40.3 C 67.6 40.8 68.3 41.1 69.4 41.1 C 70.2 41.1 70.9 40.9 71.4 40.4 C 71.9 39.9 72.2 39.3 72.3 38.4 L 81.9 38.4 C 81.9 39.4 81.5 40.5 80.8 41.7 C 80.1 42.9 79.2 43.8 78.2 44.5 C 77.2 45.2 76 45.7 74.5 46.1 C 73 46.5 71.2 46.7 69.1 46.7 C 67.2 46.7 65.6 46.5 64.2 46.2 C 62.8 45.9 61.5 45.3 60.5 44.5 C 59.4 43.7 58.5 42.7 57.7 41.5 C 57.1 40.6 56.7 39.6 56.4 38.4 C 56.1 37.2 55.9 35.9 55.9 34.6 C 55.9 32.3 56.2 30.4 56.9 28.8 C 57.4 27.6 58.3 26.5 59.4 25.5 C 60.6 24.5 61.9 23.7 63.2 23.3 C 65 22.7 67.1 22.4 69.4 22.4 C 71.7 22.4 73.7 22.7 75.2 23.3 C 76.8 23.9 78.1 24.8 79.3 26.1 C 80.2 27.1 80.9 28.3 81.4 29.7 C 81.9 31.1 82.1 32.9 82.1 34.8 L 82.1 36.5 Z  M 72.2 31.7 C 72.2 30.4 72 29.6 71.8 29.1 C 71.3 28.3 70.5 28 69.4 28 C 68.3 28 67.5 28.4 67 29.1 C 66.6 29.6 66.4 30.5 66.4 31.7 L 72.2 31.7 Z " fill="rgb(255,0,0)"/><path d=" M 141.2 13.2 L 160.7 13.2 C 164.8 13.2 167.7 13.9 169.3 15.4 C 171 16.8 171.8 18.9 171.8 21.5 C 171.8 22.6 171.6 23.6 171.3 24.5 C 171 25.4 170.6 26.2 170 26.8 C 169.4 27.4 168.8 27.9 168 28.3 C 167.4 28.6 166.5 29 165.3 29.4 C 166.6 29.6 167.6 29.9 168.3 30.2 C 169 30.5 169.5 31 169.9 31.5 C 170.3 32 170.6 32.7 170.8 33.7 C 171 34.6 171.3 36.4 171.6 39 C 172 42.2 172.5 44.5 173 46.1 L 160.3 46.1 C 160.1 45.6 160 45.1 159.9 44.6 C 159.8 44.1 159.7 43.3 159.5 42 L 158.9 37.6 C 158.7 36.5 158.5 35.8 158.3 35.4 C 158.1 35 157.8 34.7 157.4 34.6 C 157 34.5 156.3 34.4 155.4 34.4 L 154 34.4 L 154 46 L 141.2 46 L 141.2 13.2 Z  M 153.9 26.9 L 154.9 26.9 C 155.8 26.9 156.6 26.8 157.3 26.6 C 158 26.4 158.5 26 158.9 25.5 C 159.3 25 159.4 24.3 159.4 23.5 C 159.4 22.5 159.1 21.8 158.5 21.3 C 157.9 20.8 156.7 20.6 154.9 20.6 L 153.9 20.6 L 153.9 26.9 Z " fill="rgb(255,0,0)"/><path d=" M 198.5 36.5 L 182.8 36.5 L 182.8 37.3 C 182.8 38.8 183 39.8 183.5 40.3 C 184 40.8 184.7 41.1 185.8 41.1 C 186.6 41.1 187.3 40.9 187.8 40.4 C 188.3 39.9 188.6 39.3 188.7 38.4 L 198.3 38.4 C 198.3 39.4 197.9 40.5 197.2 41.7 C 196.5 42.9 195.6 43.8 194.6 44.5 C 193.6 45.2 192.4 45.7 190.9 46.1 C 189.4 46.5 187.6 46.7 185.5 46.7 C 183.6 46.7 182 46.5 180.6 46.2 C 179.2 45.9 178 45.3 176.9 44.5 C 175.8 43.7 174.9 42.7 174.1 41.5 C 173.5 40.6 173.1 39.6 172.8 38.4 C 172.5 37.2 172.3 35.9 172.3 34.6 C 172.3 32.3 172.7 30.4 173.3 28.8 C 173.8 27.6 174.7 26.5 175.8 25.5 C 177 24.5 178.2 23.7 179.6 23.3 C 181.4 22.7 183.5 22.4 185.8 22.4 C 188.1 22.4 190.1 22.7 191.6 23.3 C 193.2 23.9 194.5 24.8 195.7 26.1 C 196.6 27.1 197.3 28.3 197.8 29.7 C 198.3 31.1 198.5 32.9 198.5 34.8 C 198.6 35.4 198.5 36 198.5 36.5 Z  M 188.7 31.7 C 188.7 30.4 188.6 29.6 188.3 29.1 C 187.8 28.3 187 28 185.9 28 C 184.8 28 184 28.4 183.5 29.1 C 183.1 29.6 182.9 30.5 182.9 31.7 L 188.7 31.7 Z " fill="rgb(255,0,0)"/><path d=" M 215.8 25.7 L 216.2 23.3 L 226.5 23.3 L 226.5 43 C 226.5 45.1 226.4 46.6 226.2 47.5 C 225.9 48.8 225.4 50 224.8 50.9 C 224.1 51.8 223.2 52.6 222.1 53.3 C 221 54 219.5 54.4 217.9 54.8 C 216.3 55.2 214.5 55.3 212.6 55.3 C 208.2 55.3 205.1 54.6 203.3 53.2 C 201.5 51.8 200.5 49.9 200.4 47.5 L 211 47.5 C 211 48.1 211.2 48.5 211.6 48.8 C 212 49.1 212.5 49.3 213.3 49.3 C 214.4 49.3 215.2 48.9 215.6 48.2 C 215.9 47.6 216.1 46.6 216.1 45 L 216.1 42.7 C 215.5 43.6 214.6 44.3 213.4 44.9 C 212.2 45.4 210.8 45.7 209.2 45.7 C 205.8 45.7 203.3 44.5 201.4 42.2 C 199.9 40.3 199.2 37.9 199.2 34.8 C 199.2 30.9 200.1 28 202 25.9 C 203.9 23.8 206.2 22.8 209.1 22.8 C 210.8 22.8 212.2 23.1 213.2 23.6 C 214.2 24 215.1 24.8 215.8 25.7 Z  M 212.9 39.4 C 213.6 39.4 214.1 39.2 214.5 38.9 C 214.9 38.6 215.2 38.1 215.3 37.5 C 215.4 36.9 215.5 35.7 215.5 34.1 C 215.5 32.6 215.4 31.6 215.3 31 C 215.1 30.4 214.9 30 214.5 29.6 C 214.1 29.3 213.7 29.2 213.1 29.2 C 212.5 29.2 212 29.3 211.6 29.7 C 211.2 30.1 210.9 30.4 210.7 31 C 210.5 31.7 210.4 33.1 210.4 35 C 210.4 36.3 210.5 37.3 210.6 37.8 C 210.7 38.3 211 38.8 211.4 39.1 C 211.9 39.3 212.3 39.4 212.9 39.4 L 212.9 39.4 Z " fill="rgb(255,0,0)"/><path d=" M 228.2 20.3 L 228.2 13.4 L 239 13.4 L 239 20.3 L 228.2 20.3 Z  M 228.2 23.3 L 239 23.3 L 239 45.9 L 228.2 45.9 L 228.2 23.3 Z " fill="rgb(255,0,0)"/><path d=" M 240 38.6 L 250 38.6 C 250 39.7 250.2 40.5 250.6 41 C 251 41.5 251.6 41.7 252.4 41.7 C 253.2 41.7 253.8 41.5 254.2 41.2 C 254.6 40.9 254.8 40.4 254.8 39.7 C 254.8 39.1 254.6 38.7 254.3 38.4 C 253.9 38.1 253 37.8 251.5 37.6 L 247.5 36.9 C 245.8 36.6 244.4 36.2 243.5 35.7 C 242.9 35.4 242.4 35 241.9 34.4 C 241.4 33.8 241 33.3 240.8 32.6 C 240.6 31.9 240.4 31.2 240.4 30.3 C 240.4 28.4 240.9 26.9 241.9 25.8 C 242.9 24.7 244.2 23.8 245.9 23.2 C 247.5 22.6 249.7 22.4 252.3 22.4 C 254.2 22.4 255.9 22.6 257.6 22.9 C 259.2 23.2 260.6 23.8 261.6 24.6 C 262.6 25.4 263.4 26.3 263.8 27.4 C 264 28 264.2 28.9 264.2 30.1 L 254.8 30.1 C 254.8 29.1 254.6 28.5 254.3 28.1 C 253.9 27.7 253.4 27.5 252.6 27.5 C 251.8 27.5 251.2 27.6 250.8 28 C 250.4 28.4 250.3 28.7 250.3 29.3 C 250.3 29.7 250.4 30 250.5 30.3 C 250.6 30.6 250.9 30.7 251.2 30.8 C 251.5 30.9 252.2 31.1 253.2 31.2 L 256.9 31.8 C 259.1 32.1 260.8 32.6 261.8 33.2 C 262.9 33.7 263.7 34.5 264.2 35.5 C 264.7 36.5 265 37.6 265 38.9 C 265 40.5 264.6 42 263.8 43.1 C 263 44.2 261.7 45.2 260 45.9 C 258.3 46.6 255.8 47 252.5 47 C 250.7 47 249.2 46.9 247.8 46.7 C 246.4 46.5 245.2 46.1 244.3 45.7 C 243.4 45.3 242.6 44.7 242 44 C 241.4 43.3 240.9 42.6 240.7 41.8 C 240.2 40.8 240 39.8 240 38.6 L 240 38.6 Z " fill="rgb(255,0,0)"/><path d=" M 267.4 19.5 L 278.2 15.7 L 278.2 23.2 L 283.3 23.2 L 283.3 30 L 278.2 30 L 278.2 36.7 C 278.2 37.8 278.3 38.5 278.7 38.8 C 279 39.2 279.5 39.3 280.1 39.3 C 280.9 39.3 281.9 39.2 283 38.9 L 283 45.6 C 279.9 46.2 277.5 46.5 275.8 46.5 C 274.3 46.5 273 46.3 271.8 45.9 C 270.6 45.5 269.7 45 269 44.2 C 268.5 43.6 268.1 42.9 267.8 42 C 267.6 41.3 267.5 40.4 267.5 39.2 L 267.5 30 L 264.5 30 L 264.5 23.3 L 267.5 23.3 L 267.4 19.5 Z " fill="rgb(255,0,0)"/><path d=" M 309.2 36.5 L 293.5 36.5 L 293.5 37.3 C 293.5 38.8 293.7 39.8 294.2 40.3 C 294.7 40.8 295.4 41.1 296.5 41.1 C 297.3 41.1 298 40.9 298.5 40.4 C 299 39.9 299.3 39.3 299.4 38.4 L 308.9 38.4 C 308.9 39.4 308.5 40.5 307.8 41.7 C 307.1 42.9 306.2 43.8 305.2 44.5 C 304.2 45.2 303 45.7 301.5 46.1 C 300 46.5 298.2 46.7 296.1 46.7 C 294.2 46.7 292.6 46.5 291.2 46.2 C 289.8 45.9 288.6 45.3 287.5 44.5 C 286.4 43.7 285.5 42.7 284.7 41.5 C 284.1 40.6 283.7 39.6 283.4 38.4 C 283.1 37.2 282.9 35.9 282.9 34.6 C 282.9 32.3 283.3 30.4 283.9 28.8 C 284.4 27.6 285.3 26.5 286.4 25.5 C 287.6 24.5 288.9 23.7 290.2 23.3 C 292 22.7 294.1 22.4 296.4 22.4 C 298.7 22.4 300.7 22.7 302.2 23.3 C 303.8 23.9 305.1 24.8 306.3 26.1 C 307.2 27.1 307.9 28.3 308.3 29.7 C 308.7 31.1 309 32.9 309 34.8 C 309.3 35.4 309.2 36 309.2 36.5 Z  M 299.4 31.7 C 299.4 30.4 299.3 29.6 299 29.1 C 298.5 28.3 297.7 28 296.6 28 C 295.5 28 294.7 28.4 294.2 29.1 C 293.8 29.6 293.7 30.5 293.7 31.7 L 299.4 31.7 Z " fill="rgb(255,0,0)"/><path d=" M 310.4 23 L 320.9 23 L 321.2 25.7 C 322.2 24.6 323.1 23.9 323.8 23.5 C 324.6 23.1 325.3 22.9 326.2 22.9 C 327 22.9 327.8 23.1 328.8 23.4 L 328.8 32.1 C 327.4 31.8 326.5 31.6 326 31.6 C 325.5 31.6 325.1 31.5 324.6 31.5 C 323.6 31.5 322.8 31.8 322.3 32.3 C 321.8 32.8 321.5 33.7 321.5 34.9 L 321.5 46 L 310.4 46 L 310.4 23 Z " fill="rgb(255,0,0)"/></g></svg>