<?xml version="1.0" encoding="UTF-8" standalone="no"?><!-- Generator: Gravit.io --><svg xmlns="http://www.w3.org/2000/svg" xmlns:xlink="http://www.w3.org/1999/xlink" style="isolation:isolate" viewBox="0 0 512 512" width="512pt" height="512pt"><defs><clipPath id="_clipPath_4so9MWQoDG9fS0T5enHFFpazuxNVrXc5"><rect width="512" height="512"/></clipPath></defs><g clip-path="url(#_clipPath_4so9MWQoDG9fS0T5enHFFpazuxNVrXc5)"><clipPath id="_clipPath_KIlyl0fFPdVDsKsPkzs2MAL9QqkIZzUp"><rect x="0" y="0" width="512" height="512" transform="matrix(1,0,0,1,0,0)" fill="rgb(255,255,255)"/></clipPath><g clip-path="url(#_clipPath_KIlyl0fFPdVDsKsPkzs2MAL9QqkIZzUp)"><g><path d=" M 91.5 70.115 L 421.364 70.115 C 437.925 70.115 451.352 83.542 451.352 100.103 L 451.352 430.128 C 451.352 446.688 437.925 460.115 421.364 460.115 L 91.5 460.115 C 74.94 460.115 61.513 446.688 61.513 430.128 L 61.513 100.103 C 61.513 83.542 74.94 70.115 91.5 70.115 Z " fill="rgb(102,185,106)"/><path d=" M 187.467 180.115 L 325.398 180.115 C 332.323 180.115 337.937 185.73 337.937 192.654 L 337.937 330.653 C 337.937 337.578 332.323 343.192 325.398 343.192 L 187.467 343.192 C 180.542 343.192 174.928 337.578 174.928 330.653 L 174.928 192.654 C 174.928 185.73 180.542 180.115 187.467 180.115 Z " fill="rgb(84,110,122)"/><path d=" M 61.513 415.134 L 61.513 430.128 C 61.513 446.747 74.881 460.115 91.5 460.115 L 421.364 460.115 C 437.983 460.115 451.352 446.747 451.352 430.128 L 451.352 415.134 C 451.352 431.753 437.983 445.121 421.364 445.121 L 91.5 445.121 C 74.881 445.121 61.513 431.753 61.513 415.134 Z " fill="rgb(78,142,81)"/><path d=" M 174.928 328.345 L 174.928 335.602 C 174.928 343.645 180.517 350.115 187.467 350.115 L 325.398 350.115 C 332.347 350.115 337.937 343.645 337.937 335.602 L 337.937 328.345 C 337.937 336.388 332.347 342.859 325.398 342.859 L 187.467 342.859 C 180.517 342.859 174.928 336.388 174.928 328.345 Z " fill="rgb(54,70,78)"/><g><path d=" M 131.594 48.885 L 147.252 48.885 C 148.038 48.885 148.675 50.287 148.675 52.017 L 148.675 86.485 C 148.675 88.214 148.038 89.616 147.252 89.616 L 131.594 89.616 C 130.808 89.616 130.17 88.214 130.17 86.485 L 130.17 52.017 C 130.17 50.287 130.808 48.885 131.594 48.885 Z " fill="rgb(214,212,223)"/><path d=" M 130.17 85.908 L 130.17 87.113 C 130.17 88.448 130.805 89.523 131.594 89.523 L 147.252 89.523 C 148.041 89.523 148.675 88.448 148.675 87.113 L 148.675 85.908 C 148.675 87.244 148.041 88.318 147.252 88.318 L 131.594 88.318 C 130.805 88.318 130.17 87.244 130.17 85.908 Z " fill="rgb(156,154,168)"/><path d=" M 190.099 48.885 L 205.756 48.885 C 206.543 48.885 207.18 50.287 207.18 52.017 L 207.18 86.485 C 207.18 88.214 206.543 89.616 205.756 89.616 L 190.099 89.616 C 189.312 89.616 188.675 88.214 188.675 86.485 L 188.675 52.017 C 188.675 50.287 189.312 48.885 190.099 48.885 Z " fill="rgb(214,212,223)"/><path d=" M 188.675 85.908 L 188.675 87.113 C 188.675 88.448 189.31 89.523 190.099 89.523 L 205.756 89.523 C 206.545 89.523 207.18 88.448 207.18 87.113 L 207.18 85.908 C 207.18 87.244 206.545 88.318 205.756 88.318 L 190.099 88.318 C 189.31 88.318 188.675 87.244 188.675 85.908 Z " fill="rgb(156,154,168)"/><path d=" M 248.603 48.885 L 264.261 48.885 C 265.047 48.885 265.685 50.287 265.685 52.017 L 265.685 86.485 C 265.685 88.214 265.047 89.616 264.261 89.616 L 248.603 89.616 C 247.817 89.616 247.18 88.214 247.18 86.485 L 247.18 52.017 C 247.18 50.287 247.817 48.885 248.603 48.885 Z " fill="rgb(214,212,223)"/><path d=" M 307.108 48.885 L 322.766 48.885 C 323.552 48.885 324.189 50.287 324.189 52.017 L 324.189 86.485 C 324.189 88.214 323.552 89.616 322.766 89.616 L 307.108 89.616 C 306.322 89.616 305.685 88.214 305.685 86.485 L 305.685 52.017 C 305.685 50.287 306.322 48.885 307.108 48.885 Z " fill="rgb(214,212,223)"/><path d=" M 247.18 85.908 L 247.18 87.113 C 247.18 88.448 247.814 89.523 248.603 89.523 L 264.261 89.523 C 265.05 89.523 265.685 88.448 265.685 87.113 L 265.685 85.908 C 265.685 87.244 265.05 88.318 264.261 88.318 L 248.603 88.318 C 247.814 88.318 247.18 87.244 247.18 85.908 Z " fill="rgb(156,154,168)"/><path d=" M 305.685 85.908 L 305.685 87.113 C 305.685 88.448 306.319 89.523 307.108 89.523 L 322.766 89.523 C 323.555 89.523 324.189 88.448 324.189 87.113 L 324.189 85.908 C 324.189 87.244 323.555 88.318 322.766 88.318 L 307.108 88.318 C 306.319 88.318 305.685 87.244 305.685 85.908 Z " fill="rgb(156,154,168)"/><path d=" M 365.613 48.885 L 381.271 48.885 C 382.057 48.885 382.694 50.287 382.694 52.017 L 382.694 86.485 C 382.694 88.214 382.057 89.616 381.271 89.616 L 365.613 89.616 C 364.827 89.616 364.189 88.214 364.189 86.485 L 364.189 52.017 C 364.189 50.287 364.827 48.885 365.613 48.885 Z " fill="rgb(214,212,223)"/><path d=" M 364.189 85.908 L 364.189 87.113 C 364.189 88.448 364.824 89.523 365.613 89.523 L 381.271 89.523 C 382.06 89.523 382.694 88.448 382.694 87.113 L 382.694 85.908 C 382.694 87.244 382.06 88.318 381.271 88.318 L 365.613 88.318 C 364.824 88.318 364.189 87.244 364.189 85.908 Z " fill="rgb(156,154,168)"/></g><g><path d=" M 131.594 422.384 L 147.252 422.384 C 148.038 422.384 148.675 423.786 148.675 425.515 L 148.675 459.983 C 148.675 461.713 148.038 463.115 147.252 463.115 L 131.594 463.115 C 130.808 463.115 130.17 461.713 130.17 459.983 L 130.17 425.515 C 130.17 423.786 130.808 422.384 131.594 422.384 Z " fill="rgb(214,212,223)"/><path d=" M 130.17 459.407 L 130.17 460.612 C 130.17 461.947 130.805 463.021 131.594 463.021 L 147.252 463.021 C 148.041 463.021 148.675 461.947 148.675 460.612 L 148.675 459.407 C 148.675 460.742 148.041 461.817 147.252 461.817 L 131.594 461.817 C 130.805 461.817 130.17 460.742 130.17 459.407 Z " fill="rgb(156,154,168)"/><path d=" M 190.099 422.384 L 205.756 422.384 C 206.543 422.384 207.18 423.786 207.18 425.515 L 207.18 459.983 C 207.18 461.713 206.543 463.115 205.756 463.115 L 190.099 463.115 C 189.312 463.115 188.675 461.713 188.675 459.983 L 188.675 425.515 C 188.675 423.786 189.312 422.384 190.099 422.384 Z " fill="rgb(214,212,223)"/><path d=" M 188.675 459.407 L 188.675 460.612 C 188.675 461.947 189.31 463.021 190.099 463.021 L 205.756 463.021 C 206.545 463.021 207.18 461.947 207.18 460.612 L 207.18 459.407 C 207.18 460.742 206.545 461.817 205.756 461.817 L 190.099 461.817 C 189.31 461.817 188.675 460.742 188.675 459.407 Z " fill="rgb(156,154,168)"/><path d=" M 248.603 422.384 L 264.261 422.384 C 265.047 422.384 265.685 423.786 265.685 425.515 L 265.685 459.983 C 265.685 461.713 265.047 463.115 264.261 463.115 L 248.603 463.115 C 247.817 463.115 247.18 461.713 247.18 459.983 L 247.18 425.515 C 247.18 423.786 247.817 422.384 248.603 422.384 Z " fill="rgb(214,212,223)"/><path d=" M 307.108 422.384 L 322.766 422.384 C 323.552 422.384 324.189 423.786 324.189 425.515 L 324.189 459.983 C 324.189 461.713 323.552 463.115 322.766 463.115 L 307.108 463.115 C 306.322 463.115 305.685 461.713 305.685 459.983 L 305.685 425.515 C 305.685 423.786 306.322 422.384 307.108 422.384 Z " fill="rgb(214,212,223)"/><path d=" M 247.18 459.407 L 247.18 460.612 C 247.18 461.947 247.814 463.021 248.603 463.021 L 264.261 463.021 C 265.05 463.021 265.685 461.947 265.685 460.612 L 265.685 459.407 C 265.685 460.742 265.05 461.817 264.261 461.817 L 248.603 461.817 C 247.814 461.817 247.18 460.742 247.18 459.407 Z " fill="rgb(156,154,168)"/><path d=" M 305.685 459.407 L 305.685 460.612 C 305.685 461.947 306.319 463.021 307.108 463.021 L 322.766 463.021 C 323.555 463.021 324.189 461.947 324.189 460.612 L 324.189 459.407 C 324.189 460.742 323.555 461.817 322.766 461.817 L 307.108 461.817 C 306.319 461.817 305.685 460.742 305.685 459.407 Z " fill="rgb(156,154,168)"/><path d=" M 365.613 422.384 L 381.271 422.384 C 382.057 422.384 382.694 423.786 382.694 425.515 L 382.694 459.983 C 382.694 461.713 382.057 463.115 381.271 463.115 L 365.613 463.115 C 364.827 463.115 364.189 461.713 364.189 459.983 L 364.189 425.515 C 364.189 423.786 364.827 422.384 365.613 422.384 Z " fill="rgb(214,212,223)"/><path d=" M 364.189 459.407 L 364.189 460.612 C 364.189 461.947 364.824 463.021 365.613 463.021 L 381.271 463.021 C 382.06 463.021 382.694 461.947 382.694 460.612 L 382.694 459.407 C 382.694 460.742 382.06 461.817 381.271 461.817 L 365.613 461.817 C 364.824 461.817 364.189 460.742 364.189 459.407 Z " fill="rgb(156,154,168)"/></g><g><path d=" M 430.121 380.216 L 430.121 364.558 C 430.121 363.772 431.524 363.134 433.253 363.134 L 467.721 363.134 C 469.451 363.134 470.853 363.772 470.853 364.558 L 470.853 380.216 C 470.853 381.002 469.451 381.639 467.721 381.639 L 433.253 381.639 C 431.524 381.639 430.121 381.002 430.121 380.216 Z " fill="rgb(156,154,168)"/><path d=" M 430.121 379.216 L 430.121 363.558 C 430.121 362.772 431.524 362.134 433.253 362.134 L 467.721 362.134 C 469.451 362.134 470.853 362.772 470.853 363.558 L 470.853 379.216 C 470.853 380.002 469.451 380.639 467.721 380.639 L 433.253 380.639 C 431.524 380.639 430.121 380.002 430.121 379.216 Z " fill="rgb(214,212,223)"/><path d=" M 430.121 321.711 L 430.121 306.053 C 430.121 305.267 431.524 304.63 433.253 304.63 L 467.721 304.63 C 469.451 304.63 470.853 305.267 470.853 306.053 L 470.853 321.711 C 470.853 322.497 469.451 323.134 467.721 323.134 L 433.253 323.134 C 431.524 323.134 430.121 322.497 430.121 321.711 Z " fill="rgb(156,154,168)"/><path d=" M 430.121 320.711 L 430.121 305.053 C 430.121 304.267 431.524 303.63 433.253 303.63 L 467.721 303.63 C 469.451 303.63 470.853 304.267 470.853 305.053 L 470.853 320.711 C 470.853 321.497 469.451 322.134 467.721 322.134 L 433.253 322.134 C 431.524 322.134 430.121 321.497 430.121 320.711 Z " fill="rgb(214,212,223)"/><path d=" M 430.121 263.206 L 430.121 247.548 C 430.121 246.762 431.524 246.125 433.253 246.125 L 467.721 246.125 C 469.451 246.125 470.853 246.762 470.853 247.548 L 470.853 263.206 C 470.853 263.992 469.451 264.63 467.721 264.63 L 433.253 264.63 C 431.524 264.63 430.121 263.992 430.121 263.206 Z " fill="rgb(156,154,168)"/><path d=" M 430.121 262.206 L 430.121 246.548 C 430.121 245.762 431.524 245.125 433.253 245.125 L 467.721 245.125 C 469.451 245.125 470.853 245.762 470.853 246.548 L 470.853 262.206 C 470.853 262.992 469.451 263.63 467.721 263.63 L 433.253 263.63 C 431.524 263.63 430.121 262.992 430.121 262.206 Z " fill="rgb(214,212,223)"/><path d=" M 430.121 204.701 L 430.121 189.043 C 430.121 188.257 431.524 187.62 433.253 187.62 L 467.721 187.62 C 469.451 187.62 470.853 188.257 470.853 189.043 L 470.853 204.701 C 470.853 205.487 469.451 206.125 467.721 206.125 L 433.253 206.125 C 431.524 206.125 430.121 205.487 430.121 204.701 Z " fill="rgb(156,154,168)"/><path d=" M 430.121 203.701 L 430.121 188.043 C 430.121 187.257 431.524 186.62 433.253 186.62 L 467.721 186.62 C 469.451 186.62 470.853 187.257 470.853 188.043 L 470.853 203.701 C 470.853 204.487 469.451 205.125 467.721 205.125 L 433.253 205.125 C 431.524 205.125 430.121 204.487 430.121 203.701 Z " fill="rgb(214,212,223)"/><path d=" M 430.121 146.197 L 430.121 130.539 C 430.121 129.753 431.524 129.115 433.253 129.115 L 467.721 129.115 C 469.451 129.115 470.853 129.753 470.853 130.539 L 470.853 146.197 C 470.853 146.983 469.451 147.62 467.721 147.62 L 433.253 147.62 C 431.524 147.62 430.121 146.983 430.121 146.197 Z " fill="rgb(156,154,168)"/><path d=" M 430.121 145.197 L 430.121 129.539 C 430.121 128.753 431.524 128.115 433.253 128.115 L 467.721 128.115 C 469.451 128.115 470.853 128.753 470.853 129.539 L 470.853 145.197 C 470.853 145.983 469.451 146.62 467.721 146.62 L 433.253 146.62 C 431.524 146.62 430.121 145.983 430.121 145.197 Z " fill="rgb(214,212,223)"/></g><g><path d=" M 41.147 380.216 L 41.147 364.558 C 41.147 363.772 42.549 363.134 44.279 363.134 L 78.747 363.134 C 80.476 363.134 81.879 363.772 81.879 364.558 L 81.879 380.216 C 81.879 381.002 80.476 381.639 78.747 381.639 L 44.279 381.639 C 42.549 381.639 41.147 381.002 41.147 380.216 Z " fill="rgb(156,154,168)"/><path d=" M 41.147 379.216 L 41.147 363.558 C 41.147 362.772 42.549 362.134 44.279 362.134 L 78.747 362.134 C 80.476 362.134 81.879 362.772 81.879 363.558 L 81.879 379.216 C 81.879 380.002 80.476 380.639 78.747 380.639 L 44.279 380.639 C 42.549 380.639 41.147 380.002 41.147 379.216 Z " fill="rgb(214,212,223)"/><path d=" M 41.147 321.711 L 41.147 306.053 C 41.147 305.267 42.549 304.63 44.279 304.63 L 78.747 304.63 C 80.476 304.63 81.879 305.267 81.879 306.053 L 81.879 321.711 C 81.879 322.497 80.476 323.134 78.747 323.134 L 44.279 323.134 C 42.549 323.134 41.147 322.497 41.147 321.711 Z " fill="rgb(156,154,168)"/><path d=" M 41.147 320.711 L 41.147 305.053 C 41.147 304.267 42.549 303.63 44.279 303.63 L 78.747 303.63 C 80.476 303.63 81.879 304.267 81.879 305.053 L 81.879 320.711 C 81.879 321.497 80.476 322.134 78.747 322.134 L 44.279 322.134 C 42.549 322.134 41.147 321.497 41.147 320.711 Z " fill="rgb(214,212,223)"/><path d=" M 41.147 263.206 L 41.147 247.548 C 41.147 246.762 42.549 246.125 44.279 246.125 L 78.747 246.125 C 80.476 246.125 81.879 246.762 81.879 247.548 L 81.879 263.206 C 81.879 263.992 80.476 264.63 78.747 264.63 L 44.279 264.63 C 42.549 264.63 41.147 263.992 41.147 263.206 Z " fill="rgb(156,154,168)"/><path d=" M 41.147 262.206 L 41.147 246.548 C 41.147 245.762 42.549 245.125 44.279 245.125 L 78.747 245.125 C 80.476 245.125 81.879 245.762 81.879 246.548 L 81.879 262.206 C 81.879 262.992 80.476 263.63 78.747 263.63 L 44.279 263.63 C 42.549 263.63 41.147 262.992 41.147 262.206 Z " fill="rgb(214,212,223)"/><path d=" M 41.147 204.701 L 41.147 189.043 C 41.147 188.257 42.549 187.62 44.279 187.62 L 78.747 187.62 C 80.476 187.62 81.879 188.257 81.879 189.043 L 81.879 204.701 C 81.879 205.487 80.476 206.125 78.747 206.125 L 44.279 206.125 C 42.549 206.125 41.147 205.487 41.147 204.701 Z " fill="rgb(156,154,168)"/><path d=" M 41.147 203.701 L 41.147 188.043 C 41.147 187.257 42.549 186.62 44.279 186.62 L 78.747 186.62 C 80.476 186.62 81.879 187.257 81.879 188.043 L 81.879 203.701 C 81.879 204.487 80.476 205.125 78.747 205.125 L 44.279 205.125 C 42.549 205.125 41.147 204.487 41.147 203.701 Z " fill="rgb(214,212,223)"/><path d=" M 41.147 146.197 L 41.147 130.539 C 41.147 129.753 42.549 129.115 44.279 129.115 L 78.747 129.115 C 80.476 129.115 81.879 129.753 81.879 130.539 L 81.879 146.197 C 81.879 146.983 80.476 147.62 78.747 147.62 L 44.279 147.62 C 42.549 147.62 41.147 146.983 41.147 146.197 Z " fill="rgb(156,154,168)"/><path d=" M 41.147 145.197 L 41.147 129.539 C 41.147 128.753 42.549 128.115 44.279 128.115 L 78.747 128.115 C 80.476 128.115 81.879 128.753 81.879 129.539 L 81.879 145.197 C 81.879 145.983 80.476 146.62 78.747 146.62 L 44.279 146.62 C 42.549 146.62 41.147 145.983 41.147 145.197 Z " fill="rgb(214,212,223)"/></g><g><g><g><g><path d=" M 309.066 281.605 C 307.449 281.605 306.129 281.03 305.107 279.88 C 304.128 278.729 303.618 277.234 303.618 275.355 C 303.618 273.322 304.128 271.366 305.193 269.525 C 306.257 267.723 307.662 266.227 309.407 265.115 C 311.152 264.003 312.982 263.466 314.941 263.466 C 315.579 263.466 316.005 263.581 316.218 263.773 C 316.43 264.003 316.601 264.387 316.728 264.962 C 317.282 264.847 317.878 264.808 318.516 264.808 C 319.197 264.808 319.708 264.962 320.091 265.269 C 320.474 265.575 320.645 265.997 320.645 266.573 C 320.645 267.148 320.517 268.183 320.219 269.64 C 319.921 271.213 319.666 272.67 319.495 274.089 C 319.325 275.508 319.24 277.119 319.24 278.883 C 319.24 279.841 319.027 280.532 318.601 280.953 C 318.133 281.375 317.41 281.605 316.43 281.605 C 315.451 281.605 314.77 281.375 314.26 280.953 C 313.834 280.532 313.578 279.88 313.578 278.921 L 313.621 278.307 C 312.727 280.493 311.237 281.605 309.066 281.605 Z  M 310.726 277.732 C 311.535 277.732 312.259 277.234 312.897 276.237 C 313.536 275.239 314.132 273.475 314.643 270.906 L 315.451 267.033 C 314.302 267.071 313.195 267.455 312.216 268.222 C 311.237 269.027 310.428 270.062 309.832 271.328 C 309.237 272.593 308.939 273.974 308.939 275.393 C 308.939 276.16 309.109 276.735 309.449 277.119 C 309.747 277.54 310.173 277.732 310.726 277.732 Z " fill="rgb(54,70,78)"/></g><clipPath id="_clipPath_S5Hy3gtoAi3MO5qe4TwKHHdUmsxBKD20"><rect x="192.22" y="231.445" width="34.29" height="67.297" transform="matrix(1,0,0,1,0,0)" fill="rgb(255,255,255)"/></clipPath><g clip-path="url(#_clipPath_S5Hy3gtoAi3MO5qe4TwKHHdUmsxBKD20)"><g><path d=" M 228.979 264.858 L 228.979 264.858 Q 229.957 264.858 230.404 265.241 L 230.404 265.241 L 230.404 265.241 Q 230.851 265.625 230.851 266.238 L 230.851 266.238 L 230.851 266.238 Q 230.851 267.234 230.191 268.001 L 230.191 268.001 L 230.191 268.001 Q 229.532 268.767 228.128 268.805 L 228.128 268.805 L 228.128 268.805 Q 224.724 268.882 222.087 268.346 L 222.087 268.346 L 222.087 268.346 Q 219.066 274.056 214.79 277.831 L 214.79 277.831 L 214.79 277.831 Q 210.514 281.606 206.217 281.606 L 206.217 281.606 L 206.217 281.606 Q 201.793 281.606 199.623 276.968 L 199.623 276.968 L 199.623 276.968 Q 197.453 272.331 197.453 264.436 L 197.453 264.436 L 197.453 264.436 Q 197.453 257.691 198.517 252.326 L 198.517 252.326 L 198.517 252.326 Q 198.9 250.333 199.602 249.624 L 199.602 249.624 L 199.602 249.624 Q 200.304 248.915 202.005 248.915 L 202.005 248.915 L 202.005 248.915 Q 204.813 248.915 204.813 251.1 L 204.813 251.1 L 204.813 251.1 Q 204.813 251.33 204.728 251.943 L 204.728 251.943 L 204.728 251.943 Q 203.452 258.841 203.452 264.436 L 203.452 264.436 L 203.452 264.436 Q 203.452 270.3 204.537 273.347 L 204.537 273.347 L 204.537 273.347 Q 205.622 276.394 207.791 276.394 L 207.791 276.394 L 207.791 276.394 Q 210.004 276.394 212.599 273.634 L 212.599 273.634 L 212.599 273.634 Q 215.194 270.875 217.364 266.698 L 217.364 266.698 L 217.364 266.698 Q 214.769 265.241 213.45 262.923 L 213.45 262.923 L 213.45 262.923 Q 212.131 260.604 212.131 257.576 L 212.131 257.576 L 212.131 257.576 Q 212.131 254.549 213.173 252.46 L 213.173 252.46 L 213.173 252.46 Q 214.216 250.372 216.024 249.337 L 216.024 249.337 L 216.024 249.337 Q 217.832 248.302 220.044 248.302 L 220.044 248.302 L 220.044 248.302 Q 222.767 248.302 224.363 250.065 L 224.363 250.065 L 224.363 250.065 Q 225.958 251.828 225.958 254.894 L 225.958 254.894 L 225.958 254.894 Q 225.958 259.301 223.831 264.513 L 223.831 264.513 L 223.831 264.513 Q 226.086 264.858 228.979 264.858 L 228.979 264.858 L 228.979 264.858 Z  M 216.428 257.308 L 216.428 257.308 Q 216.428 261.064 219.108 262.865 L 219.108 262.865 L 219.108 262.865 Q 220.768 258.573 220.768 255.775 L 220.768 255.775 L 220.768 255.775 Q 220.768 254.166 220.3 253.418 L 220.3 253.418 L 220.3 253.418 Q 219.832 252.671 219.023 252.671 L 219.023 252.671 L 219.023 252.671 Q 217.875 252.671 217.151 253.878 L 217.151 253.878 L 217.151 253.878 Q 216.428 255.085 216.428 257.308 L 216.428 257.308 L 216.428 257.308 Z " fill-rule="evenodd" fill="rgb(54,70,78)"/></g></g><clipPath id="_clipPath_UBvaDAtLrJK5vOX2EtHkW3KbrsqXJV9K"><rect x="223.165" y="231.445" width="80.645" height="67.297" transform="matrix(1,0,0,1,0,0)" fill="rgb(255,255,255)"/></clipPath><g clip-path="url(#_clipPath_UBvaDAtLrJK5vOX2EtHkW3KbrsqXJV9K)"><g><path d=" M 230.125 281.606 L 230.125 281.606 Q 227.601 281.606 226.095 279.881 L 226.095 279.881 L 226.095 279.881 Q 224.589 278.156 224.589 275.359 L 224.589 275.359 L 224.589 275.359 Q 224.589 272.293 226.095 269.553 L 226.095 269.553 L 226.095 269.553 Q 227.601 266.813 230.104 265.145 L 230.104 265.145 L 230.104 265.145 Q 232.607 263.478 235.416 263.478 L 235.416 263.478 L 235.416 263.478 Q 236.311 263.478 236.616 263.804 L 236.616 263.804 L 236.616 263.804 Q 236.922 264.13 237.125 264.973 L 237.125 264.973 L 237.125 264.973 Q 237.98 264.82 238.916 264.82 L 238.916 264.82 L 238.916 264.82 Q 240.91 264.82 240.91 266.161 L 240.91 266.161 L 240.91 266.161 Q 240.91 266.966 240.3 269.993 L 240.3 269.993 L 240.3 269.993 Q 239.364 274.401 239.364 276.125 L 239.364 276.125 L 239.364 276.125 Q 239.364 276.7 239.669 277.045 L 239.669 277.045 L 239.669 277.045 Q 239.974 277.39 240.462 277.39 L 240.462 277.39 L 240.462 277.39 Q 241.236 277.39 242.335 276.451 L 242.335 276.451 L 242.335 276.451 Q 243.434 275.512 245.306 273.404 L 245.306 273.404 L 245.306 273.404 Q 245.794 272.868 246.405 272.868 L 246.405 272.868 L 246.405 272.868 Q 246.934 272.868 247.239 273.328 L 247.239 273.328 L 247.239 273.328 Q 247.544 273.788 247.544 274.592 L 247.544 274.592 L 247.544 274.592 Q 247.544 276.125 246.771 276.968 L 246.771 276.968 L 246.771 276.968 Q 245.102 278.923 243.23 280.264 L 243.23 280.264 L 243.23 280.264 Q 241.358 281.606 239.608 281.606 L 239.608 281.606 L 239.608 281.606 Q 238.265 281.606 237.145 280.743 L 237.145 280.743 L 237.145 280.743 Q 236.026 279.881 235.456 278.386 L 235.456 278.386 L 235.456 278.386 Q 233.34 281.606 230.125 281.606 L 230.125 281.606 Z  M 231.59 277.735 L 231.59 277.735 Q 232.485 277.735 233.299 276.738 L 233.299 276.738 L 233.299 276.738 Q 234.113 275.742 234.48 274.094 L 234.48 274.094 L 235.985 267.043 L 235.985 267.043 Q 234.276 267.081 232.831 268.25 L 232.831 268.25 L 232.831 268.25 Q 231.386 269.419 230.532 271.335 L 230.532 271.335 L 230.532 271.335 Q 229.677 273.251 229.677 275.397 L 229.677 275.397 L 229.677 275.397 Q 229.677 276.585 230.186 277.16 L 230.186 277.16 L 230.186 277.16 Q 230.694 277.735 231.59 277.735 L 231.59 277.735 Z " fill-rule="evenodd" fill="rgb(54,70,78)"/><path d=" M 247.137 281.606 L 247.137 281.606 Q 245.591 281.606 244.96 280.073 L 244.96 280.073 L 244.96 280.073 Q 244.329 278.54 244.329 275.167 L 244.329 275.167 L 244.329 275.167 Q 244.329 270.185 245.835 265.701 L 245.835 265.701 L 245.835 265.701 Q 246.201 264.59 247.035 264.072 L 247.035 264.072 L 247.035 264.072 Q 247.87 263.555 249.376 263.555 L 249.376 263.555 L 249.376 263.555 Q 250.19 263.555 250.515 263.747 L 250.515 263.747 L 250.515 263.747 Q 250.841 263.938 250.841 264.475 L 250.841 264.475 L 250.841 264.475 Q 250.841 265.088 250.23 267.234 L 250.23 267.234 L 250.23 267.234 Q 249.823 268.767 249.579 269.917 L 249.579 269.917 L 249.579 269.917 Q 249.335 271.067 249.172 272.753 L 249.172 272.753 L 249.172 272.753 Q 250.515 269.457 252.184 267.387 L 252.184 267.387 L 252.184 267.387 Q 253.853 265.318 255.46 264.436 L 255.46 264.436 L 255.46 264.436 Q 257.068 263.555 258.411 263.555 L 258.411 263.555 L 258.411 263.555 Q 261.057 263.555 261.057 266.046 L 261.057 266.046 L 261.057 266.046 Q 261.057 267.541 260.161 271.45 L 260.161 271.45 L 260.161 271.45 Q 259.388 274.784 259.388 275.857 L 259.388 275.857 L 259.388 275.857 Q 259.388 277.39 260.568 277.39 L 260.568 277.39 L 260.568 277.39 Q 261.382 277.39 262.501 276.451 L 262.501 276.451 L 262.501 276.451 Q 263.621 275.512 265.493 273.404 L 265.493 273.404 L 265.493 273.404 Q 265.981 272.868 266.592 272.868 L 266.592 272.868 L 266.592 272.868 Q 267.121 272.868 267.426 273.328 L 267.426 273.328 L 267.426 273.328 Q 267.731 273.788 267.731 274.592 L 267.731 274.592 L 267.731 274.592 Q 267.731 276.125 266.958 276.968 L 266.958 276.968 L 266.958 276.968 Q 265.208 279 263.193 280.303 L 263.193 280.303 L 263.193 280.303 Q 261.179 281.606 258.615 281.606 L 258.615 281.606 L 258.615 281.606 Q 256.539 281.606 255.481 280.475 L 255.481 280.475 L 255.481 280.475 Q 254.423 279.345 254.423 277.198 L 254.423 277.198 L 254.423 277.198 Q 254.423 276.125 254.992 273.366 L 254.992 273.366 L 254.992 273.366 Q 255.521 270.952 255.521 270.032 L 255.521 270.032 L 255.521 270.032 Q 255.521 269.419 255.074 269.419 L 255.074 269.419 L 255.074 269.419 Q 254.545 269.419 253.588 270.702 L 253.588 270.702 L 253.588 270.702 Q 252.632 271.986 251.635 274.094 L 251.635 274.094 L 251.635 274.094 Q 250.637 276.202 250.027 278.54 L 250.027 278.54 L 250.027 278.54 Q 249.579 280.341 248.989 280.973 L 248.989 280.973 L 248.989 280.973 Q 248.399 281.606 247.137 281.606 L 247.137 281.606 Z " fill="rgb(54,70,78)"/><path d=" M 269.766 261.026 L 269.766 261.026 Q 268.057 261.026 267.202 260.278 L 267.202 260.278 L 267.202 260.278 Q 266.348 259.531 266.348 258.19 L 266.348 258.19 L 266.348 258.19 Q 266.348 256.848 267.467 255.948 L 267.467 255.948 L 267.467 255.948 Q 268.586 255.047 270.255 255.047 L 270.255 255.047 L 270.255 255.047 Q 271.761 255.047 272.697 255.737 L 272.697 255.737 L 272.697 255.737 Q 273.633 256.427 273.633 257.691 L 273.633 257.691 L 273.633 257.691 Q 273.633 259.224 272.575 260.125 L 272.575 260.125 L 272.575 260.125 Q 271.516 261.026 269.766 261.026 L 269.766 261.026 Z " fill="rgb(54,70,78)"/><path d=" M 269.441 281.606 L 269.441 281.606 Q 266.795 281.606 265.595 279.843 L 265.595 279.843 L 265.595 279.843 Q 264.394 278.08 264.394 275.167 L 264.394 275.167 L 264.394 275.167 Q 264.394 273.443 264.862 270.741 L 264.862 270.741 L 264.862 270.741 Q 265.33 268.039 266.063 265.701 L 266.063 265.701 L 266.063 265.701 Q 266.429 264.475 267.039 264.015 L 267.039 264.015 L 267.039 264.015 Q 267.65 263.555 268.993 263.555 L 268.993 263.555 L 268.993 263.555 Q 271.069 263.555 271.069 264.858 L 271.069 264.858 L 271.069 264.858 Q 271.069 265.816 270.295 269.304 L 270.295 269.304 L 270.295 269.304 Q 269.319 273.519 269.319 275.014 L 269.319 275.014 L 269.319 275.014 Q 269.319 276.164 269.644 276.777 L 269.644 276.777 L 269.644 276.777 Q 269.97 277.39 270.743 277.39 L 270.743 277.39 L 270.743 277.39 Q 271.476 277.39 272.575 276.432 L 272.575 276.432 L 272.575 276.432 Q 273.674 275.474 275.505 273.404 L 275.505 273.404 L 275.505 273.404 Q 275.993 272.868 276.604 272.868 L 276.604 272.868 L 276.604 272.868 Q 277.133 272.868 277.438 273.328 L 277.438 273.328 L 277.438 273.328 Q 277.744 273.788 277.744 274.592 L 277.744 274.592 L 277.744 274.592 Q 277.744 276.125 276.97 276.968 L 276.97 276.968 L 276.97 276.968 Q 272.941 281.606 269.441 281.606 L 269.441 281.606 Z " fill="rgb(54,70,78)"/><path d=" M 289.872 272.868 L 289.872 272.868 Q 290.401 272.868 290.706 273.328 L 290.706 273.328 L 290.706 273.328 Q 291.012 273.788 291.012 274.592 L 291.012 274.592 L 291.012 274.592 Q 291.012 276.125 290.238 276.968 L 290.238 276.968 L 290.238 276.968 Q 288.488 279 286.433 280.303 L 286.433 280.303 L 286.433 280.303 Q 284.378 281.606 281.773 281.606 L 281.773 281.606 L 281.773 281.606 Q 278.191 281.606 276.461 278.54 L 276.461 278.54 L 276.461 278.54 Q 274.732 275.474 274.732 270.607 L 274.732 270.607 L 274.732 270.607 Q 274.732 265.931 276.014 259.953 L 276.014 259.953 L 276.014 259.953 Q 277.296 253.974 279.799 249.682 L 279.799 249.682 L 279.799 249.682 Q 282.302 245.389 285.761 245.389 L 285.761 245.389 L 285.761 245.389 Q 287.715 245.389 288.834 247.095 L 288.834 247.095 L 288.834 247.095 Q 289.953 248.8 289.953 251.981 L 289.953 251.981 L 289.953 251.981 Q 289.953 256.542 287.267 262.559 L 287.267 262.559 L 287.267 262.559 Q 284.581 268.575 279.982 274.477 L 279.982 274.477 L 279.982 274.477 Q 280.267 276.049 280.918 276.719 L 280.918 276.719 L 280.918 276.719 Q 281.569 277.39 282.628 277.39 L 282.628 277.39 L 282.628 277.39 Q 284.296 277.39 285.558 276.489 L 285.558 276.489 L 285.558 276.489 Q 286.82 275.589 288.773 273.404 L 288.773 273.404 L 288.773 273.404 Q 289.262 272.868 289.872 272.868 L 289.872 272.868 Z  M 284.866 249.184 L 284.866 249.184 Q 283.93 249.184 282.75 252.364 L 282.75 252.364 L 282.75 252.364 Q 281.569 255.545 280.674 260.259 L 280.674 260.259 L 280.674 260.259 Q 279.779 264.973 279.697 269.304 L 279.697 269.304 L 279.697 269.304 Q 282.587 264.82 284.296 260.317 L 284.296 260.317 L 284.296 260.317 Q 286.006 255.814 286.006 252.096 L 286.006 252.096 L 286.006 252.096 Q 286.006 249.184 284.866 249.184 L 284.866 249.184 Z " fill-rule="evenodd" fill="rgb(54,70,78)"/><path d=" M 303.14 272.868 L 303.14 272.868 Q 303.669 272.868 303.975 273.328 L 303.975 273.328 L 303.975 273.328 Q 304.28 273.788 304.28 274.592 L 304.28 274.592 L 304.28 274.592 Q 304.28 276.125 303.507 276.968 L 303.507 276.968 L 303.507 276.968 Q 301.756 279 299.701 280.303 L 299.701 280.303 L 299.701 280.303 Q 297.646 281.606 295.041 281.606 L 295.041 281.606 L 295.041 281.606 Q 291.459 281.606 289.73 278.54 L 289.73 278.54 L 289.73 278.54 Q 288 275.474 288 270.607 L 288 270.607 L 288 270.607 Q 288 265.931 289.282 259.953 L 289.282 259.953 L 289.282 259.953 Q 290.564 253.974 293.067 249.682 L 293.067 249.682 L 293.067 249.682 Q 295.57 245.389 299.03 245.389 L 299.03 245.389 L 299.03 245.389 Q 300.983 245.389 302.102 247.095 L 302.102 247.095 L 302.102 247.095 Q 303.222 248.8 303.222 251.981 L 303.222 251.981 L 303.222 251.981 Q 303.222 256.542 300.535 262.559 L 300.535 262.559 L 300.535 262.559 Q 297.849 268.575 293.25 274.477 L 293.25 274.477 L 293.25 274.477 Q 293.535 276.049 294.186 276.719 L 294.186 276.719 L 294.186 276.719 Q 294.837 277.39 295.896 277.39 L 295.896 277.39 L 295.896 277.39 Q 297.564 277.39 298.826 276.489 L 298.826 276.489 L 298.826 276.489 Q 300.088 275.589 302.041 273.404 L 302.041 273.404 L 302.041 273.404 Q 302.53 272.868 303.14 272.868 L 303.14 272.868 Z  M 298.134 249.184 L 298.134 249.184 Q 297.198 249.184 296.018 252.364 L 296.018 252.364 L 296.018 252.364 Q 294.837 255.545 293.942 260.259 L 293.942 260.259 L 293.942 260.259 Q 293.047 264.973 292.965 269.304 L 292.965 269.304 L 292.965 269.304 Q 295.855 264.82 297.564 260.317 L 297.564 260.317 L 297.564 260.317 Q 299.274 255.814 299.274 252.096 L 299.274 252.096 L 299.274 252.096 Q 299.274 249.184 298.134 249.184 L 298.134 249.184 Z " fill-rule="evenodd" fill="rgb(54,70,78)"/></g></g></g></g></g></g></g></g></svg>