<?xml version="1.0" encoding="UTF-8" standalone="no"?><!-- Generator: Gravit.io --><svg xmlns="http://www.w3.org/2000/svg" xmlns:xlink="http://www.w3.org/1999/xlink" style="isolation:isolate" viewBox="0 0 128 128" width="128pt" height="128pt"><defs><clipPath id="_clipPath_8pj4tAOgmET0TkArwhXZ4CItVIs7MGZ0"><rect width="128" height="128"/></clipPath></defs><g clip-path="url(#_clipPath_8pj4tAOgmET0TkArwhXZ4CItVIs7MGZ0)"><g><linearGradient id="_lgradient_0" x1="0" y1="0.5" x2="0.9999999999999998" y2="0.5" gradientTransform="matrix(44.622,0,0,43.814,24.45,30.464)" gradientUnits="userSpaceOnUse"><stop offset="1.25%" stop-opacity="1" style="stop-color:rgb(94,142,221)"/><stop offset="2.9166666666666665%" stop-opacity="1" style="stop-color:rgb(94,142,221)"/><stop offset="3.3333333333333335%" stop-opacity="1" style="stop-color:rgb(94,142,221)"/><stop offset="12.5%" stop-opacity="1" style="stop-color:rgb(68,113,187)"/><stop offset="86.66666666666667%" stop-opacity="1" style="stop-color:rgb(68,113,187)"/><stop offset="95.41666666666667%" stop-opacity="1" style="stop-color:rgb(94,142,221)"/><stop offset="98.75%" stop-opacity="1" style="stop-color:rgb(94,142,221)"/></linearGradient><path d=" M 69.072 30.464 L 69.072 30.464 L 69.072 67.134 L 69.072 70.629 C 69.072 72.645 67.535 74.278 65.64 74.278 L 27.882 74.278 C 25.987 74.278 24.45 72.645 24.45 70.629 L 24.45 67.134 C 24.45 69.065 25.987 70.629 27.882 70.629 L 65.64 70.629 C 67.535 70.629 69.072 69.065 69.072 67.134 L 69.072 67.134 L 69.072 30.464 Z " fill="url(#_lgradient_0)"/><path d=" M 27.882 25.474 L 65.64 25.474 C 67.535 25.474 69.072 27.038 69.072 28.969 L 69.072 67.434 C 69.072 69.364 67.535 70.929 65.64 70.929 L 27.882 70.929 C 25.987 70.929 24.45 69.364 24.45 67.434 L 24.45 28.969 C 24.45 27.038 25.987 25.474 27.882 25.474 Z " fill="rgb(123,173,255)"/><linearGradient id="_lgradient_1" x1="0.5" y1="1" x2="0.5000000000000001" y2="0" gradientTransform="matrix(44.622,0,0,45.455,24.45,25.175)" gradientUnits="userSpaceOnUse"><stop offset="0%" stop-opacity="1" style="stop-color:rgb(76,129,215)"/><stop offset="100%" stop-opacity="1" style="stop-color:rgb(42,85,153)"/></linearGradient><path d=" M 27.882 25.175 L 65.64 25.175 C 67.535 25.175 69.072 26.739 69.072 28.67 L 69.072 67.134 C 69.072 69.065 67.535 70.629 65.64 70.629 L 27.882 70.629 C 25.987 70.629 24.45 69.065 24.45 67.134 L 24.45 28.67 C 24.45 26.739 25.987 25.175 27.882 25.175 Z " fill="url(#_lgradient_1)"/><path d=" M 40.252 46.317 L 40.252 51.435 L 38.623 51.435 L 38.623 45.002 L 41.986 45.005 C 43.415 45.005 43.902 46.013 43.902 46.928 L 43.902 51.435 L 42.275 51.435 L 42.275 46.936 C 42.275 46.553 42.077 46.317 41.598 46.317 L 40.252 46.317 L 40.252 46.317 Z  M 51.33 46.24 C 50.774 46.24 50.343 46.526 50.163 46.915 C 50.056 47.148 50.019 47.327 50.007 47.613 L 52.513 47.613 C 52.481 46.915 52.165 46.24 51.33 46.24 M 50.007 48.722 C 50.007 49.555 50.525 50.168 51.45 50.168 C 52.169 50.168 52.527 49.969 52.943 49.555 L 53.949 50.516 C 53.305 51.152 52.629 51.538 51.438 51.538 C 49.878 51.538 48.386 50.688 48.386 48.209 C 48.386 46.092 49.689 44.893 51.401 44.893 C 53.137 44.893 54.139 46.296 54.139 48.135 L 54.139 48.722 L 50.007 48.722 M 47.01 51.427 C 45.683 51.427 45.12 50.503 45.12 49.591 L 45.12 43.249 L 46.747 43.249 L 46.747 45.002 L 47.973 45.002 L 47.973 46.317 L 46.747 46.317 L 46.747 49.489 C 46.747 49.862 46.923 50.07 47.311 50.07 L 47.973 50.07 L 47.973 51.427 L 47.01 51.427 Z  M 37.173 44.113 L 35.533 44.113 L 35.533 42.555 L 37.173 42.555 L 37.173 44.113 Z  M 37.177 51.503 C 35.949 51.385 35.531 50.64 35.531 49.78 L 35.533 45.002 L 37.177 45.002 L 37.177 51.503 L 37.177 51.503 Z  M 56.728 51.365 C 55.503 51.247 55.087 50.503 55.087 49.644 L 55.087 42.333 L 56.728 42.333 L 56.728 51.365 L 56.728 51.365 Z  M 62.468 43.39 C 60.98 36.136 46.899 35.677 37.823 41.202 L 37.823 41.812 C 46.89 37.152 59.749 37.18 60.92 43.861 C 61.312 46.07 60.067 48.373 57.844 49.697 L 57.844 51.429 C 60.52 50.45 63.265 47.276 62.468 43.39 M 45.97 56.081 C 39.706 56.66 33.178 55.751 32.265 50.856 C 31.818 48.443 32.917 45.885 34.376 44.297 L 34.376 43.447 C 31.75 45.749 30.326 48.663 31.146 52.107 C 32.193 56.522 37.795 59.025 46.346 58.194 C 49.729 57.864 54.157 56.776 57.235 55.086 L 57.235 52.686 C 54.442 54.349 49.819 55.725 45.97 56.081" fill="rgb(33,63,111)"/></g><g><linearGradient id="_lgradient_2" x1="0" y1="0.5" x2="0.9999999999999998" y2="0.5" gradientTransform="matrix(44.622,0,0,43.814,58.928,59.011)" gradientUnits="userSpaceOnUse"><stop offset="1.25%" stop-opacity="1" style="stop-color:rgb(86,168,73)"/><stop offset="2.9166666666666665%" stop-opacity="1" style="stop-color:rgb(91,183,77)"/><stop offset="3.75%" stop-opacity="1" style="stop-color:rgb(91,183,77)"/><stop offset="12.083333333333334%" stop-opacity="1" style="stop-color:rgb(86,168,73)"/><stop offset="86.66666666666667%" stop-opacity="1" style="stop-color:rgb(0,168,73)"/><stop offset="95.41666666666667%" stop-opacity="1" style="stop-color:rgb(91,183,77)"/><stop offset="98.75%" stop-opacity="1" style="stop-color:rgb(86,168,73)"/></linearGradient><path d=" M 103.55 59.011 L 103.55 59.011 L 103.55 95.681 L 103.55 99.176 C 103.55 101.192 102.013 102.825 100.118 102.825 L 62.36 102.825 C 60.465 102.825 58.928 101.192 58.928 99.176 L 58.928 95.681 C 58.928 97.612 60.465 99.176 62.36 99.176 L 100.118 99.176 C 102.013 99.176 103.55 97.612 103.55 95.681 L 103.55 95.681 L 103.55 59.011 Z " fill="url(#_lgradient_2)"/><path d=" M 62.36 54.021 L 100.118 54.021 C 102.013 54.021 103.55 55.585 103.55 57.516 L 103.55 95.981 C 103.55 97.911 102.013 99.476 100.118 99.476 L 62.36 99.476 C 60.465 99.476 58.928 97.911 58.928 95.981 L 58.928 57.516 C 58.928 55.585 60.465 54.021 62.36 54.021 Z " fill="rgb(153,236,143)"/><linearGradient id="_lgradient_3" x1="0.5" y1="1" x2="0.5000000000000001" y2="0" gradientTransform="matrix(44.622,0,0,45.455,58.928,53.722)" gradientUnits="userSpaceOnUse"><stop offset="0%" stop-opacity="1" style="stop-color:rgb(106,189,89)"/><stop offset="100%" stop-opacity="1" style="stop-color:rgb(26,149,48)"/></linearGradient><path d=" M 62.36 53.722 L 100.118 53.722 C 102.013 53.722 103.55 55.286 103.55 57.217 L 103.55 95.681 C 103.55 97.612 102.013 99.176 100.118 99.176 L 62.36 99.176 C 60.465 99.176 58.928 97.612 58.928 95.681 L 58.928 57.217 C 58.928 55.286 60.465 53.722 62.36 53.722 Z " fill="url(#_lgradient_3)"/></g><path d=" M 68.682 76.822 C 68.682 76.822 71.536 72.611 77.234 72.175 L 77.234 70.648 C 70.922 71.155 65.457 76.5 65.457 76.5 C 65.457 76.5 68.552 85.449 77.234 86.268 L 77.234 84.645 C 70.863 83.843 68.682 76.822 68.682 76.822 Z  M 77.234 81.415 L 77.234 82.902 C 72.419 82.044 71.082 77.039 71.082 77.039 C 71.082 77.039 73.394 74.478 77.234 74.062 L 77.234 75.694 C 77.231 75.694 77.229 75.693 77.226 75.693 C 75.211 75.451 73.637 77.334 73.637 77.334 C 73.637 77.334 74.519 80.503 77.234 81.415 Z  M 77.234 67.83 L 77.234 70.648 C 77.419 70.634 77.604 70.622 77.791 70.615 C 84.966 70.373 89.641 76.5 89.641 76.5 C 89.641 76.5 84.272 83.03 78.677 83.03 C 78.165 83.03 77.685 82.982 77.234 82.902 L 77.234 84.645 C 77.619 84.694 78.019 84.722 78.436 84.722 C 83.642 84.722 87.407 82.064 91.052 78.917 C 91.657 79.401 94.131 80.579 94.64 81.094 C 91.173 83.996 83.095 86.335 78.516 86.335 C 78.074 86.335 77.65 86.308 77.234 86.268 L 77.234 88.717 L 97.021 88.717 L 97.021 67.83 L 77.234 67.83 Z  M 77.234 74.062 L 77.234 72.176 C 77.417 72.163 77.602 72.153 77.791 72.147 C 82.95 71.985 86.336 76.581 86.336 76.581 C 86.336 76.581 82.679 81.659 78.759 81.659 C 78.195 81.659 77.689 81.568 77.234 81.415 L 77.234 75.694 C 79.242 75.937 79.647 76.824 80.854 78.837 L 83.54 76.573 C 83.54 76.573 81.58 74.001 78.274 74.001 C 77.915 74.001 77.571 74.026 77.234 74.062 Z " fill="rgb(43,125,53)"/></g></svg>