<?xml version="1.0" encoding="UTF-8" standalone="no"?><!-- Generator: Gravit.io --><svg xmlns="http://www.w3.org/2000/svg" xmlns:xlink="http://www.w3.org/1999/xlink" style="isolation:isolate" viewBox="0 0 128 128" width="128pt" height="128pt"><defs><clipPath id="_clipPath_3S8siivh0USPNOvRQ3iVr5a6KsuvUHNV"><rect width="128" height="128"/></clipPath></defs><g clip-path="url(#_clipPath_3S8siivh0USPNOvRQ3iVr5a6KsuvUHNV)"><path d=" M 22.877 11.757 L 105.124 11.757 C 109.253 11.757 112.6 15.12 112.6 19.268 L 112.6 101.93 C 112.6 106.078 109.253 109.44 105.124 109.44 L 22.877 109.44 C 18.748 109.44 15.4 106.078 15.4 101.93 L 15.4 19.268 C 15.4 15.12 18.748 11.757 22.877 11.757 Z " fill="rgb(104,104,104)"/><linearGradient id="_lgradient_26" x1="0.4999999999999999" y1="0" x2="0.5000000000000002" y2="1" gradientTransform="matrix(89.727,0,0,77.953,19.137,23.977)" gradientUnits="userSpaceOnUse"><stop offset="1.25%" stop-opacity="1" style="stop-color:rgb(81,80,80)"/><stop offset="9.583333333333334%" stop-opacity="1" style="stop-color:rgb(81,81,81)"/><stop offset="68.75%" stop-opacity="1" style="stop-color:rgb(70,70,70)"/><stop offset="98.75%" stop-opacity="1" style="stop-color:rgb(53,52,52)"/></linearGradient><path d=" M 26.039 23.977 L 101.962 23.977 C 105.773 23.977 108.863 26.661 108.863 29.971 L 108.863 95.937 C 108.863 99.247 105.773 101.93 101.962 101.93 L 26.039 101.93 C 22.227 101.93 19.137 99.247 19.137 95.937 L 19.137 29.971 C 19.137 26.661 22.227 23.977 26.039 23.977 Z " fill="url(#_lgradient_26)"/><linearGradient id="_lgradient_27" x1="-7.777777588646728e-10" y1="0.5000000062324617" x2="0.9999999955740002" y2="0.5000000062324617" gradientTransform="matrix(97.2,0,0,18.069,15.4,98.175)" gradientUnits="userSpaceOnUse"><stop offset="1%" stop-opacity="1" style="stop-color:rgb(66,66,66)"/><stop offset="5%" stop-opacity="1" style="stop-color:rgb(104,104,104)"/><stop offset="10%" stop-opacity="1" style="stop-color:rgb(66,66,66)"/><stop offset="50%" stop-opacity="1" style="stop-color:rgb(66,66,66)"/><stop offset="89.999998%" stop-opacity="1" style="stop-color:rgb(66,66,66)"/><stop offset="94.999999%" stop-opacity="1" style="stop-color:rgb(104,104,104)"/><stop offset="99.000001%" stop-opacity="1" style="stop-color:rgb(66,66,66)"/></linearGradient><path d=" M 15.4 98.175 L 15.4 108.733 C 15.4 112.895 18.733 116.243 22.877 116.243 L 105.124 116.243 C 109.266 116.243 112.6 112.895 112.6 108.733 L 112.6 98.175 C 112.6 102.337 109.266 105.685 105.124 105.685 L 22.877 105.685 C 18.733 105.685 15.4 102.337 15.4 98.175 L 15.4 98.175 Z " fill="url(#_lgradient_27)"/><path d=" M 19.137 30.238 L 19.137 21.773 C 19.137 18.436 22.214 15.751 26.039 15.751 L 101.962 15.751 C 105.786 15.751 108.863 18.436 108.863 21.773 L 108.863 30.238 C 108.863 26.901 105.786 24.216 101.962 24.216 L 26.039 24.216 C 22.214 24.216 19.137 26.901 19.137 30.238 L 19.137 30.238 Z " fill="rgb(59,59,59)"/><linearGradient id="_lgradient_28" x1="-7.777777588646728e-10" y1="0.5000000062324617" x2="0.9999999955740002" y2="0.5000000062324617" gradientTransform="matrix(89.727,0,0,-14.487,19.137,29.999)" gradientUnits="userSpaceOnUse"><stop offset="1%" stop-opacity="1" style="stop-color:rgb(66,66,66)"/><stop offset="5%" stop-opacity="1" style="stop-color:rgb(104,104,104)"/><stop offset="10%" stop-opacity="1" style="stop-color:rgb(66,66,66)"/><stop offset="50%" stop-opacity="1" style="stop-color:rgb(66,66,66)"/><stop offset="89.999998%" stop-opacity="1" style="stop-color:rgb(66,66,66)"/><stop offset="94.999999%" stop-opacity="1" style="stop-color:rgb(104,104,104)"/><stop offset="99.000001%" stop-opacity="1" style="stop-color:rgb(66,66,66)"/></linearGradient><path d=" M 19.137 29.999 L 19.137 21.534 C 19.137 18.197 22.214 15.512 26.039 15.512 L 101.962 15.512 C 105.786 15.512 108.863 18.197 108.863 21.534 L 108.863 29.999 C 108.863 26.662 105.786 23.977 101.962 23.977 L 26.039 23.977 C 22.214 23.977 19.137 26.662 19.137 29.999 L 19.137 29.999 Z " fill="url(#_lgradient_28)"/><path d=" M 44.011 71.661 L 24.185 71.661 C 23.19 71.661 22.383 72.472 22.383 73.472 L 22.383 93.398 C 22.383 94.398 23.19 95.209 24.185 95.209 L 44.011 95.209 C 45.007 95.209 45.814 94.398 45.814 93.398 L 45.814 73.472 C 45.814 72.472 45.007 71.661 44.011 71.661 Z " fill="rgb(234,234,234)"/><path d=" M 103.815 71.661 L 83.989 71.661 C 82.993 71.661 82.186 72.472 82.186 73.472 L 82.186 93.398 C 82.186 94.398 82.993 95.209 83.989 95.209 L 103.815 95.209 C 104.81 95.209 105.617 94.398 105.617 93.398 L 105.617 73.472 C 105.617 72.472 104.81 71.661 103.815 71.661 Z " fill="rgb(234,234,234)"/><path d=" M 68.973 84.183 L 59.027 84.183 C 58.528 84.183 58.123 84.596 58.123 85.104 L 58.123 95.237 C 58.123 95.745 58.528 96.157 59.027 96.157 L 68.973 96.157 C 69.472 96.157 69.877 95.745 69.877 95.237 L 69.877 85.104 C 69.877 84.596 69.472 84.183 68.973 84.183 Z " fill="rgb(234,234,234)"/><path d=" M 68.973 69.935 L 59.027 69.935 C 58.528 69.935 58.123 70.347 58.123 70.856 L 58.123 80.988 C 58.123 81.497 58.528 81.909 59.027 81.909 L 68.973 81.909 C 69.472 81.909 69.877 81.497 69.877 80.988 L 69.877 70.856 C 69.877 70.347 69.472 69.935 68.973 69.935 Z " fill="rgb(234,234,234)"/><path d=" M 39.071 46.544 L 29.126 46.544 C 28.626 46.544 28.222 46.956 28.222 47.464 L 28.222 57.597 C 28.222 58.105 28.626 58.518 29.126 58.518 L 39.071 58.518 C 39.57 58.518 39.975 58.105 39.975 57.597 L 39.975 47.464 C 39.975 46.956 39.57 46.544 39.071 46.544 Z " fill="rgb(234,234,234)"/><path d=" M 98.874 46.544 L 88.929 46.544 C 88.43 46.544 88.025 46.956 88.025 47.464 L 88.025 57.597 C 88.025 58.105 88.43 58.518 88.929 58.518 L 98.874 58.518 C 99.374 58.518 99.778 58.105 99.778 57.597 L 99.778 47.464 C 99.778 46.956 99.374 46.544 98.874 46.544 Z " fill="rgb(234,234,234)"/><path d=" M 77.278 28.916 L 50.722 28.916 C 49.389 28.916 48.308 29.968 48.308 31.265 L 48.308 57.115 C 48.308 58.412 49.389 59.464 50.722 59.464 L 77.278 59.464 C 78.611 59.464 79.692 58.412 79.692 57.115 L 79.692 31.265 C 79.692 29.968 78.611 28.916 77.278 28.916 Z " fill="rgb(255,191,72)"/><clipPath id="_clipPath_R3TGmlbyZKYWFcLibsdB2RwYVNQSpd66"><rect x="51.335" y="39.747" width="25.33" height="8.886" transform="matrix(1,0,0,1,0,0)" fill="rgb(255,255,255)"/></clipPath><g clip-path="url(#_clipPath_R3TGmlbyZKYWFcLibsdB2RwYVNQSpd66)"><g><path d=" M 72.469 45.873 L 72.469 45.873 Q 72.568 45.873 72.625 45.955 L 72.625 45.955 L 72.625 45.955 Q 72.682 46.037 72.682 46.181 L 72.682 46.181 L 72.682 46.181 Q 72.682 46.455 72.537 46.605 L 72.537 46.605 L 72.537 46.605 Q 72.211 46.968 71.827 47.2 L 71.827 47.2 L 71.827 47.2 Q 71.444 47.433 70.957 47.433 L 70.957 47.433 L 70.957 47.433 Q 70.289 47.433 69.966 46.886 L 69.966 46.886 L 69.966 46.886 Q 69.643 46.338 69.643 45.469 L 69.643 45.469 L 69.643 45.469 Q 69.643 44.634 69.883 43.567 L 69.883 43.567 L 69.883 43.567 Q 70.122 42.499 70.589 41.733 L 70.589 41.733 L 70.589 41.733 Q 71.056 40.966 71.702 40.966 L 71.702 40.966 L 71.702 40.966 Q 72.066 40.966 72.275 41.271 L 72.275 41.271 L 72.275 41.271 Q 72.484 41.575 72.484 42.143 L 72.484 42.143 L 72.484 42.143 Q 72.484 42.958 71.983 44.032 L 71.983 44.032 L 71.983 44.032 Q 71.482 45.106 70.623 46.16 L 70.623 46.16 L 70.623 46.16 Q 70.676 46.441 70.798 46.561 L 70.798 46.561 L 70.798 46.561 Q 70.919 46.68 71.117 46.68 L 71.117 46.68 L 71.117 46.68 Q 71.428 46.68 71.664 46.52 L 71.664 46.52 L 71.664 46.52 Q 71.899 46.359 72.264 45.969 L 72.264 45.969 L 72.264 45.969 Q 72.355 45.873 72.469 45.873 L 72.469 45.873 Z  M 71.535 41.644 L 71.535 41.644 Q 71.36 41.644 71.14 42.212 L 71.14 42.212 L 71.14 42.212 Q 70.919 42.78 70.752 43.621 L 70.752 43.621 L 70.752 43.621 Q 70.585 44.463 70.57 45.236 L 70.57 45.236 L 70.57 45.236 Q 71.109 44.436 71.428 43.632 L 71.428 43.632 L 71.428 43.632 Q 71.747 42.828 71.747 42.164 L 71.747 42.164 L 71.747 42.164 Q 71.747 41.644 71.535 41.644 L 71.535 41.644 Z " fill-rule="evenodd" fill="rgb(170,129,52)"/><path d=" M 69.992 45.873 L 69.992 45.873 Q 70.091 45.873 70.148 45.955 L 70.148 45.955 L 70.148 45.955 Q 70.205 46.037 70.205 46.181 L 70.205 46.181 L 70.205 46.181 Q 70.205 46.455 70.06 46.605 L 70.06 46.605 L 70.06 46.605 Q 69.734 46.968 69.35 47.2 L 69.35 47.2 L 69.35 47.2 Q 68.967 47.433 68.48 47.433 L 68.48 47.433 L 68.48 47.433 Q 67.812 47.433 67.489 46.886 L 67.489 46.886 L 67.489 46.886 Q 67.166 46.338 67.166 45.469 L 67.166 45.469 L 67.166 45.469 Q 67.166 44.634 67.406 43.567 L 67.406 43.567 L 67.406 43.567 Q 67.645 42.499 68.112 41.733 L 68.112 41.733 L 68.112 41.733 Q 68.579 40.966 69.225 40.966 L 69.225 40.966 L 69.225 40.966 Q 69.589 40.966 69.798 41.271 L 69.798 41.271 L 69.798 41.271 Q 70.007 41.575 70.007 42.143 L 70.007 42.143 L 70.007 42.143 Q 70.007 42.958 69.506 44.032 L 69.506 44.032 L 69.506 44.032 Q 69.005 45.106 68.146 46.16 L 68.146 46.16 L 68.146 46.16 Q 68.199 46.441 68.321 46.561 L 68.321 46.561 L 68.321 46.561 Q 68.442 46.68 68.64 46.68 L 68.64 46.68 L 68.64 46.68 Q 68.951 46.68 69.187 46.52 L 69.187 46.52 L 69.187 46.52 Q 69.422 46.359 69.787 45.969 L 69.787 45.969 L 69.787 45.969 Q 69.878 45.873 69.992 45.873 L 69.992 45.873 Z  M 69.058 41.644 L 69.058 41.644 Q 68.883 41.644 68.663 42.212 L 68.663 42.212 L 68.663 42.212 Q 68.442 42.78 68.275 43.621 L 68.275 43.621 L 68.275 43.621 Q 68.108 44.463 68.093 45.236 L 68.093 45.236 L 68.093 45.236 Q 68.632 44.436 68.951 43.632 L 68.951 43.632 L 68.951 43.632 Q 69.27 42.828 69.27 42.164 L 69.27 42.164 L 69.27 42.164 Q 69.27 41.644 69.058 41.644 L 69.058 41.644 Z " fill-rule="evenodd" fill="rgb(170,129,52)"/><path d=" M 66.23 47.447 L 66.23 47.447 Q 65.736 47.447 65.512 47.132 L 65.512 47.132 L 65.512 47.132 Q 65.288 46.817 65.288 46.297 L 65.288 46.297 L 65.288 46.297 Q 65.288 45.989 65.375 45.507 L 65.375 45.507 L 65.375 45.507 Q 65.462 45.024 65.599 44.607 L 65.599 44.607 L 65.599 44.607 Q 65.667 44.388 65.781 44.306 L 65.781 44.306 L 65.781 44.306 Q 65.895 44.224 66.146 44.224 L 66.146 44.224 L 66.146 44.224 Q 66.533 44.224 66.533 44.456 L 66.533 44.456 L 66.533 44.456 Q 66.533 44.627 66.389 45.25 L 66.389 45.25 L 66.389 45.25 Q 66.207 46.003 66.207 46.27 L 66.207 46.27 L 66.207 46.27 Q 66.207 46.475 66.267 46.585 L 66.267 46.585 L 66.267 46.585 Q 66.328 46.694 66.473 46.694 L 66.473 46.694 L 66.473 46.694 Q 66.609 46.694 66.814 46.523 L 66.814 46.523 L 66.814 46.523 Q 67.019 46.352 67.361 45.982 L 67.361 45.982 L 67.361 45.982 Q 67.452 45.887 67.566 45.887 L 67.566 45.887 L 67.566 45.887 Q 67.665 45.887 67.722 45.969 L 67.722 45.969 L 67.722 45.969 Q 67.779 46.051 67.779 46.194 L 67.779 46.194 L 67.779 46.194 Q 67.779 46.468 67.635 46.619 L 67.635 46.619 L 67.635 46.619 Q 66.883 47.447 66.23 47.447 L 66.23 47.447 Z " fill="rgb(170,129,52)"/><path d=" M 62.073 47.433 L 62.073 47.433 Q 61.784 47.433 61.666 47.159 L 61.666 47.159 L 61.666 47.159 Q 61.549 46.886 61.549 46.283 L 61.549 46.283 L 61.549 46.283 Q 61.549 45.394 61.83 44.593 L 61.83 44.593 L 61.83 44.593 Q 61.898 44.395 62.054 44.302 L 62.054 44.302 L 62.054 44.302 Q 62.21 44.21 62.491 44.21 L 62.491 44.21 L 62.491 44.21 Q 62.642 44.21 62.703 44.244 L 62.703 44.244 L 62.703 44.244 Q 62.764 44.278 62.764 44.374 L 62.764 44.374 L 62.764 44.374 Q 62.764 44.484 62.65 44.867 L 62.65 44.867 L 62.65 44.867 Q 62.574 45.141 62.529 45.346 L 62.529 45.346 L 62.529 45.346 Q 62.483 45.551 62.453 45.852 L 62.453 45.852 L 62.453 45.852 Q 62.703 45.264 63.015 44.894 L 63.015 44.894 L 63.015 44.894 Q 63.326 44.525 63.626 44.367 L 63.626 44.367 L 63.626 44.367 Q 63.926 44.21 64.177 44.21 L 64.177 44.21 L 64.177 44.21 Q 64.671 44.21 64.671 44.655 L 64.671 44.655 L 64.671 44.655 Q 64.671 44.922 64.504 45.62 L 64.504 45.62 L 64.504 45.62 Q 64.359 46.215 64.359 46.407 L 64.359 46.407 L 64.359 46.407 Q 64.359 46.68 64.58 46.68 L 64.58 46.68 L 64.58 46.68 Q 64.731 46.68 64.94 46.513 L 64.94 46.513 L 64.94 46.513 Q 65.149 46.345 65.499 45.969 L 65.499 45.969 L 65.499 45.969 Q 65.59 45.873 65.704 45.873 L 65.704 45.873 L 65.704 45.873 Q 65.802 45.873 65.859 45.955 L 65.859 45.955 L 65.859 45.955 Q 65.916 46.037 65.916 46.181 L 65.916 46.181 L 65.916 46.181 Q 65.916 46.455 65.772 46.605 L 65.772 46.605 L 65.772 46.605 Q 65.445 46.968 65.069 47.2 L 65.069 47.2 L 65.069 47.2 Q 64.693 47.433 64.215 47.433 L 64.215 47.433 L 64.215 47.433 Q 63.827 47.433 63.63 47.231 L 63.63 47.231 L 63.63 47.231 Q 63.433 47.029 63.433 46.646 L 63.433 46.646 L 63.433 46.646 Q 63.433 46.455 63.539 45.962 L 63.539 45.962 L 63.539 45.962 Q 63.638 45.531 63.638 45.366 L 63.638 45.366 L 63.638 45.366 Q 63.638 45.257 63.554 45.257 L 63.554 45.257 L 63.554 45.257 Q 63.455 45.257 63.277 45.486 L 63.277 45.486 L 63.277 45.486 Q 63.098 45.715 62.912 46.092 L 62.912 46.092 L 62.912 46.092 Q 62.726 46.468 62.612 46.886 L 62.612 46.886 L 62.612 46.886 Q 62.529 47.207 62.418 47.32 L 62.418 47.32 L 62.418 47.32 Q 62.308 47.433 62.073 47.433 L 62.073 47.433 Z " fill="rgb(170,129,52)"/><path d=" M 58.91 47.447 L 58.91 47.447 Q 58.44 47.447 58.158 47.139 L 58.158 47.139 L 58.158 47.139 Q 57.877 46.831 57.877 46.331 L 57.877 46.331 L 57.877 46.331 Q 57.877 45.784 58.158 45.295 L 58.158 45.295 L 58.158 45.295 Q 58.44 44.805 58.907 44.508 L 58.907 44.508 L 58.907 44.508 Q 59.374 44.21 59.898 44.21 L 59.898 44.21 L 59.898 44.21 Q 60.065 44.21 60.122 44.268 L 60.122 44.268 L 60.122 44.268 Q 60.179 44.326 60.217 44.477 L 60.217 44.477 L 60.217 44.477 Q 60.376 44.449 60.551 44.449 L 60.551 44.449 L 60.551 44.449 Q 60.923 44.449 60.923 44.689 L 60.923 44.689 L 60.923 44.689 Q 60.923 44.833 60.809 45.373 L 60.809 45.373 L 60.809 45.373 Q 60.635 46.16 60.635 46.468 L 60.635 46.468 L 60.635 46.468 Q 60.635 46.571 60.692 46.632 L 60.692 46.632 L 60.692 46.632 Q 60.749 46.694 60.84 46.694 L 60.84 46.694 L 60.84 46.694 Q 60.984 46.694 61.189 46.526 L 61.189 46.526 L 61.189 46.526 Q 61.394 46.359 61.744 45.982 L 61.744 45.982 L 61.744 45.982 Q 61.835 45.887 61.949 45.887 L 61.949 45.887 L 61.949 45.887 Q 62.048 45.887 62.105 45.969 L 62.105 45.969 L 62.105 45.969 Q 62.162 46.051 62.162 46.194 L 62.162 46.194 L 62.162 46.194 Q 62.162 46.468 62.017 46.619 L 62.017 46.619 L 62.017 46.619 Q 61.706 46.968 61.356 47.207 L 61.356 47.207 L 61.356 47.207 Q 61.007 47.447 60.68 47.447 L 60.68 47.447 L 60.68 47.447 Q 60.43 47.447 60.221 47.293 L 60.221 47.293 L 60.221 47.293 Q 60.012 47.139 59.906 46.872 L 59.906 46.872 L 59.906 46.872 Q 59.511 47.447 58.91 47.447 L 58.91 47.447 Z  M 59.184 46.756 L 59.184 46.756 Q 59.351 46.756 59.503 46.578 L 59.503 46.578 L 59.503 46.578 Q 59.655 46.4 59.723 46.106 L 59.723 46.106 L 60.004 44.846 L 60.004 44.846 Q 59.685 44.853 59.416 45.062 L 59.416 45.062 L 59.416 45.062 Q 59.146 45.271 58.986 45.613 L 58.986 45.613 L 58.986 45.613 Q 58.827 45.955 58.827 46.338 L 58.827 46.338 L 58.827 46.338 Q 58.827 46.55 58.922 46.653 L 58.922 46.653 L 58.922 46.653 Q 59.017 46.756 59.184 46.756 L 59.184 46.756 Z " fill-rule="evenodd" fill="rgb(170,129,52)"/><path d=" M 58.609 44.456 L 58.609 44.456 Q 58.783 44.456 58.863 44.525 L 58.863 44.525 L 58.863 44.525 Q 58.943 44.593 58.943 44.703 L 58.943 44.703 L 58.943 44.703 Q 58.943 44.881 58.825 45.017 L 58.825 45.017 L 58.825 45.017 Q 58.707 45.154 58.457 45.161 L 58.457 45.161 L 58.457 45.161 Q 57.849 45.175 57.378 45.079 L 57.378 45.079 L 57.378 45.079 Q 56.839 46.099 56.075 46.773 L 56.075 46.773 L 56.075 46.773 Q 55.312 47.447 54.545 47.447 L 54.545 47.447 L 54.545 47.447 Q 53.755 47.447 53.367 46.619 L 53.367 46.619 L 53.367 46.619 Q 52.98 45.791 52.98 44.381 L 52.98 44.381 L 52.98 44.381 Q 52.98 43.177 53.17 42.219 L 53.17 42.219 L 53.17 42.219 Q 53.238 41.863 53.364 41.736 L 53.364 41.736 L 53.364 41.736 Q 53.489 41.61 53.793 41.61 L 53.793 41.61 L 53.793 41.61 Q 54.294 41.61 54.294 42 L 54.294 42 L 54.294 42 Q 54.294 42.041 54.279 42.15 L 54.279 42.15 L 54.279 42.15 Q 54.051 43.382 54.051 44.381 L 54.051 44.381 L 54.051 44.381 Q 54.051 45.428 54.245 45.972 L 54.245 45.972 L 54.245 45.972 Q 54.438 46.516 54.826 46.516 L 54.826 46.516 L 54.826 46.516 Q 55.221 46.516 55.684 46.023 L 55.684 46.023 L 55.684 46.023 Q 56.148 45.531 56.535 44.785 L 56.535 44.785 L 56.535 44.785 Q 56.072 44.525 55.836 44.111 L 55.836 44.111 L 55.836 44.111 Q 55.601 43.697 55.601 43.156 L 55.601 43.156 L 55.601 43.156 Q 55.601 42.615 55.787 42.243 L 55.787 42.243 L 55.787 42.243 Q 55.973 41.87 56.296 41.685 L 56.296 41.685 L 56.296 41.685 Q 56.619 41.5 57.014 41.5 L 57.014 41.5 L 57.014 41.5 Q 57.5 41.5 57.785 41.815 L 57.785 41.815 L 57.785 41.815 Q 58.069 42.13 58.069 42.677 L 58.069 42.677 L 58.069 42.677 Q 58.069 43.464 57.69 44.395 L 57.69 44.395 L 57.69 44.395 Q 58.092 44.456 58.609 44.456 L 58.609 44.456 L 58.609 44.456 Z  M 56.368 43.108 L 56.368 43.108 Q 56.368 43.779 56.846 44.1 L 56.846 44.1 L 56.846 44.1 Q 57.143 43.334 57.143 42.834 L 57.143 42.834 L 57.143 42.834 Q 57.143 42.547 57.059 42.414 L 57.059 42.414 L 57.059 42.414 Q 56.976 42.28 56.831 42.28 L 56.831 42.28 L 56.831 42.28 Q 56.626 42.28 56.497 42.496 L 56.497 42.496 L 56.497 42.496 Q 56.368 42.711 56.368 43.108 L 56.368 43.108 L 56.368 43.108 Z " fill-rule="evenodd" fill="rgb(170,129,52)"/><path d=" M 72.896 47.447 C 72.608 47.447 72.372 47.344 72.19 47.139 C 72.015 46.934 71.924 46.667 71.924 46.331 C 71.924 45.969 72.015 45.62 72.205 45.291 C 72.395 44.97 72.646 44.703 72.957 44.504 C 73.269 44.306 73.595 44.21 73.945 44.21 C 74.059 44.21 74.134 44.23 74.172 44.265 C 74.21 44.306 74.241 44.374 74.264 44.477 C 74.362 44.456 74.469 44.449 74.583 44.449 C 74.704 44.449 74.795 44.477 74.864 44.532 C 74.932 44.586 74.963 44.662 74.963 44.764 C 74.963 44.867 74.94 45.052 74.887 45.312 C 74.833 45.592 74.788 45.852 74.757 46.106 C 74.727 46.359 74.712 46.646 74.712 46.961 C 74.712 47.132 74.674 47.255 74.598 47.33 C 74.514 47.406 74.385 47.447 74.21 47.447 C 74.036 47.447 73.914 47.406 73.823 47.33 C 73.747 47.255 73.702 47.139 73.702 46.968 L 73.709 46.858 C 73.55 47.248 73.284 47.447 72.896 47.447 Z  M 73.193 46.756 C 73.337 46.756 73.466 46.667 73.58 46.489 C 73.694 46.311 73.8 45.996 73.891 45.538 L 74.036 44.846 C 73.831 44.853 73.633 44.922 73.458 45.059 C 73.284 45.202 73.139 45.387 73.033 45.613 C 72.927 45.839 72.874 46.085 72.874 46.338 C 72.874 46.475 72.904 46.578 72.965 46.646 C 73.018 46.721 73.094 46.756 73.193 46.756 Z " fill="rgb(170,129,52)"/><path d=" M 66.272 43.777 C 66.06 43.777 65.9 43.732 65.794 43.643 C 65.687 43.554 65.634 43.43 65.634 43.27 C 65.634 43.111 65.704 42.977 65.843 42.87 C 65.982 42.763 66.156 42.709 66.363 42.709 C 66.551 42.709 66.703 42.75 66.819 42.832 C 66.936 42.914 66.994 43.031 66.994 43.181 C 66.994 43.364 66.928 43.509 66.796 43.616 C 66.665 43.723 66.49 43.777 66.272 43.777 Z " fill="rgb(170,129,52)"/></g></g><linearGradient id="_lgradient_29" x1="-7.777777588646728e-10" y1="0.4999937275201569" x2="0.9999999955740002" y2="0.4999937275201569" gradientTransform="matrix(-23.431,0,0,4.356,45.814,92.493)" gradientUnits="userSpaceOnUse"><stop offset="1.25%" stop-opacity="1" style="stop-color:rgb(136,136,136)"/><stop offset="5%" stop-opacity="1" style="stop-color:rgb(238,238,238)"/><stop offset="10%" stop-opacity="1" style="stop-color:rgb(198,198,198)"/><stop offset="50.416666666666664%" stop-opacity="1" style="stop-color:rgb(181,181,181)"/><stop offset="90.41666666666667%" stop-opacity="1" style="stop-color:rgb(202,202,202)"/><stop offset="95.41666666666667%" stop-opacity="1" style="stop-color:rgb(238,238,238)"/><stop offset="98.33333333333333%" stop-opacity="1" style="stop-color:rgb(128,128,128)"/></linearGradient><path d=" M 45.814 92.493 L 45.814 95.038 C 45.814 96.041 45.01 96.848 44.011 96.848 L 24.185 96.848 C 23.186 96.848 22.383 96.041 22.383 95.038 L 22.383 92.493 C 22.383 93.496 23.186 94.303 24.185 94.303 L 44.011 94.303 C 45.01 94.303 45.814 93.496 45.814 92.493 Z " fill="url(#_lgradient_29)"/><linearGradient id="_lgradient_30" x1="-7.777777588646728e-10" y1="0.4999937275201569" x2="0.9999999955740002" y2="0.4999937275201569" gradientTransform="matrix(-23.431,0,0,4.356,105.617,92.493)" gradientUnits="userSpaceOnUse"><stop offset="1.25%" stop-opacity="1" style="stop-color:rgb(136,136,136)"/><stop offset="5%" stop-opacity="1" style="stop-color:rgb(238,238,238)"/><stop offset="10%" stop-opacity="1" style="stop-color:rgb(198,198,198)"/><stop offset="50.416666666666664%" stop-opacity="1" style="stop-color:rgb(181,181,181)"/><stop offset="90.41666666666667%" stop-opacity="1" style="stop-color:rgb(202,202,202)"/><stop offset="95.41666666666667%" stop-opacity="1" style="stop-color:rgb(238,238,238)"/><stop offset="98.33333333333333%" stop-opacity="1" style="stop-color:rgb(128,128,128)"/></linearGradient><path d=" M 105.617 92.493 L 105.617 95.038 C 105.617 96.041 104.814 96.848 103.815 96.848 L 83.989 96.848 C 82.99 96.848 82.186 96.041 82.186 95.038 L 82.186 92.493 C 82.186 93.496 82.99 94.303 83.989 94.303 L 103.815 94.303 C 104.814 94.303 105.617 93.496 105.617 92.493 Z " fill="url(#_lgradient_30)"/><linearGradient id="_lgradient_31" x1="-7.777777588646728e-10" y1="0.4999937275201569" x2="0.9999999955740002" y2="0.4999937275201569" gradientTransform="matrix(-11.753,0,0,2.215,69.877,94.776)" gradientUnits="userSpaceOnUse"><stop offset="1.25%" stop-opacity="1" style="stop-color:rgb(136,136,136)"/><stop offset="5%" stop-opacity="1" style="stop-color:rgb(238,238,238)"/><stop offset="10%" stop-opacity="1" style="stop-color:rgb(198,198,198)"/><stop offset="50.416666666666664%" stop-opacity="1" style="stop-color:rgb(181,181,181)"/><stop offset="90.41666666666667%" stop-opacity="1" style="stop-color:rgb(202,202,202)"/><stop offset="95.41666666666667%" stop-opacity="1" style="stop-color:rgb(238,238,238)"/><stop offset="98.33333333333333%" stop-opacity="1" style="stop-color:rgb(128,128,128)"/></linearGradient><path d=" M 69.877 94.776 L 69.877 96.07 C 69.877 96.581 69.474 96.991 68.973 96.991 L 59.027 96.991 C 58.526 96.991 58.123 96.581 58.123 96.07 L 58.123 94.776 C 58.123 95.286 58.526 95.697 59.027 95.697 L 68.973 95.697 C 69.474 95.697 69.877 95.286 69.877 94.776 Z " fill="url(#_lgradient_31)"/><linearGradient id="_lgradient_32" x1="-7.777777588646728e-10" y1="0.4999937275201569" x2="0.9999999955740002" y2="0.4999937275201569" gradientTransform="matrix(-11.753,0,0,2.215,69.877,80.528)" gradientUnits="userSpaceOnUse"><stop offset="1.25%" stop-opacity="1" style="stop-color:rgb(136,136,136)"/><stop offset="5%" stop-opacity="1" style="stop-color:rgb(238,238,238)"/><stop offset="10%" stop-opacity="1" style="stop-color:rgb(198,198,198)"/><stop offset="50.416666666666664%" stop-opacity="1" style="stop-color:rgb(181,181,181)"/><stop offset="90.41666666666667%" stop-opacity="1" style="stop-color:rgb(202,202,202)"/><stop offset="95.41666666666667%" stop-opacity="1" style="stop-color:rgb(238,238,238)"/><stop offset="98.33333333333333%" stop-opacity="1" style="stop-color:rgb(128,128,128)"/></linearGradient><path d=" M 69.877 80.528 L 69.877 81.822 C 69.877 82.332 69.474 82.743 68.973 82.743 L 59.027 82.743 C 58.526 82.743 58.123 82.332 58.123 81.822 L 58.123 80.528 C 58.123 81.038 58.526 81.449 59.027 81.449 L 68.973 81.449 C 69.474 81.449 69.877 81.038 69.877 80.528 Z " fill="url(#_lgradient_32)"/><linearGradient id="_lgradient_33" x1="-7.777777588646728e-10" y1="0.4999937275201569" x2="0.9999999955740002" y2="0.4999937275201569" gradientTransform="matrix(-11.753,0,0,2.215,39.975,57.136)" gradientUnits="userSpaceOnUse"><stop offset="1.25%" stop-opacity="1" style="stop-color:rgb(136,136,136)"/><stop offset="5%" stop-opacity="1" style="stop-color:rgb(238,238,238)"/><stop offset="10%" stop-opacity="1" style="stop-color:rgb(198,198,198)"/><stop offset="50.416666666666664%" stop-opacity="1" style="stop-color:rgb(181,181,181)"/><stop offset="90.41666666666667%" stop-opacity="1" style="stop-color:rgb(202,202,202)"/><stop offset="95.41666666666667%" stop-opacity="1" style="stop-color:rgb(238,238,238)"/><stop offset="98.33333333333333%" stop-opacity="1" style="stop-color:rgb(128,128,128)"/></linearGradient><path d=" M 39.975 57.136 L 39.975 58.431 C 39.975 58.941 39.572 59.351 39.071 59.351 L 29.126 59.351 C 28.625 59.351 28.222 58.941 28.222 58.431 L 28.222 57.136 C 28.222 57.647 28.625 58.057 29.126 58.057 L 39.071 58.057 C 39.572 58.057 39.975 57.647 39.975 57.136 Z " fill="url(#_lgradient_33)"/><linearGradient id="_lgradient_34" x1="-7.777777588646728e-10" y1="0.4999937275201569" x2="0.9999999955740002" y2="0.4999937275201569" gradientTransform="matrix(-11.753,0,0,2.215,99.778,57.136)" gradientUnits="userSpaceOnUse"><stop offset="1.25%" stop-opacity="1" style="stop-color:rgb(136,136,136)"/><stop offset="5%" stop-opacity="1" style="stop-color:rgb(238,238,238)"/><stop offset="10%" stop-opacity="1" style="stop-color:rgb(198,198,198)"/><stop offset="50.416666666666664%" stop-opacity="1" style="stop-color:rgb(181,181,181)"/><stop offset="90.41666666666667%" stop-opacity="1" style="stop-color:rgb(202,202,202)"/><stop offset="95.41666666666667%" stop-opacity="1" style="stop-color:rgb(238,238,238)"/><stop offset="98.33333333333333%" stop-opacity="1" style="stop-color:rgb(128,128,128)"/></linearGradient><path d=" M 99.778 57.136 L 99.778 58.431 C 99.778 58.941 99.375 59.351 98.874 59.351 L 88.929 59.351 C 88.428 59.351 88.025 58.941 88.025 58.431 L 88.025 57.136 C 88.025 57.647 88.428 58.057 88.929 58.057 L 98.874 58.057 C 99.375 58.057 99.778 57.647 99.778 57.136 Z " fill="url(#_lgradient_34)"/><linearGradient id="_lgradient_35" x1="-7.777777588646728e-10" y1="0.4999937275201569" x2="0.9999999955740002" y2="0.4999937275201569" gradientTransform="matrix(-31.384,0,0,5.65,79.692,55.941)" gradientUnits="userSpaceOnUse"><stop offset="1%" stop-opacity="1" style="stop-color:rgb(189,143,56)"/><stop offset="5%" stop-opacity="1" style="stop-color:rgb(255,191,72)"/><stop offset="10%" stop-opacity="1" style="stop-color:rgb(189,143,56)"/><stop offset="50%" stop-opacity="1" style="stop-color:rgb(189,143,56)"/><stop offset="89.999998%" stop-opacity="1" style="stop-color:rgb(189,143,56)"/><stop offset="94.999999%" stop-opacity="1" style="stop-color:rgb(255,191,72)"/><stop offset="99.000001%" stop-opacity="1" style="stop-color:rgb(189,143,56)"/></linearGradient><path d=" M 79.692 55.941 L 79.692 59.242 C 79.692 60.544 78.616 61.591 77.278 61.591 L 50.722 61.591 C 49.384 61.591 48.308 60.544 48.308 59.242 L 48.308 55.941 C 48.308 57.242 49.384 58.289 50.722 58.289 L 77.278 58.289 C 78.616 58.289 79.692 57.242 79.692 55.941 Z " fill="url(#_lgradient_35)"/><linearGradient id="_lgradient_36" x1="0.5" y1="0" x2="0.5000000000000003" y2="1" gradientTransform="matrix(12.31,0,0,3.166,45.814,88.587)" gradientUnits="userSpaceOnUse"><stop offset="0%" stop-opacity="1" style="stop-color:rgb(235,235,235)"/><stop offset="55.00000000000001%" stop-opacity="1" style="stop-color:rgb(200,194,194)"/><stop offset="100%" stop-opacity="1" style="stop-color:rgb(104,104,104)"/></linearGradient><rect x="45.814" y="88.587" width="12.31" height="3.166" transform="matrix(1,0,0,1,0,0)" fill="url(#_lgradient_36)"/><linearGradient id="_lgradient_37" x1="0" y1="0.5" x2="1" y2="0.5" gradientTransform="matrix(12.31,0,0,3.166,45.814,88.587)" gradientUnits="userSpaceOnUse"><stop offset="1.6666666666666667%" stop-opacity="0.23" style="stop-color:rgb(0,0,0)"/><stop offset="47.5%" stop-opacity="0" style="stop-color:rgb(0,0,0)"/><stop offset="98.33333333333333%" stop-opacity="0.23" style="stop-color:rgb(0,0,0)"/></linearGradient><rect x="45.814" y="88.587" width="12.31" height="3.166" transform="matrix(1,0,0,1,0,0)" fill="url(#_lgradient_37)"/><linearGradient id="_lgradient_38" x1="0.5" y1="0" x2="0.5000000000000003" y2="1" gradientTransform="matrix(12.31,0,0,3.166,69.877,88.587)" gradientUnits="userSpaceOnUse"><stop offset="0%" stop-opacity="1" style="stop-color:rgb(235,235,235)"/><stop offset="55.00000000000001%" stop-opacity="1" style="stop-color:rgb(200,194,194)"/><stop offset="100%" stop-opacity="1" style="stop-color:rgb(104,104,104)"/></linearGradient><rect x="69.877" y="88.587" width="12.31" height="3.166" transform="matrix(1,0,0,1,0,0)" fill="url(#_lgradient_38)"/><linearGradient id="_lgradient_39" x1="0" y1="0.5" x2="1" y2="0.5" gradientTransform="matrix(12.31,0,0,3.166,69.877,88.587)" gradientUnits="userSpaceOnUse"><stop offset="1.6666666666666667%" stop-opacity="0.23" style="stop-color:rgb(0,0,0)"/><stop offset="47.5%" stop-opacity="0" style="stop-color:rgb(0,0,0)"/><stop offset="98.33333333333333%" stop-opacity="0.23" style="stop-color:rgb(0,0,0)"/></linearGradient><rect x="69.877" y="88.587" width="12.31" height="3.166" transform="matrix(1,0,0,1,0,0)" fill="url(#_lgradient_39)"/><linearGradient id="_lgradient_40" x1="0.5" y1="0" x2="0.5000000000000003" y2="1" gradientTransform="matrix(12.31,0,0,3.166,45.814,74.827)" gradientUnits="userSpaceOnUse"><stop offset="0%" stop-opacity="1" style="stop-color:rgb(235,235,235)"/><stop offset="55.00000000000001%" stop-opacity="1" style="stop-color:rgb(200,194,194)"/><stop offset="100%" stop-opacity="1" style="stop-color:rgb(104,104,104)"/></linearGradient><rect x="45.814" y="74.827" width="12.31" height="3.166" transform="matrix(1,0,0,1,0,0)" fill="url(#_lgradient_40)"/><linearGradient id="_lgradient_41" x1="0" y1="0.5" x2="1" y2="0.5" gradientTransform="matrix(12.31,0,0,3.166,45.814,74.827)" gradientUnits="userSpaceOnUse"><stop offset="1.6666666666666667%" stop-opacity="0.23" style="stop-color:rgb(0,0,0)"/><stop offset="47.5%" stop-opacity="0" style="stop-color:rgb(0,0,0)"/><stop offset="98.33333333333333%" stop-opacity="0.23" style="stop-color:rgb(0,0,0)"/></linearGradient><rect x="45.814" y="74.827" width="12.31" height="3.166" transform="matrix(1,0,0,1,0,0)" fill="url(#_lgradient_41)"/><linearGradient id="_lgradient_42" x1="0.5" y1="0" x2="0.5000000000000003" y2="1" gradientTransform="matrix(8.333,0,0,3.166,39.975,50.947)" gradientUnits="userSpaceOnUse"><stop offset="0%" stop-opacity="1" style="stop-color:rgb(235,235,235)"/><stop offset="55.00000000000001%" stop-opacity="1" style="stop-color:rgb(200,194,194)"/><stop offset="100%" stop-opacity="1" style="stop-color:rgb(104,104,104)"/></linearGradient><rect x="39.975" y="50.947" width="8.333" height="3.166" transform="matrix(1,0,0,1,0,0)" fill="url(#_lgradient_42)"/><linearGradient id="_lgradient_43" x1="0" y1="0.5" x2="1" y2="0.5" gradientTransform="matrix(8.333,0,0,3.166,39.975,50.947)" gradientUnits="userSpaceOnUse"><stop offset="1.6666666666666667%" stop-opacity="0.23" style="stop-color:rgb(0,0,0)"/><stop offset="47.5%" stop-opacity="0" style="stop-color:rgb(0,0,0)"/><stop offset="98.33333333333333%" stop-opacity="0.23" style="stop-color:rgb(0,0,0)"/></linearGradient><rect x="39.975" y="50.947" width="8.333" height="3.166" transform="matrix(1,0,0,1,0,0)" fill="url(#_lgradient_43)"/><linearGradient id="_lgradient_44" x1="0.5" y1="0" x2="0.5000000000000003" y2="1" gradientTransform="matrix(8.333,0,0,3.166,79.692,50.947)" gradientUnits="userSpaceOnUse"><stop offset="0%" stop-opacity="1" style="stop-color:rgb(235,235,235)"/><stop offset="55.00000000000001%" stop-opacity="1" style="stop-color:rgb(200,194,194)"/><stop offset="100%" stop-opacity="1" style="stop-color:rgb(104,104,104)"/></linearGradient><rect x="79.692" y="50.947" width="8.333" height="3.166" transform="matrix(1,0,0,1,0,0)" fill="url(#_lgradient_44)"/><linearGradient id="_lgradient_45" x1="0" y1="0.5" x2="1" y2="0.5" gradientTransform="matrix(8.333,0,0,3.166,79.692,50.947)" gradientUnits="userSpaceOnUse"><stop offset="1.6666666666666667%" stop-opacity="0.23" style="stop-color:rgb(0,0,0)"/><stop offset="47.5%" stop-opacity="0" style="stop-color:rgb(0,0,0)"/><stop offset="98.33333333333333%" stop-opacity="0.23" style="stop-color:rgb(0,0,0)"/></linearGradient><rect x="79.692" y="50.947" width="8.333" height="3.166" transform="matrix(1,0,0,1,0,0)" fill="url(#_lgradient_45)"/><linearGradient id="_lgradient_46" x1="0.5" y1="0" x2="0.5000000000000003" y2="1" gradientTransform="matrix(12.31,0,0,3.166,27.943,63.923)" gradientUnits="userSpaceOnUse"><stop offset="0%" stop-opacity="1" style="stop-color:rgb(235,235,235)"/><stop offset="55.00000000000001%" stop-opacity="1" style="stop-color:rgb(200,194,194)"/><stop offset="100%" stop-opacity="1" style="stop-color:rgb(104,104,104)"/></linearGradient><rect x="27.943" y="63.923" width="12.31" height="3.166" transform="matrix(0,-1,1,0,-31.408,99.604)" fill="url(#_lgradient_46)"/><linearGradient id="_lgradient_47" x1="0" y1="0.5" x2="1" y2="0.5" gradientTransform="matrix(12.31,0,0,3.166,27.943,63.923)" gradientUnits="userSpaceOnUse"><stop offset="1.6666666666666667%" stop-opacity="0.23" style="stop-color:rgb(0,0,0)"/><stop offset="47.5%" stop-opacity="0" style="stop-color:rgb(0,0,0)"/><stop offset="98.33333333333333%" stop-opacity="0.23" style="stop-color:rgb(0,0,0)"/></linearGradient><rect x="27.943" y="63.923" width="12.31" height="3.166" transform="matrix(0,-1,1,0,-31.408,99.604)" fill="url(#_lgradient_47)"/><linearGradient id="_lgradient_48" x1="0.5" y1="0" x2="0.5000000000000003" y2="1" gradientTransform="matrix(12.31,0,0,3.166,87.747,63.923)" gradientUnits="userSpaceOnUse"><stop offset="0%" stop-opacity="1" style="stop-color:rgb(235,235,235)"/><stop offset="55.00000000000001%" stop-opacity="1" style="stop-color:rgb(200,194,194)"/><stop offset="100%" stop-opacity="1" style="stop-color:rgb(104,104,104)"/></linearGradient><rect x="87.747" y="63.923" width="12.31" height="3.166" transform="matrix(0,-1,1,0,28.396,159.408)" fill="url(#_lgradient_48)"/><linearGradient id="_lgradient_49" x1="0" y1="0.5" x2="1" y2="0.5" gradientTransform="matrix(12.31,0,0,3.166,87.747,63.923)" gradientUnits="userSpaceOnUse"><stop offset="1.6666666666666667%" stop-opacity="0.23" style="stop-color:rgb(0,0,0)"/><stop offset="47.5%" stop-opacity="0" style="stop-color:rgb(0,0,0)"/><stop offset="98.33333333333333%" stop-opacity="0.23" style="stop-color:rgb(0,0,0)"/></linearGradient><rect x="87.747" y="63.923" width="12.31" height="3.166" transform="matrix(0,-1,1,0,28.396,159.408)" fill="url(#_lgradient_49)"/><linearGradient id="_lgradient_50" x1="0.5" y1="0" x2="0.5000000000000003" y2="1" gradientTransform="matrix(12.31,0,0,3.166,69.877,74.827)" gradientUnits="userSpaceOnUse"><stop offset="0%" stop-opacity="1" style="stop-color:rgb(235,235,235)"/><stop offset="55.00000000000001%" stop-opacity="1" style="stop-color:rgb(200,194,194)"/><stop offset="100%" stop-opacity="1" style="stop-color:rgb(104,104,104)"/></linearGradient><rect x="69.877" y="74.827" width="12.31" height="3.166" transform="matrix(1,0,0,1,0,0)" fill="url(#_lgradient_50)"/><linearGradient id="_lgradient_51" x1="0" y1="0.5" x2="1" y2="0.5" gradientTransform="matrix(12.31,0,0,3.166,69.877,74.827)" gradientUnits="userSpaceOnUse"><stop offset="1.6666666666666667%" stop-opacity="0.23" style="stop-color:rgb(0,0,0)"/><stop offset="47.5%" stop-opacity="0" style="stop-color:rgb(0,0,0)"/><stop offset="98.33333333333333%" stop-opacity="0.23" style="stop-color:rgb(0,0,0)"/></linearGradient><rect x="69.877" y="74.827" width="12.31" height="3.166" transform="matrix(1,0,0,1,0,0)" fill="url(#_lgradient_51)"/></g></svg>