
<svg xmlns="http://www.w3.org/2000/svg" id="logo" viewBox="0 0 1000 654.51056" version="1.1" width="1000" height="654.51056">
  
  <defs id="defs71"></defs>
  
  <g id="g66" transform="matrix(0.9596929,0,0,0.9596929,0,1.4643762e-5)">
    <path d="m 359.25,358 v 72 53.54 72 54.46 72 h 72 252 v -72 h -252 v -54.46 h 197.92 v -72 H 431.25 V 430 h 252 v -72 h -252 z" id="path56"></path>
    <path d="M 916,358 H 844 718 v 72 h 126 v 252 h 72 V 430 h 126 v -72 z" id="path58"></path>
    <path d="M 324,252 H 11.87 L 324,143.91 V 72 67.72 0 H 0 V 72 H 311.64 L 0,179.91 V 252 256.11 324 h 324 z" id="path60"></path>
    <path d="M 252.5,670.13 144.41,358 H 72.5 68.22 0.5 v 324 h 72 V 370.36 L 180.41,682 h 72.09 4.11 67.89 V 358 h -72 z" id="path62"></path>
    <path d="m 682.75,162.2 v -0.37 C 682.75,72.6 610.16,-1.52588e-5 520.92,-1.52588e-5 H 358.75 V 324 h 162.21 c 89.21,0 161.79,-72.58 161.79,-161.8 z M 430.75,72 h 90.17 c 23.816,0.0265 46.65,9.4991 63.49,26.3398 16.841,16.8402 26.314,39.6742 26.34,63.4902 v 0.37 c -0.024,23.807 -9.491,46.633 -26.325,63.468 -16.833,16.836 -39.658,26.306 -63.465,26.332 h -90.21 z" id="path64"></path>
  </g>
</svg>
