<?xml version="1.0" encoding="UTF-8" standalone="no"?><!-- Generator: Gravit.io --><svg xmlns="http://www.w3.org/2000/svg" xmlns:xlink="http://www.w3.org/1999/xlink" style="isolation:isolate" viewBox="0 0 276 276" width="276pt" height="276pt"><defs><clipPath id="_clipPath_6FMvGH1S98kdWvjW943fQuu6hZxw9UJ2"><rect x="0" y="0" width="276" height="276"/></clipPath></defs><g clip-path="url(#_clipPath_6FMvGH1S98kdWvjW943fQuu6hZxw9UJ2)"><g><path d=" M 43.7 107.333 L 54.987 88.934 L 32.413 88.934 L 43.7 107.333 L 43.7 107.333 Z " fill="rgb(240,240,240)"/><path d=" M 77.433 107.333 L 88.721 88.934 L 66.146 88.934 L 77.433 107.333 L 77.433 107.333 Z " fill="rgb(240,240,240)"/><path d=" M 111.167 107.333 L 122.454 88.934 L 99.88 88.934 L 111.167 107.333 L 111.167 107.333 Z " fill="rgb(240,240,240)"/><path d=" M 178.633 107.333 L 189.921 88.934 L 167.346 88.934 L 178.633 107.333 L 178.633 107.333 Z " fill="rgb(240,240,240)"/><path d=" M 60.567 95.066 L 71.854 113.466 L 49.28 113.466 L 60.567 95.066 L 60.567 95.066 Z " fill="rgb(240,240,240)"/><path d=" M 26.833 95.066 L 38.121 113.466 L 15.546 113.466 L 26.833 95.066 L 26.833 95.066 Z " fill="rgb(240,240,240)"/><path d=" M 94.3 95.066 L 105.587 113.466 L 83.013 113.466 L 94.3 95.066 L 94.3 95.066 Z " fill="rgb(240,240,240)"/><path d=" M 128.033 95.066 L 139.321 113.466 L 116.746 113.466 L 128.033 95.066 L 128.033 95.066 Z " fill="rgb(240,240,240)"/><path d=" M 161.767 95.066 L 173.054 113.466 L 150.48 113.466 L 161.767 95.066 L 161.767 95.066 Z " fill="rgb(240,240,240)"/><path d=" M 195.5 95.066 L 206.787 113.466 L 184.213 113.466 L 195.5 95.066 L 195.5 95.066 Z " fill="rgb(240,240,240)"/><path d=" M 43.7 138 L 54.987 119.6 L 32.413 119.6 L 43.7 138 L 43.7 138 Z " fill="rgb(240,240,240)"/><path d=" M 77.433 138 L 88.721 119.6 L 66.146 119.6 L 77.433 138 L 77.433 138 Z " fill="rgb(240,240,240)"/><path d=" M 111.167 138 L 122.454 119.6 L 99.88 119.6 L 111.167 138 L 111.167 138 Z " fill="rgb(240,240,240)"/><path d=" M 144.9 138 L 156.187 119.6 L 133.613 119.6 L 144.9 138 L 144.9 138 Z " fill="rgb(240,240,240)"/><path d=" M 178.633 138 L 189.921 119.6 L 167.346 119.6 L 178.633 138 L 178.633 138 Z " fill="rgb(240,240,240)"/><path d=" M 60.567 125.733 L 71.854 144.133 L 49.28 144.133 L 60.567 125.733 L 60.567 125.733 Z " fill="rgb(240,240,240)"/><path d=" M 26.833 125.733 L 38.121 144.133 L 15.546 144.133 L 26.833 125.733 L 26.833 125.733 Z " fill="rgb(240,240,240)"/><path d=" M 94.3 125.733 L 105.587 144.133 L 83.013 144.133 L 94.3 125.733 L 94.3 125.733 Z " fill="rgb(240,240,240)"/><path d=" M 128.033 125.733 L 139.321 144.133 L 116.746 144.133 L 128.033 125.733 L 128.033 125.733 Z " fill="rgb(240,240,240)"/><path d=" M 161.767 125.733 L 173.054 144.133 L 150.48 144.133 L 161.767 125.733 L 161.767 125.733 Z " fill="rgb(240,240,240)"/><path d=" M 195.5 125.733 L 206.787 144.133 L 184.213 144.133 L 195.5 125.733 L 195.5 125.733 Z " fill="rgb(240,240,240)"/><path d=" M 43.7 168.667 L 54.987 150.267 L 32.413 150.267 L 43.7 168.667 L 43.7 168.667 Z " fill="rgb(240,240,240)"/><path d=" M 77.433 168.667 L 88.721 150.267 L 66.146 150.267 L 77.433 168.667 L 77.433 168.667 Z " fill="rgb(240,240,240)"/><path d=" M 111.167 168.667 L 122.454 150.267 L 99.88 150.267 L 111.167 168.667 L 111.167 168.667 Z " fill="rgb(240,240,240)"/><path d=" M 144.9 168.667 L 156.187 150.267 L 133.613 150.267 L 144.9 168.667 L 144.9 168.667 Z " fill="rgb(240,240,240)"/><path d=" M 178.633 168.667 L 189.921 150.267 L 167.346 150.267 L 178.633 168.667 L 178.633 168.667 Z " fill="rgb(240,240,240)"/><path d=" M 60.567 156.4 L 71.854 174.8 L 49.28 174.8 L 60.567 156.4 L 60.567 156.4 Z " fill="rgb(240,240,240)"/><path d=" M 94.3 156.4 L 105.587 174.8 L 83.013 174.8 L 94.3 156.4 L 94.3 156.4 Z " fill="rgb(240,240,240)"/><path d=" M 128.033 156.4 L 139.321 174.8 L 116.746 174.8 L 128.033 156.4 L 128.033 156.4 Z " fill="rgb(240,240,240)"/><path d=" M 161.767 156.4 L 173.054 174.8 L 150.48 174.8 L 161.767 156.4 L 161.767 156.4 Z " fill="rgb(240,240,240)"/><path d=" M 195.5 156.4 L 206.787 174.8 L 184.213 174.8 L 195.5 156.4 L 195.5 156.4 Z " fill="rgb(240,240,240)"/><path d=" M 77.433 199.333 L 88.721 180.933 L 66.146 180.933 L 77.433 199.333 L 77.433 199.333 Z " fill="rgb(240,240,240)"/><path d=" M 111.167 199.333 L 122.454 180.933 L 99.88 180.933 L 111.167 199.333 L 111.167 199.333 Z " fill="rgb(240,240,240)"/><path d=" M 144.9 199.333 L 156.187 180.933 L 133.613 180.933 L 144.9 199.333 L 144.9 199.333 Z " fill="rgb(240,240,240)"/><path d=" M 178.633 199.333 L 189.921 180.933 L 167.346 180.933 L 178.633 199.333 L 178.633 199.333 Z " fill="rgb(240,240,240)"/><path d=" M 94.3 187.066 L 105.587 205.466 L 83.013 205.466 L 94.3 187.066 L 94.3 187.066 Z " fill="rgb(240,240,240)"/><path d=" M 128.033 187.066 L 139.321 205.466 L 116.746 205.466 L 128.033 187.066 L 128.033 187.066 Z " fill="rgb(240,240,240)"/><path d=" M 161.767 187.066 L 173.054 205.466 L 150.48 205.466 L 161.767 187.066 L 161.767 187.066 Z " fill="rgb(240,240,240)"/><path d=" M 195.5 187.066 L 206.787 205.466 L 184.213 205.466 L 195.5 187.066 L 195.5 187.066 Z " fill="rgb(240,240,240)"/><path d=" M 111.167 230 L 122.454 211.6 L 99.88 211.6 L 111.167 230 L 111.167 230 Z " fill="rgb(240,240,240)"/><path d=" M 144.9 230 L 156.187 211.6 L 133.613 211.6 L 144.9 230 L 144.9 230 Z " fill="rgb(240,240,240)"/><path d=" M 144.9 260.667 L 156.187 242.267 L 133.613 242.267 L 144.9 260.667 L 144.9 260.667 Z " fill="rgb(240,240,240)"/><path d=" M 178.633 230 L 189.921 211.6 L 167.346 211.6 L 178.633 230 L 178.633 230 Z " fill="rgb(240,240,240)"/><path d=" M 128.033 217.733 L 139.321 236.133 L 116.746 236.133 L 128.033 217.733 L 128.033 217.733 Z " fill="rgb(240,240,240)"/><path d=" M 161.767 217.733 L 173.054 236.133 L 150.48 236.133 L 161.767 217.733 L 161.767 217.733 Z " fill="rgb(240,240,240)"/><path d=" M 77.433 76.667 L 88.721 58.267 L 66.146 58.267 L 77.433 76.667 L 77.433 76.667 Z " fill="rgb(240,240,240)"/><path d=" M 111.167 76.667 L 122.454 58.267 L 99.88 58.267 L 111.167 76.667 L 111.167 76.667 Z " fill="rgb(240,240,240)"/><path d=" M 178.633 76.667 L 189.921 58.267 L 167.346 58.267 L 178.633 76.667 L 178.633 76.667 Z " fill="rgb(240,240,240)"/><path d=" M 60.567 64.4 L 71.854 82.8 L 49.28 82.8 L 60.567 64.4 L 60.567 64.4 Z " fill="rgb(240,240,240)"/><path d=" M 94.3 64.4 L 105.587 82.8 L 83.013 82.8 L 94.3 64.4 L 94.3 64.4 Z " fill="rgb(240,240,240)"/><path d=" M 195.5 64.4 L 206.787 82.8 L 184.213 82.8 L 195.5 64.4 L 195.5 64.4 Z " fill="rgb(240,240,240)"/><path d=" M 212.367 107.333 L 223.654 88.934 L 201.08 88.934 L 212.367 107.333 L 212.367 107.333 Z " fill="rgb(240,240,240)"/><path d=" M 229.233 95.066 L 240.521 113.466 L 217.946 113.466 L 229.233 95.066 L 229.233 95.066 Z " fill="rgb(240,240,240)"/><path d=" M 212.367 138 L 223.654 119.6 L 201.08 119.6 L 212.367 138 L 212.367 138 Z " fill="rgb(240,240,240)"/><path d=" M 229.233 125.733 L 240.521 144.133 L 217.946 144.133 L 229.233 125.733 L 229.233 125.733 Z " fill="rgb(240,240,240)"/><path d=" M 212.367 168.667 L 223.654 150.267 L 201.08 150.267 L 212.367 168.667 L 212.367 168.667 Z " fill="rgb(240,240,240)"/><path d=" M 229.233 156.4 L 240.521 174.8 L 217.946 174.8 L 229.233 156.4 L 229.233 156.4 Z " fill="rgb(240,240,240)"/><path d=" M 212.367 199.333 L 223.654 180.933 L 201.08 180.933 L 212.367 199.333 L 212.367 199.333 Z " fill="rgb(240,240,240)"/><path d=" M 212.367 76.667 L 223.654 58.267 L 201.08 58.267 L 212.367 76.667 L 212.367 76.667 Z " fill="rgb(240,240,240)"/><path d=" M 229.233 64.4 L 240.521 82.8 L 217.946 82.8 L 229.233 64.4 L 229.233 64.4 Z " fill="rgb(240,240,240)"/><path d=" M 246.1 107.333 L 257.387 88.934 L 234.813 88.934 L 246.1 107.333 L 246.1 107.333 Z " fill="rgb(240,240,240)"/><path d=" M 262.967 95.066 L 274.254 113.466 L 251.679 113.466 L 262.967 95.066 L 262.967 95.066 Z " fill="rgb(240,240,240)"/><path d=" M 246.1 138 L 257.387 119.6 L 234.813 119.6 L 246.1 138 L 246.1 138 Z " fill="rgb(240,240,240)"/><path d=" M 262.967 125.733 L 274.254 144.133 L 251.679 144.133 L 262.967 125.733 L 262.967 125.733 Z " fill="rgb(240,240,240)"/><path d=" M 246.1 168.667 L 257.387 150.267 L 234.813 150.267 L 246.1 168.667 L 246.1 168.667 Z " fill="rgb(240,240,240)"/><radialGradient id="_rgradient_0" fx="0.49999999999999994" fy="0.49999999999999994" cx="0.49999999999999994" cy="0.49999999999999994" r="1" gradientTransform="matrix(276,0,0,276,0,0)" gradientUnits="userSpaceOnUse"><stop offset="43.2292%" stop-opacity="0" style="stop-color:rgb(255,255,255)"/><stop offset="99.99%" stop-opacity="1" style="stop-color:rgb(255,255,255)"/></radialGradient><circle vector-effect="non-scaling-stroke" cx="138" cy="138" r="138" fill="url(#_rgradient_0)"/></g></g></svg>