<svg width="815" height="397" viewBox="0 0 815 397" fill="none" xmlns="http://www.w3.org/2000/svg">
<g clip-path="url(#clip0_11_283)">
<g clip-path="url(#clip1_11_283)">
<path d="M238.03 242.248C265.924 246.218 281.944 256.306 285.357 259.982C288.77 263.658 300.228 277.516 305.87 296.035C308.897 305.968 311.28 318.568 313.022 333.835C305.555 332.261 297.877 331.635 289.988 331.958C264.521 333.002 242.018 330.154 226.65 312.277C216.404 300.359 206.986 277.468 198.394 243.605C213.499 241.09 226.711 240.637 238.03 242.248Z" fill="#FBBD4E"/>
<mask id="mask0_11_283" style="mask-type:luminance" maskUnits="userSpaceOnUse" x="198" y="241" width="116" height="93">
<path d="M238.034 242.256C265.931 246.222 281.951 256.306 285.364 259.981C288.777 263.657 300.234 277.511 305.874 296.027C308.899 305.959 311.282 318.557 313.022 333.822C305.554 332.249 297.875 331.624 289.986 331.949C264.516 332.995 242.011 330.15 226.643 312.278C216.399 300.363 206.982 277.476 198.394 243.618C213.501 241.1 226.714 240.646 238.034 242.256Z" fill="white"/>
</mask>
<g mask="url(#mask0_11_283)">
<path d="M288.801 313.838C252.818 289.209 242.061 275.358 208.038 243.438" stroke="#FDDC71" stroke-width="14.0031" stroke-miterlimit="1" stroke-linecap="round"/>
</g>
<path d="M221.172 209.165C235.167 184.679 250.452 173.492 255.127 171.671C259.801 169.85 276.9 164.294 296.178 165.866C306.518 166.709 319.097 169.132 333.915 173.134C329.694 179.5 326.276 186.412 323.661 193.869C315.218 217.943 304.259 237.828 281.983 245.54C267.132 250.682 242.4 251.013 207.786 246.535C211.032 231.557 215.494 219.101 221.172 209.165Z" fill="#FBBD4E"/>
<mask id="mask1_11_283" style="mask-type:luminance" maskUnits="userSpaceOnUse" x="207" y="165" width="127" height="85">
<path d="M221.169 209.175C235.169 184.691 250.457 173.503 255.132 171.682C259.807 169.86 276.908 164.303 296.187 165.871C306.528 166.712 319.107 169.132 333.925 173.13C329.703 179.496 326.283 186.407 323.666 193.863C315.219 217.934 304.255 237.817 281.977 245.531C267.124 250.675 242.39 251.011 207.776 246.54C211.025 231.564 215.489 219.11 221.169 209.175Z" fill="white"/>
</mask>
<g mask="url(#mask1_11_283)">
<path d="M208.021 243.409C239.985 221.609 263.119 205.27 302.929 187.273" stroke="#FDDC71" stroke-width="14.0031" stroke-miterlimit="1" stroke-linecap="round"/>
</g>
<path d="M182.393 214.203C168.229 189.827 166.217 170.985 166.986 166.023C167.756 161.061 171.526 143.463 182.556 127.542C188.472 119.003 196.876 109.313 207.771 98.4731C211.162 105.315 215.427 111.735 220.566 117.731C237.159 137.09 248.865 156.534 244.364 179.697C241.364 195.139 229.245 216.739 208.009 244.497C196.679 234.192 188.14 224.095 182.393 214.203Z" fill="#FBBD4E"/>
<mask id="mask2_11_283" style="mask-type:luminance" maskUnits="userSpaceOnUse" x="166" y="98" width="80" height="147">
<path d="M182.381 214.205C168.218 189.833 166.209 170.992 166.979 166.03C167.75 161.069 171.524 143.471 182.559 127.549C188.477 119.009 196.886 109.318 207.785 98.4765C211.175 105.318 215.44 111.736 220.579 117.731C237.172 137.086 248.876 156.527 244.37 179.689C241.367 195.132 229.242 216.732 207.996 244.492C196.666 234.19 188.127 224.095 182.381 214.205Z" fill="white"/>
</mask>
<g mask="url(#mask2_11_283)">
<path d="M208.081 243.411C203.678 205.668 200.641 169.438 204.898 130.815" stroke="#FDDC71" stroke-width="14.0031" stroke-miterlimit="1" stroke-linecap="round"/>
</g>
<path d="M168.762 253.352C140.584 253.435 123.283 245.757 119.378 242.61C115.474 239.464 102.147 227.399 93.9103 209.886C89.4917 200.492 85.3271 188.367 81.4165 173.511C89.0327 173.995 96.7216 173.51 104.483 172.055C129.54 167.36 152.221 166.941 169.993 182.421C181.841 192.74 194.442 214.036 207.797 246.308C193.207 250.97 180.195 253.318 168.762 253.352Z" fill="#FBBD4E"/>
<mask id="mask3_11_283" style="mask-type:luminance" maskUnits="userSpaceOnUse" x="81" y="169" width="127" height="85">
<path d="M168.756 253.343C140.575 253.431 123.273 245.758 119.369 242.612C115.464 239.467 102.139 227.406 93.9046 209.897C89.4873 200.505 85.3246 188.383 81.4165 173.529C89.0335 174.012 96.7234 173.525 104.486 172.069C129.547 167.37 152.231 166.947 170.002 182.42C181.848 192.736 194.447 214.026 207.797 246.291C193.204 250.956 180.191 253.306 168.756 253.343Z" fill="white"/>
</mask>
<g mask="url(#mask3_11_283)">
<path d="M109.358 191.292C141.935 212.513 170.018 229.157 206.808 243.368" stroke="#FDDC71" stroke-width="14.0031" stroke-miterlimit="1" stroke-linecap="round"/>
</g>
<path d="M203.795 284.912C191.636 310.362 177.212 322.645 172.684 324.805C168.156 326.965 151.51 333.765 132.168 333.617C121.793 333.538 109.07 332.048 93.9982 329.149C97.7405 322.49 100.642 315.345 102.703 307.716C109.355 283.086 118.825 262.449 140.476 253.117C154.91 246.895 179.552 244.743 214.401 246.66C212.264 261.835 208.729 274.586 203.795 284.912Z" fill="#FBBD4E"/>
<mask id="mask4_11_283" style="mask-type:luminance" maskUnits="userSpaceOnUse" x="93" y="245" width="122" height="89">
<path d="M203.797 284.905C191.634 310.353 177.208 322.636 172.679 324.797C168.151 326.957 151.503 333.758 132.16 333.614C121.785 333.537 109.062 332.049 93.9899 329.153C97.7334 322.493 100.636 315.349 102.698 307.721C109.355 283.094 118.828 262.459 140.481 253.124C154.916 246.901 179.559 244.746 214.41 246.657C212.27 261.83 208.733 274.579 203.797 284.905Z" fill="white"/>
</mask>
<g mask="url(#mask4_11_283)">
<path d="M120.927 313.071C157.833 291.867 178.149 272.601 208.06 243.409" stroke="#FDDC71" stroke-width="14.0031" stroke-miterlimit="1" stroke-linecap="round"/>
</g>
<path d="M243.94 239.519C244.224 246.298 234.144 246.769 234.073 255.049C234.011 262.245 232.596 268.577 226.874 272.218C221.151 275.859 213.807 272.027 207.34 272.305C200.874 272.582 196.07 276.933 190.063 273.795C184.056 270.657 183.974 265.633 180.505 260.166C177.036 254.699 170.318 250.712 170.034 243.934C169.75 237.155 176.491 233.912 179.49 228.167C182.488 222.423 181.662 213.616 187.385 209.975C193.108 206.335 199.356 210.741 205.824 210.464C212.29 210.186 219.335 205.643 225.341 208.781C231.349 211.919 230.302 219.962 233.771 225.43C237.24 230.897 243.655 232.74 243.94 239.519Z" fill="#FDDC71"/>
<path d="M232.408 255.583C229.588 261.082 219.894 255.603 216.743 260.195C213.523 264.888 213.09 270.591 207.218 270.264C201.866 269.965 203.5 260.428 199.06 257.884C194.618 255.339 184.743 261.727 182.251 255.902C179.658 249.841 190.188 249.662 190.045 243.043C189.902 236.423 178.358 232.71 181.025 228.053C183.69 223.396 193.364 228.399 197.79 225.821C202.216 223.241 202.843 212.016 208.204 211.996C213.564 211.975 212.317 223.415 216.757 225.96C221.198 228.505 231.58 222.846 234.275 227.483C236.969 232.12 222.768 235.933 222.784 241.058C222.799 246.182 234.856 250.807 232.408 255.583Z" fill="#FEEED1"/>
</g>
<g filter="url(#filter0_d_11_283)">
<path d="M608.026 100.508C578.26 115.224 536.39 162.592 607.041 234.334C608.832 221.983 611.658 207.612 614.771 193.36C622.579 157.609 632.195 122.609 631.807 122.128C625.898 114.787 618.084 107.536 608.026 100.508Z" fill="url(#paint0_linear_11_283)"/>
<path fill-rule="evenodd" clip-rule="evenodd" d="M631.808 122.134C632.109 122.507 632.696 123.255 632.696 123.255C632.696 123.255 616.15 210.035 607.043 234.337C604.713 231.467 601.272 227.524 597.884 220.902C593.12 211.593 584.67 186.636 593.399 160.574C601.72 135.727 617.816 125.951 631.808 122.134Z" fill="#FFFB64"/>
<path fill-rule="evenodd" clip-rule="evenodd" d="M632.695 123.257C666.088 166.197 635.039 212 607.043 234.338C594.907 221.33 584.195 192.034 594.729 161.072C603.169 136.262 618.832 127.399 632.695 123.257Z" fill="url(#paint1_linear_11_283)"/>
<path d="M730.151 182.237C704.911 160.695 644.957 140.96 607.061 234.364C619.092 231.116 633.384 228.02 647.68 225.235C683.54 218.249 719.426 213.222 719.714 212.675C724.113 204.331 727.677 194.272 730.151 182.237Z" fill="url(#paint2_linear_11_283)"/>
<path fill-rule="evenodd" clip-rule="evenodd" d="M719.721 212.673C719.498 213.098 719.043 213.934 719.043 213.934C719.043 213.934 632.943 233.108 607.065 234.363C608.778 231.083 611.035 226.355 615.769 220.615C622.425 212.545 641.974 194.883 669.316 192.582C695.382 190.388 710.699 201.318 719.721 212.673Z" fill="#FFFB64"/>
<path fill-rule="evenodd" clip-rule="evenodd" d="M719.044 213.934C692.85 261.665 638.597 251.26 607.064 234.363C614.202 218.047 636.837 196.584 669.385 194.002C695.466 191.933 709.774 202.826 719.044 213.934Z" fill="url(#paint3_linear_11_283)"/>
<path d="M516.455 332.695C548.342 341.877 611.105 335.06 607.064 234.338C597.445 242.27 585.704 250.998 573.831 259.444C544.048 280.632 513.433 300.046 513.397 300.664C512.834 310.08 513.741 320.713 516.455 332.695Z" fill="url(#paint4_linear_11_283)"/>
<path fill-rule="evenodd" clip-rule="evenodd" d="M513.397 300.664C513.426 300.185 513.494 299.236 513.494 299.236C513.494 299.236 584.01 246.18 607.064 234.339C606.858 238.034 606.754 243.272 604.811 250.456C602.08 260.557 591.564 284.721 567.608 298.12C544.769 310.894 526.304 307.274 513.397 300.664Z" fill="#FFFB64"/>
<path fill-rule="evenodd" clip-rule="evenodd" d="M513.496 299.236C517.651 244.945 571.366 231.99 607.065 234.339C607.3 252.147 595.542 281.048 566.959 296.855C544.057 309.522 526.526 305.518 513.496 299.236Z" fill="url(#paint5_linear_11_283)"/>
<path d="M695.418 334.73C707.815 303.9 707.503 240.659 607.072 234.34C613.958 244.739 621.417 257.335 628.583 270.034C646.558 301.888 662.687 334.388 663.296 334.488C672.589 336.016 683.241 336.205 695.418 334.73Z" fill="url(#paint6_linear_11_283)"/>
<path fill-rule="evenodd" clip-rule="evenodd" d="M663.297 334.486C662.824 334.409 661.889 334.243 661.889 334.243C661.889 334.243 616.459 258.528 607.073 234.339C610.721 234.924 615.912 235.565 622.845 238.239C632.594 241.998 655.507 254.959 666.348 280.207C676.682 304.276 671.188 322.304 663.297 334.486Z" fill="#FFFB64"/>
<path fill-rule="evenodd" clip-rule="evenodd" d="M661.887 334.243C608.405 324.526 601.067 269.67 607.072 234.339C624.779 235.935 652.267 250.62 665.024 280.725C675.245 304.847 669.466 321.905 661.887 334.243Z" fill="url(#paint7_linear_11_283)"/>
<path d="M484.732 180.458C486.44 213.629 513.304 270.845 607.092 234.348C596.472 227.813 584.41 219.527 572.57 211.025C542.871 189.697 514.576 167.007 513.981 167.172C504.907 169.694 495.162 174.002 484.732 180.458Z" fill="url(#paint8_linear_11_283)"/>
<path fill-rule="evenodd" clip-rule="evenodd" d="M513.979 167.16C514.441 167.031 515.36 166.789 515.36 166.789C515.36 166.789 588.409 216.351 607.094 234.341C603.538 235.344 598.558 236.945 591.142 237.436C580.715 238.126 554.476 236.007 534.026 217.668C514.531 200.185 511.938 181.526 513.979 167.16Z" fill="#FFFB64"/>
<path fill-rule="evenodd" clip-rule="evenodd" d="M515.357 166.786C567.975 153.109 597.691 199.773 607.093 234.34C590.353 240.339 559.236 238.58 535.006 216.642C515.592 199.063 513.666 181.163 515.357 166.786Z" fill="url(#paint9_linear_11_283)"/>
</g>
<path d="M174.562 66.1624L181.982 58.323C182.736 57.5488 183.325 56.881 183.751 56.3196C184.176 55.7389 184.475 55.2066 184.649 54.7227C184.842 54.2388 184.939 53.7355 184.939 53.2129C184.939 52.187 184.61 51.3837 183.953 50.803C183.296 50.2223 182.446 49.932 181.403 49.932C180.379 49.932 179.48 50.1836 178.707 50.6869C177.934 51.1708 177.248 51.9257 176.649 52.9516L174.736 51.3547C175.528 50.0385 176.485 49.0513 177.606 48.3932C178.726 47.7157 180.021 47.377 181.49 47.377C182.726 47.377 183.799 47.6189 184.707 48.1028C185.635 48.5867 186.35 49.2642 186.852 50.1352C187.354 51.0063 187.606 52.0225 187.606 53.1839C187.606 54.0162 187.499 54.7614 187.287 55.4195C187.094 56.0777 186.736 56.7551 186.214 57.452C185.712 58.1294 185.007 58.9424 184.098 59.8909L178.098 66.0753L174.562 66.1624ZM174.562 67.8173V66.1624L176.881 65.3784H188.069V67.8173H174.562Z" fill="#7C7C7C"/>
<path d="M198.852 68.1077C197.345 68.1077 195.963 67.6818 194.707 66.8302C193.471 65.9785 192.485 64.7784 191.751 63.2299C191.017 61.662 190.649 59.8231 190.649 57.7133C190.649 55.6034 191.007 53.7742 191.722 52.2257C192.456 50.6772 193.442 49.4868 194.678 48.6545C195.915 47.8028 197.277 47.377 198.765 47.377C200.292 47.377 201.674 47.8028 202.91 48.6545C204.147 49.4868 205.123 50.6772 205.838 52.2257C206.572 53.7742 206.939 55.6131 206.939 57.7423C206.939 59.8522 206.572 61.691 205.838 63.2589C205.123 64.8074 204.147 66.0075 202.91 66.8592C201.693 67.6915 200.34 68.1077 198.852 68.1077ZM198.794 65.5236C199.857 65.5236 200.785 65.2332 201.577 64.6526C202.388 64.0525 203.026 63.1718 203.49 62.0104C203.954 60.849 204.186 59.4166 204.186 57.7133C204.186 56.0099 203.954 54.5872 203.49 53.4452C203.026 52.2838 202.388 51.4128 201.577 50.8321C200.765 50.232 199.828 49.932 198.765 49.932C197.722 49.932 196.794 50.232 195.983 50.8321C195.171 51.4128 194.533 52.2838 194.07 53.4452C193.625 54.5872 193.403 56.0099 193.403 57.7133C193.403 59.4166 193.625 60.849 194.07 62.0104C194.533 63.1718 195.171 64.0525 195.983 64.6526C196.794 65.2332 197.732 65.5236 198.794 65.5236Z" fill="#7C7C7C"/>
<path d="M209.209 66.1624L216.629 58.323C217.382 57.5488 217.972 56.881 218.397 56.3196C218.822 55.7389 219.122 55.2066 219.295 54.7227C219.489 54.2388 219.585 53.7355 219.585 53.2129C219.585 52.187 219.257 51.3837 218.6 50.803C217.943 50.2223 217.093 49.932 216.049 49.932C215.025 49.932 214.126 50.1836 213.353 50.6869C212.581 51.1708 211.895 51.9257 211.296 52.9516L209.383 51.3547C210.175 50.0385 211.131 49.0513 212.252 48.3932C213.373 47.7157 214.667 47.377 216.136 47.377C217.373 47.377 218.445 47.6189 219.353 48.1028C220.281 48.5867 220.996 49.2642 221.498 50.1352C222.001 51.0063 222.252 52.0225 222.252 53.1839C222.252 54.0162 222.146 54.7614 221.933 55.4195C221.74 56.0777 221.382 56.7551 220.861 57.452C220.358 58.1294 219.653 58.9424 218.745 59.8909L212.745 66.0753L209.209 66.1624ZM209.209 67.8173V66.1624L211.527 65.3784H222.716V67.8173H209.209Z" fill="#7C7C7C"/>
<path d="M224.89 66.1624L232.31 58.323C233.064 57.5488 233.653 56.881 234.078 56.3196C234.503 55.7389 234.803 55.2066 234.977 54.7227C235.17 54.2388 235.267 53.7355 235.267 53.2129C235.267 52.187 234.938 51.3837 234.281 50.803C233.624 50.2223 232.774 49.932 231.731 49.932C230.706 49.932 229.808 50.1836 229.035 50.6869C228.262 51.1708 227.576 51.9257 226.977 52.9516L225.064 51.3547C225.856 50.0385 226.813 49.0513 227.933 48.3932C229.054 47.7157 230.349 47.377 231.817 47.377C233.054 47.377 234.127 47.6189 235.035 48.1028C235.962 48.5867 236.677 49.2642 237.18 50.1352C237.682 51.0063 237.933 52.0225 237.933 53.1839C237.933 54.0162 237.827 54.7614 237.615 55.4195C237.421 56.0777 237.064 56.7551 236.542 57.452C236.04 58.1294 235.334 58.9424 234.426 59.8909L228.426 66.0753L224.89 66.1624ZM224.89 67.8173V66.1624L227.209 65.3784H238.397V67.8173H224.89Z" fill="#7C7C7C"/>
<path d="M573.914 66.1624L581.334 58.323C582.087 57.5488 582.677 56.881 583.102 56.3196C583.527 55.7389 583.827 55.2066 584 54.7227C584.194 54.2388 584.29 53.7355 584.29 53.2129C584.29 52.187 583.962 51.3837 583.305 50.803C582.648 50.2223 581.798 49.932 580.754 49.932C579.73 49.932 578.831 50.1836 578.058 50.6869C577.286 51.1708 576.6 51.9257 576.001 52.9516L574.087 51.3547C574.88 50.0385 575.836 49.0513 576.957 48.3932C578.078 47.7157 579.372 47.377 580.841 47.377C582.078 47.377 583.15 47.6189 584.058 48.1028C584.986 48.5867 585.701 49.2642 586.203 50.1352C586.706 51.0063 586.957 52.0225 586.957 53.1839C586.957 54.0162 586.851 54.7614 586.638 55.4195C586.445 56.0777 586.087 56.7551 585.566 57.452C585.063 58.1294 584.358 58.9424 583.45 59.8909L577.45 66.0753L573.914 66.1624ZM573.914 67.8173V66.1624L576.232 65.3784H587.421V67.8173H573.914Z" fill="#7C7C7C"/>
<path d="M598.204 68.1077C596.696 68.1077 595.315 67.6818 594.059 66.8302C592.822 65.9785 591.837 64.7784 591.102 63.2299C590.368 61.662 590.001 59.8231 590.001 57.7133C590.001 55.6034 590.358 53.7742 591.073 52.2257C591.808 50.6772 592.793 49.4868 594.03 48.6545C595.266 47.8028 596.629 47.377 598.117 47.377C599.643 47.377 601.025 47.8028 602.262 48.6545C603.498 49.4868 604.474 50.6772 605.189 52.2257C605.923 53.7742 606.29 55.6131 606.29 57.7423C606.29 59.8522 605.923 61.691 605.189 63.2589C604.474 64.8074 603.498 66.0075 602.262 66.8592C601.044 67.6915 599.692 68.1077 598.204 68.1077ZM598.146 65.5236C599.208 65.5236 600.136 65.2332 600.928 64.6526C601.74 64.0525 602.377 63.1718 602.841 62.0104C603.305 60.849 603.537 59.4166 603.537 57.7133C603.537 56.0099 603.305 54.5872 602.841 53.4452C602.377 52.2838 601.74 51.4128 600.928 50.8321C600.117 50.232 599.179 49.932 598.117 49.932C597.073 49.932 596.146 50.232 595.334 50.8321C594.522 51.4128 593.885 52.2838 593.421 53.4452C592.977 54.5872 592.754 56.0099 592.754 57.7133C592.754 59.4166 592.977 60.849 593.421 62.0104C593.885 63.1718 594.522 64.0525 595.334 64.6526C596.146 65.2332 597.083 65.5236 598.146 65.5236Z" fill="#7C7C7C"/>
<path d="M608.56 66.1624L615.98 58.323C616.734 57.5488 617.323 56.881 617.748 56.3196C618.173 55.7389 618.473 55.2066 618.647 54.7227C618.84 54.2388 618.937 53.7355 618.937 53.2129C618.937 52.187 618.608 51.3837 617.951 50.803C617.294 50.2223 616.444 49.932 615.4 49.932C614.376 49.932 613.478 50.1836 612.705 50.6869C611.932 51.1708 611.246 51.9257 610.647 52.9516L608.734 51.3547C609.526 50.0385 610.483 49.0513 611.603 48.3932C612.724 47.7157 614.019 47.377 615.487 47.377C616.724 47.377 617.797 47.6189 618.705 48.1028C619.632 48.5867 620.347 49.2642 620.85 50.1352C621.352 51.0063 621.603 52.0225 621.603 53.1839C621.603 54.0162 621.497 54.7614 621.284 55.4195C621.091 56.0777 620.734 56.7551 620.212 57.452C619.71 58.1294 619.004 58.9424 618.096 59.8909L612.096 66.0753L608.56 66.1624ZM608.56 67.8173V66.1624L610.879 65.3784H622.067V67.8173H608.56Z" fill="#7C7C7C"/>
<path d="M624.241 60.8781L631.575 47.6673H634.647L627.169 60.8781H624.241ZM624.241 62.5621V60.8781L625.401 60.1232H639.661V62.5621H624.241ZM634.067 67.8173V54.4904H636.763V67.8173H634.067Z" fill="#7C7C7C"/>
</g>
<defs>
<filter id="filter0_d_11_283" x="390.731" y="6.50781" width="433.42" height="423.233" filterUnits="userSpaceOnUse" color-interpolation-filters="sRGB">
<feFlood flood-opacity="0" result="BackgroundImageFix"/>
<feColorMatrix in="SourceAlpha" type="matrix" values="0 0 0 0 0 0 0 0 0 0 0 0 0 0 0 0 0 0 127 0" result="hardAlpha"/>
<feOffset/>
<feGaussianBlur stdDeviation="47"/>
<feComposite in2="hardAlpha" operator="out"/>
<feColorMatrix type="matrix" values="0 0 0 0 0 0 0 0 0 0 0 0 0 0 0 0 0 0 0.15 0"/>
<feBlend mode="normal" in2="BackgroundImageFix" result="effect1_dropShadow_11_283"/>
<feBlend mode="normal" in="SourceGraphic" in2="effect1_dropShadow_11_283" result="shape"/>
</filter>
<linearGradient id="paint0_linear_11_283" x1="608.185" y1="100.509" x2="607.301" y2="234.336" gradientUnits="userSpaceOnUse">
<stop stop-color="#FFFB64"/>
<stop offset="1" stop-color="#FFBF48"/>
</linearGradient>
<linearGradient id="paint1_linear_11_283" x1="608.186" y1="100.518" x2="607.302" y2="234.339" gradientUnits="userSpaceOnUse">
<stop stop-color="#FDE14E"/>
<stop offset="1" stop-color="#F9A731"/>
</linearGradient>
<linearGradient id="paint2_linear_11_283" x1="730.213" y1="182.384" x2="607.029" y2="234.287" gradientUnits="userSpaceOnUse">
<stop stop-color="#FFFB64"/>
<stop offset="1" stop-color="#FFBF48"/>
</linearGradient>
<linearGradient id="paint3_linear_11_283" x1="730.221" y1="182.381" x2="607.032" y2="234.287" gradientUnits="userSpaceOnUse">
<stop stop-color="#FDE14E"/>
<stop offset="1" stop-color="#F9A731"/>
</linearGradient>
<linearGradient id="paint4_linear_11_283" x1="516.339" y1="332.587" x2="607.112" y2="234.383" gradientUnits="userSpaceOnUse">
<stop stop-color="#FFFB64"/>
<stop offset="1" stop-color="#FFBF48"/>
</linearGradient>
<linearGradient id="paint5_linear_11_283" x1="516.341" y1="332.588" x2="607.114" y2="234.384" gradientUnits="userSpaceOnUse">
<stop stop-color="#FDE14E"/>
<stop offset="1" stop-color="#F9A731"/>
</linearGradient>
<linearGradient id="paint6_linear_11_283" x1="695.299" y1="334.836" x2="606.772" y2="234.604" gradientUnits="userSpaceOnUse">
<stop stop-color="#FFFB64"/>
<stop offset="1" stop-color="#FFBF48"/>
</linearGradient>
<linearGradient id="paint7_linear_11_283" x1="695.298" y1="334.834" x2="606.773" y2="234.603" gradientUnits="userSpaceOnUse">
<stop stop-color="#FDE14E"/>
<stop offset="1" stop-color="#F9A731"/>
</linearGradient>
<linearGradient id="paint8_linear_11_283" x1="484.795" y1="180.313" x2="607.219" y2="234.058" gradientUnits="userSpaceOnUse">
<stop stop-color="#FFFB64"/>
<stop offset="1" stop-color="#FFBF48"/>
</linearGradient>
<linearGradient id="paint9_linear_11_283" x1="484.79" y1="180.299" x2="607.222" y2="234.045" gradientUnits="userSpaceOnUse">
<stop stop-color="#FDE14E"/>
<stop offset="1" stop-color="#F9A731"/>
</linearGradient>
<clipPath id="clip0_11_283">
<rect width="814" height="396" fill="white" transform="translate(0.5 0.472656)"/>
</clipPath>
<clipPath id="clip1_11_283">
<rect width="253.218" height="235.906" fill="white" transform="translate(81.417 98.4648)"/>
</clipPath>
</defs>
</svg>
