<svg width="277" height="82" viewBox="0 0 277 82" fill="none" xmlns="http://www.w3.org/2000/svg">
<g clip-path="url(#clip0_1_2)">
<path d="M179.751 10.533L180.126 24.2105H172.535V0H183.182L187.563 13.0292H187.735L191.534 0H202.524V24.2105H194.591L194.831 10.6L194.625 10.5666L190.111 24.2107H184.366L179.92 10.533H179.751Z" fill="black"/>
<path d="M213.739 0H222.39L231.828 24.2105H222.972L221.707 20.6541H214.012L212.816 24.2105H204.199L213.739 0ZM217.945 8.4459L215.962 14.4317H219.894L217.945 8.4459Z" fill="black"/>
<path d="M241.506 14.5681H241.437V24.2105H233.538V0H241.403V8.9245H241.472L247.935 0H257.51L248.414 11.0784L257.954 24.2105H247.969L241.506 14.5681Z" fill="black"/>
<path d="M259.629 0H276.283V6.7706H267.289V8.8577H275.734V15.1831H267.289V17.44H276.863V24.2106H259.629V0Z" fill="black"/>
<path d="M183.409 53.3912C181.728 53.425 180.055 53.1583 178.468 52.6036C177.161 52.1396 175.967 51.4057 174.963 50.4497C174.032 49.5443 173.319 48.4396 172.877 47.2189C172.413 45.9305 172.181 44.5699 172.193 43.2005V28.4961H180.331V42.31C180.271 43.2878 180.569 44.254 181.169 45.0288C181.801 45.6546 182.656 46.0056 183.546 46.0056C184.436 46.0056 185.29 45.6546 185.923 45.0288C186.523 44.254 186.82 43.2878 186.761 42.31V28.4961H194.864V43.2005C194.876 44.5744 194.626 45.9379 194.13 47.2189C193.651 48.4419 192.909 49.5448 191.958 50.4497C190.928 51.4065 189.711 52.1399 188.384 52.6036C186.785 53.1563 185.101 53.4229 183.409 53.3912Z" fill="black"/>
<path d="M206.969 53.3912C206 53.3918 205.033 53.3061 204.079 53.1352C203.147 52.9688 202.231 52.7183 201.344 52.3866C200.488 52.0677 199.659 51.6815 198.864 51.2317C198.12 50.8107 197.421 50.3148 196.778 49.7517L201.737 44.3641C202.392 45.0419 203.161 45.5978 204.011 46.006C204.914 46.4742 205.916 46.7203 206.934 46.7239C207.362 46.7294 207.787 46.647 208.182 46.4818C208.36 46.4137 208.51 46.2903 208.612 46.13C208.714 45.9696 208.761 45.7807 208.747 45.5913C208.752 45.3815 208.686 45.1762 208.558 45.0097C208.37 44.8026 208.144 44.6343 207.891 44.5144C207.466 44.2954 207.027 44.1066 206.575 43.9495C206.016 43.7435 205.315 43.5032 204.473 43.2287C203.663 42.9607 202.875 42.6343 202.113 42.252C201.381 41.8909 200.707 41.4239 200.112 40.8661C199.524 40.3081 199.053 39.6384 198.727 38.8961C198.364 38.0232 198.189 37.0835 198.214 36.1383C198.172 34.7994 198.491 33.4739 199.138 32.3008C199.731 31.2751 200.542 30.3924 201.514 29.7155C202.504 29.0321 203.611 28.5378 204.78 28.2574C205.955 27.9656 207.16 27.8161 208.37 27.8121C210.037 27.8258 211.687 28.1387 213.243 28.736C214.859 29.3285 216.341 30.2356 217.604 31.4047L212.543 36.5669C212.007 35.892 211.314 35.358 210.525 35.0113C209.851 34.687 209.118 34.506 208.37 34.4797C207.878 34.4605 207.388 34.5488 206.934 34.7385C206.768 34.8044 206.626 34.9204 206.528 35.0704C206.43 35.2205 206.381 35.3972 206.387 35.5762C206.387 35.754 206.441 35.9277 206.541 36.0743C206.642 36.2209 206.785 36.3335 206.951 36.3971C207.546 36.6613 208.158 36.889 208.781 37.0789C209.648 37.3544 210.559 37.6735 211.516 38.0362C212.457 38.3945 213.348 38.8714 214.167 39.4554C214.968 40.0289 215.648 40.7553 216.168 41.5926C216.72 42.5472 216.993 43.6379 216.954 44.74C216.986 46.0637 216.686 47.3743 216.082 48.5525C215.523 49.6083 214.742 50.5303 213.792 51.2546C212.831 51.9784 211.748 52.5224 210.594 52.8603C209.418 53.2125 208.197 53.3914 206.969 53.3912Z" fill="black"/>
<path d="M220.134 28.4961H236.787V35.2667H227.793V37.3538H236.239V43.6791H227.793V45.936H237.368V52.7066H220.134V28.4961Z" fill="black"/>
<path d="M171.441 68.9611C171.414 67.1593 171.763 65.3717 172.467 63.7127C173.115 62.2002 174.076 60.842 175.287 59.7277C176.524 58.61 177.971 57.7499 179.544 57.1977C183.002 56.0104 186.756 56.0104 190.214 57.1977C191.791 57.7527 193.243 58.6124 194.488 59.7277C195.708 60.8385 196.675 62.1972 197.327 63.7127C198.03 65.3719 198.379 67.1594 198.352 68.9611C198.375 70.7796 198.026 72.5836 197.327 74.2623C196.676 75.8074 195.709 77.199 194.488 78.3475C193.25 79.4933 191.797 80.3823 190.214 80.9634C186.764 82.1953 182.994 82.1953 179.544 80.9634C177.964 80.3851 176.517 79.4956 175.287 78.3475C174.074 77.1955 173.114 75.8044 172.467 74.2623C171.767 72.5838 171.418 70.7796 171.441 68.9611ZM180.091 68.9611C180.082 69.7056 180.204 70.4459 180.45 71.1484C180.67 71.7764 181.006 72.3571 181.442 72.8598C181.862 73.3372 182.382 73.7162 182.964 73.9698C183.568 74.2337 184.22 74.3674 184.879 74.3622C185.523 74.3703 186.162 74.2405 186.752 73.9814C187.342 73.7223 187.87 73.3399 188.3 72.86C188.745 72.361 189.088 71.7796 189.309 71.1486C189.555 70.4461 189.677 69.7058 189.668 68.9613C189.676 68.2332 189.554 67.5095 189.309 66.824C189.093 66.2114 188.749 65.6518 188.3 65.182C187.856 64.7258 187.324 64.3648 186.736 64.1208C186.148 63.8768 185.517 63.755 184.88 63.7627C184.223 63.7574 183.572 63.8852 182.965 64.1384C182.391 64.377 181.873 64.7324 181.443 65.182C181.004 65.6555 180.666 66.2144 180.451 66.8238C180.205 67.5092 180.083 68.233 180.091 68.9611Z" fill="black"/>
<path d="M209.738 66.3285H217.125V72.9961H209.773V81.2027H201.771V56.9921H218.116V63.7961H209.738V66.3285Z" fill="black"/>
<path d="M220.087 76.4676H237.185V81.8876H220.087V76.4676Z" fill="#C60D0D"/>
<path d="M33.421 0.135986L0 33.557V81.752H130.67L164 48.422V0.135986H33.421Z" fill="#C60D0D"/>
<path d="M140.289 81.979H164.126V58.142L140.289 81.979Z" fill="#C60D0D"/>
<path d="M63.9715 56.19C63.684 56.2101 63.3955 56.1682 63.1256 56.0673C62.8556 55.9663 62.6105 55.8086 62.4067 55.6048C62.2029 55.401 62.0452 55.1559 61.9442 54.8859C61.8433 54.616 61.8014 54.3275 61.8215 54.04V37.5685C61.815 36.6279 62.1369 35.7144 62.7315 34.9856L63.6279 33.8656L63.7079 33.7762C64.1045 33.3796 64.4179 33.0662 64.9238 33.0662C65.1424 33.0662 66.2332 33.1482 66.2332 34.7677V54.04C66.2461 54.3354 66.1955 54.6302 66.0849 54.9045C65.9742 55.1787 65.8061 55.426 65.5917 55.6298C65.3774 55.8335 65.1219 55.989 64.8424 56.0856C64.5629 56.1822 64.2659 56.2178 63.9715 56.19ZM35.7902 56.19C35.5027 56.2101 35.2142 56.1682 34.9443 56.0673C34.6743 55.9663 34.4292 55.8086 34.2254 55.6048C34.0216 55.401 33.8639 55.1559 33.7629 54.8859C33.662 54.616 33.6201 54.3275 33.6402 54.04V26.98C33.6201 26.6925 33.662 26.404 33.7629 26.1341C33.8639 25.8641 34.0215 25.6189 34.2253 25.4151C34.4291 25.2113 34.6743 25.0536 34.9443 24.9527C35.2142 24.8518 35.5027 24.8099 35.7902 24.83C36.3987 24.8273 37.0002 24.9608 37.5504 25.2207C38.1006 25.4806 38.5857 25.8603 38.9702 26.332L50.177 39.9374L61.2754 26.0774C61.5799 25.6834 61.9719 25.3656 62.4203 25.1491C62.8688 24.9326 63.3615 24.8233 63.8594 24.83H64.9794C65.1451 24.8262 65.3098 24.8561 65.4636 24.9177C65.6174 24.9794 65.7571 25.0716 65.8742 25.1888C65.9914 25.3059 66.0836 25.4457 66.1452 25.5994C66.2069 25.7532 66.2367 25.9179 66.2329 26.0836C66.237 26.4019 66.1257 26.711 65.9195 26.9536L52.4363 43.7936C52.1855 44.1675 51.8526 44.4793 51.463 44.7052C51.0735 44.9311 50.6376 45.0651 50.1884 45.0971C49.7488 45.0599 49.3226 44.9272 48.9395 44.7082C48.5565 44.4893 48.2258 44.1894 47.9706 43.8295L38.052 31.8426V54.04C38.0649 54.3355 38.0143 54.6303 37.9037 54.9045C37.793 55.1788 37.6248 55.4262 37.4104 55.6299C37.1961 55.8337 36.9405 55.9891 36.661 56.0857C36.3814 56.1823 36.0846 56.2179 35.7902 56.19Z" fill="white"/>
<path d="M72.2684 55.91C71.7596 55.9632 71.2454 55.9021 70.7633 55.7312C70.2811 55.5603 69.8432 55.2839 69.4815 54.9222C69.1198 54.5605 68.8434 54.1226 68.6725 53.6404C68.5017 53.1583 68.4406 52.6441 68.4938 52.1353V26.7C68.4808 26.4046 68.5314 26.1098 68.6421 25.8355C68.7527 25.5613 68.9209 25.3139 69.1352 25.1102C69.3496 24.9064 69.6051 24.751 69.8846 24.6543C70.1641 24.5577 70.4611 24.5221 70.7555 24.55C71.043 24.5299 71.3315 24.5718 71.6014 24.6727C71.8714 24.7737 72.1166 24.9313 72.3204 25.1351C72.5242 25.3389 72.6818 25.5841 72.7828 25.8541C72.8837 26.124 72.9256 26.4125 72.9055 26.7V51.667H93.4255V26.7C93.4126 26.4045 93.4632 26.1097 93.5739 25.8355C93.6846 25.5612 93.8528 25.3139 94.0671 25.1101C94.2815 24.9064 94.537 24.751 94.8166 24.6543C95.0961 24.5577 95.3931 24.5221 95.6875 24.55C95.975 24.53 96.2634 24.5718 96.5333 24.6728C96.8032 24.7738 97.0483 24.9315 97.2521 25.1353C97.4558 25.3391 97.6135 25.5842 97.7144 25.8542C97.8153 26.1241 97.8571 26.4125 97.837 26.7V52.1355C97.8868 52.6484 97.8214 53.1659 97.6457 53.6503C97.47 54.1347 97.1884 54.5738 96.8214 54.9355C96.4544 55.2972 96.0113 55.5724 95.5244 55.741C95.0375 55.9096 94.5191 55.9674 94.007 55.9102L72.2684 55.91Z" fill="white"/>
<path d="M103.782 55.91C103.273 55.9632 102.759 55.9021 102.277 55.7312C101.795 55.5603 101.357 55.2839 100.995 54.9222C100.634 54.5605 100.357 54.1226 100.186 53.6404C100.015 53.1583 99.9543 52.6441 100.008 52.1353V28.6048C99.9543 28.096 100.015 27.5818 100.186 27.0996C100.357 26.6175 100.634 26.1795 100.995 25.8178C101.357 25.4561 101.795 25.1797 102.277 25.0088C102.759 24.8379 103.273 24.7768 103.782 24.83H126.585C127.094 24.7768 127.608 24.8379 128.09 25.0088C128.572 25.1797 129.01 25.4561 129.372 25.8178C129.733 26.1795 130.01 26.6175 130.181 27.0996C130.351 27.5818 130.413 28.096 130.359 28.6048V52.1355C130.413 52.6443 130.351 53.1585 130.181 53.6406C130.01 54.1228 129.733 54.5607 129.372 54.9224C129.01 55.2841 128.572 55.5605 128.09 55.7314C127.608 55.9023 127.093 55.9634 126.585 55.9102L103.782 55.91ZM125.948 51.6666V29.0734H104.419V51.6668L125.948 51.6666Z" fill="white"/>
</g>
<defs>
<clipPath id="clip0_1_2">
<rect width="276.863" height="81.9792" fill="white"/>
</clipPath>
</defs>
</svg>
