<svg width="569" height="512" viewBox="0 0 569 512" fill="none" xmlns="http://www.w3.org/2000/svg">
<path d="M31.8 114V92.7201H55.48C59.96 92.7201 63.48 91.4934 66.04 89.0401C68.7067 86.4801 70.04 83.1734 70.04 79.1201C70.04 76.4534 69.4533 74.1067 68.28 72.0801C67.1067 69.9467 65.4 68.3467 63.16 67.2801C61.0267 66.1067 58.4667 65.5201 55.48 65.5201H31.8V44.8801H53.72C57.4533 44.8801 60.4933 43.9734 62.84 42.1601C65.2933 40.2401 66.52 37.3067 66.52 33.3601C66.52 29.4134 65.2933 26.5334 62.84 24.7201C60.4933 22.8001 57.4533 21.8401 53.72 21.8401H31.8V0.560059H60.6C67.64 0.560059 73.72 1.89339 78.84 4.56006C84.0667 7.22673 88.0667 10.8001 90.84 15.2801C93.6133 19.7601 95 24.8267 95 30.4801C95 38.0534 92.3867 44.3467 87.16 49.3601C82.04 54.2667 74.5733 57.3067 64.76 58.4801V48.8801C75.64 50.1601 83.96 53.6801 89.72 59.4401C95.48 65.0934 98.36 72.2401 98.36 80.8801C98.36 87.2801 96.76 92.9867 93.56 98.0001C90.36 102.907 85.8267 106.8 79.96 109.68C74.2 112.56 67.3733 114 59.48 114H31.8ZM9.08001 114V0.560059H37.24V114H9.08001Z" fill="url(#paint0_linear_229_207)"/>
<path d="M138.163 114V1.36006H166.803V114H138.163ZM103.443 25.2001V0.560059H201.523V25.2001H103.443Z" fill="url(#paint1_linear_229_207)"/>
<path d="M239.268 114L203.268 0.560059H231.588L257.508 87.9201H245.188L270.788 0.560059H293.668L319.268 87.9201H307.108L333.028 0.560059H361.188L325.028 114H301.988L276.388 26.8001H287.908L262.467 114H239.268Z" fill="url(#paint2_linear_229_207)"/>
<path d="M9.08001 246V132.56H37.72V246H9.08001Z" fill="url(#paint3_linear_229_207)"/>
<path d="M134.081 247.76C124.481 247.76 116.001 245.787 108.641 241.84C101.388 237.787 95.7346 232.187 91.6813 225.04C87.6279 217.893 85.6013 209.787 85.6013 200.72V132.56H114.081V202.8C114.081 206.853 114.935 210.373 116.641 213.36C118.455 216.24 120.855 218.48 123.841 220.08C126.935 221.573 130.348 222.32 134.081 222.32C137.921 222.32 141.281 221.573 144.161 220.08C147.041 218.48 149.335 216.24 151.041 213.36C152.748 210.48 153.601 207.013 153.601 202.96V132.56H182.401V200.88C182.401 209.947 180.375 218.053 176.321 225.2C172.268 232.24 166.615 237.787 159.361 241.84C152.215 245.787 143.788 247.76 134.081 247.76Z" fill="url(#paint4_linear_229_207)"/>
<path d="M234.913 247.76C225.419 247.76 217.153 246.32 210.113 243.44C203.179 240.56 196.833 236.027 191.073 229.84L209.153 211.6C213.099 215.76 217.313 218.96 221.793 221.2C226.273 223.333 231.339 224.4 236.993 224.4C241.793 224.4 245.473 223.6 248.033 222C250.699 220.293 252.033 218 252.033 215.12C252.033 212.453 251.073 210.267 249.153 208.56C247.233 206.747 244.673 205.2 241.473 203.92C238.379 202.533 234.913 201.253 231.073 200.08C227.339 198.8 223.553 197.307 219.713 195.6C215.979 193.787 212.513 191.6 209.313 189.04C206.219 186.48 203.713 183.28 201.793 179.44C199.873 175.6 198.913 170.853 198.913 165.2C198.913 157.947 200.619 151.76 204.033 146.64C207.553 141.52 212.406 137.573 218.593 134.8C224.779 132.027 231.979 130.64 240.193 130.64C248.406 130.64 255.979 132.027 262.913 134.8C269.846 137.573 275.553 141.413 280.033 146.32L261.793 164.4C258.379 160.987 254.913 158.427 251.393 156.72C247.873 155.013 244.033 154.16 239.873 154.16C235.926 154.16 232.833 154.853 230.593 156.24C228.353 157.627 227.233 159.6 227.233 162.16C227.233 164.72 228.193 166.8 230.113 168.4C232.033 170 234.539 171.44 237.633 172.72C240.833 173.893 244.299 175.12 248.033 176.4C251.873 177.68 255.659 179.173 259.393 180.88C263.126 182.587 266.539 184.773 269.633 187.44C272.833 190.107 275.392 193.467 277.312 197.52C279.233 201.573 280.193 206.48 280.193 212.24C280.193 223.547 276.193 232.293 268.193 238.48C260.299 244.667 249.206 247.76 234.913 247.76Z" fill="url(#paint5_linear_229_207)"/>
<path d="M294.705 246V132.56H323.345V246H294.705ZM317.425 246V221.84H378.865V246H317.425ZM317.425 199.92V176.4H373.105V199.92H317.425ZM317.425 156.72V132.56H377.905V156.72H317.425Z" fill="url(#paint6_linear_229_207)"/>
<path d="M0.76001 378L44.76 264.56H72.44L115.96 378H86.04L53.24 282.64H63.64L30.04 378H0.76001ZM27.48 358.16V335.44H90.04V358.16H27.48Z" fill="url(#paint7_linear_229_207)"/>
<path d="M126.58 378V264.56H155.22V378H126.58ZM149.3 378V353.36H204.02V378H149.3Z" fill="url(#paint8_linear_229_207)"/>
<path d="M240.081 337.36V316.08H262.481C265.255 316.08 267.761 315.547 270.001 314.48C272.348 313.307 274.215 311.6 275.601 309.36C276.988 307.12 277.681 304.347 277.681 301.04C277.681 297.733 276.988 294.96 275.601 292.72C274.215 290.373 272.348 288.667 270.001 287.6C267.761 286.427 265.255 285.84 262.481 285.84H240.081V264.56H267.441C274.695 264.56 281.255 266.053 287.121 269.04C292.988 271.92 297.628 276.08 301.041 281.52C304.455 286.853 306.161 293.36 306.161 301.04C306.161 308.507 304.455 315.013 301.041 320.56C297.628 326 292.988 330.16 287.121 333.04C281.255 335.92 274.695 337.36 267.441 337.36H240.081ZM217.361 378V264.56H246.001V378H217.361Z" fill="url(#paint9_linear_229_207)"/>
<path d="M318.768 378V264.56H347.408V378H318.768ZM388.208 378V264.56H416.848V378H388.208ZM335.088 331.92V307.92H398.608V331.92H335.088Z" fill="url(#paint10_linear_229_207)"/>
<path d="M428.729 378L472.729 264.56H500.409L543.929 378H514.009L481.209 282.64H491.609L458.009 378H428.729ZM455.449 358.16V335.44H518.009V358.16H455.449Z" fill="url(#paint11_linear_229_207)"/>
<path d="M31.8 510V488.72H55.48C59.96 488.72 63.48 487.493 66.04 485.04C68.7067 482.48 70.04 479.173 70.04 475.12C70.04 472.453 69.4533 470.107 68.28 468.08C67.1067 465.947 65.4 464.347 63.16 463.28C61.0267 462.107 58.4667 461.52 55.48 461.52H31.8V440.88H53.72C57.4533 440.88 60.4933 439.973 62.84 438.16C65.2933 436.24 66.52 433.307 66.52 429.36C66.52 425.413 65.2933 422.533 62.84 420.72C60.4933 418.8 57.4533 417.84 53.72 417.84H31.8V396.56H60.6C67.64 396.56 73.72 397.893 78.84 400.56C84.0667 403.227 88.0667 406.8 90.84 411.28C93.6133 415.76 95 420.827 95 426.48C95 434.053 92.3867 440.347 87.16 445.36C82.04 450.267 74.5733 453.307 64.76 454.48V444.88C75.64 446.16 83.96 449.68 89.72 455.44C95.48 461.093 98.36 468.24 98.36 476.88C98.36 483.28 96.76 488.987 93.56 494C90.36 498.907 85.8267 502.8 79.96 505.68C74.2 508.56 67.3733 510 59.48 510H31.8ZM9.08001 510V396.56H37.24V510H9.08001Z" fill="url(#paint12_linear_229_207)"/>
<path d="M159.863 511.76C150.263 511.76 141.783 509.787 134.423 505.84C127.169 501.787 121.516 496.187 117.463 489.04C113.409 481.893 111.383 473.787 111.383 464.72V396.56H139.863V466.8C139.863 470.853 140.716 474.373 142.423 477.36C144.236 480.24 146.636 482.48 149.623 484.08C152.716 485.573 156.129 486.32 159.863 486.32C163.703 486.32 167.063 485.573 169.943 484.08C172.823 482.48 175.116 480.24 176.823 477.36C178.529 474.48 179.383 471.013 179.383 466.96V396.56H208.183V464.88C208.183 473.947 206.156 482.053 202.103 489.2C198.049 496.24 192.396 501.787 185.143 505.84C177.996 509.787 169.569 511.76 159.863 511.76Z" fill="url(#paint13_linear_229_207)"/>
<path d="M226.424 510V396.56H255.064V510H226.424Z" fill="url(#paint14_linear_229_207)"/>
<path d="M275.174 510V396.56H303.814V510H275.174ZM297.894 510V485.36H352.614V510H297.894Z" fill="url(#paint15_linear_229_207)"/>
<path d="M385.315 510V485.36H412.515C418.915 485.36 424.462 484.133 429.155 481.68C433.955 479.227 437.635 475.6 440.195 470.8C442.755 465.893 444.035 459.973 444.035 453.04C444.035 446.213 442.702 440.453 440.035 435.76C437.475 430.96 433.848 427.333 429.155 424.88C424.462 422.427 418.915 421.2 412.515 421.2H384.035V396.56H412.675C421.422 396.56 429.475 397.947 436.835 400.72C444.195 403.387 450.595 407.227 456.035 412.24C461.475 417.253 465.688 423.227 468.675 430.16C471.768 437.093 473.315 444.773 473.315 453.2C473.315 461.733 471.768 469.467 468.675 476.4C465.688 483.333 461.475 489.307 456.035 494.32C450.595 499.333 444.195 503.227 436.835 506C429.582 508.667 421.635 510 412.995 510H385.315ZM365.955 510V396.56H394.595V510H365.955Z" fill="url(#paint16_linear_229_207)"/>
<path d="M523.194 511.76C513.7 511.76 505.434 510.32 498.394 507.44C491.46 504.56 485.114 500.027 479.354 493.84L497.434 475.6C501.38 479.76 505.594 482.96 510.074 485.2C514.554 487.333 519.62 488.4 525.274 488.4C530.074 488.4 533.754 487.6 536.314 486C538.98 484.293 540.314 482 540.314 479.12C540.314 476.453 539.354 474.267 537.434 472.56C535.514 470.747 532.954 469.2 529.754 467.92C526.66 466.533 523.194 465.253 519.354 464.08C515.62 462.8 511.834 461.307 507.994 459.6C504.26 457.787 500.794 455.6 497.594 453.04C494.5 450.48 491.994 447.28 490.074 443.44C488.154 439.6 487.194 434.853 487.194 429.2C487.194 421.947 488.9 415.76 492.314 410.64C495.834 405.52 500.687 401.573 506.874 398.8C513.06 396.027 520.26 394.64 528.474 394.64C536.687 394.64 544.26 396.027 551.194 398.8C558.127 401.573 563.834 405.413 568.314 410.32L550.074 428.4C546.66 424.987 543.194 422.427 539.674 420.72C536.154 419.013 532.314 418.16 528.154 418.16C524.207 418.16 521.114 418.853 518.874 420.24C516.634 421.627 515.514 423.6 515.514 426.16C515.514 428.72 516.474 430.8 518.394 432.4C520.314 434 522.82 435.44 525.914 436.72C529.114 437.893 532.58 439.12 536.314 440.4C540.154 441.68 543.94 443.173 547.674 444.88C551.407 446.587 554.82 448.773 557.914 451.44C561.114 454.107 563.674 457.467 565.594 461.52C567.514 465.573 568.474 470.48 568.474 476.24C568.474 487.547 564.474 496.293 556.474 502.48C548.58 508.667 537.487 511.76 523.194 511.76Z" fill="url(#paint17_linear_229_207)"/>
<defs>
<linearGradient id="paint0_linear_229_207" x1="286" y1="-8" x2="286" y2="514" gradientUnits="userSpaceOnUse">
<stop stop-color="#81D5FF"/>
<stop offset="1" stop-color="#39687A"/>
</linearGradient>
<linearGradient id="paint1_linear_229_207" x1="286" y1="-8" x2="286" y2="514" gradientUnits="userSpaceOnUse">
<stop stop-color="#81D5FF"/>
<stop offset="1" stop-color="#39687A"/>
</linearGradient>
<linearGradient id="paint2_linear_229_207" x1="286" y1="-8" x2="286" y2="514" gradientUnits="userSpaceOnUse">
<stop stop-color="#81D5FF"/>
<stop offset="1" stop-color="#39687A"/>
</linearGradient>
<linearGradient id="paint3_linear_229_207" x1="286" y1="-8" x2="286" y2="514" gradientUnits="userSpaceOnUse">
<stop stop-color="#81D5FF"/>
<stop offset="1" stop-color="#39687A"/>
</linearGradient>
<linearGradient id="paint4_linear_229_207" x1="286" y1="-8" x2="286" y2="514" gradientUnits="userSpaceOnUse">
<stop stop-color="#81D5FF"/>
<stop offset="1" stop-color="#39687A"/>
</linearGradient>
<linearGradient id="paint5_linear_229_207" x1="286" y1="-8" x2="286" y2="514" gradientUnits="userSpaceOnUse">
<stop stop-color="#81D5FF"/>
<stop offset="1" stop-color="#39687A"/>
</linearGradient>
<linearGradient id="paint6_linear_229_207" x1="286" y1="-8" x2="286" y2="514" gradientUnits="userSpaceOnUse">
<stop stop-color="#81D5FF"/>
<stop offset="1" stop-color="#39687A"/>
</linearGradient>
<linearGradient id="paint7_linear_229_207" x1="286" y1="-8" x2="286" y2="514" gradientUnits="userSpaceOnUse">
<stop stop-color="#81D5FF"/>
<stop offset="1" stop-color="#39687A"/>
</linearGradient>
<linearGradient id="paint8_linear_229_207" x1="286" y1="-8" x2="286" y2="514" gradientUnits="userSpaceOnUse">
<stop stop-color="#81D5FF"/>
<stop offset="1" stop-color="#39687A"/>
</linearGradient>
<linearGradient id="paint9_linear_229_207" x1="286" y1="-8" x2="286" y2="514" gradientUnits="userSpaceOnUse">
<stop stop-color="#81D5FF"/>
<stop offset="1" stop-color="#39687A"/>
</linearGradient>
<linearGradient id="paint10_linear_229_207" x1="286" y1="-8" x2="286" y2="514" gradientUnits="userSpaceOnUse">
<stop stop-color="#81D5FF"/>
<stop offset="1" stop-color="#39687A"/>
</linearGradient>
<linearGradient id="paint11_linear_229_207" x1="286" y1="-8" x2="286" y2="514" gradientUnits="userSpaceOnUse">
<stop stop-color="#81D5FF"/>
<stop offset="1" stop-color="#39687A"/>
</linearGradient>
<linearGradient id="paint12_linear_229_207" x1="286" y1="-8" x2="286" y2="514" gradientUnits="userSpaceOnUse">
<stop stop-color="#81D5FF"/>
<stop offset="1" stop-color="#39687A"/>
</linearGradient>
<linearGradient id="paint13_linear_229_207" x1="286" y1="-8" x2="286" y2="514" gradientUnits="userSpaceOnUse">
<stop stop-color="#81D5FF"/>
<stop offset="1" stop-color="#39687A"/>
</linearGradient>
<linearGradient id="paint14_linear_229_207" x1="286" y1="-8" x2="286" y2="514" gradientUnits="userSpaceOnUse">
<stop stop-color="#81D5FF"/>
<stop offset="1" stop-color="#39687A"/>
</linearGradient>
<linearGradient id="paint15_linear_229_207" x1="286" y1="-8" x2="286" y2="514" gradientUnits="userSpaceOnUse">
<stop stop-color="#81D5FF"/>
<stop offset="1" stop-color="#39687A"/>
</linearGradient>
<linearGradient id="paint16_linear_229_207" x1="286" y1="-8" x2="286" y2="514" gradientUnits="userSpaceOnUse">
<stop stop-color="#81D5FF"/>
<stop offset="1" stop-color="#39687A"/>
</linearGradient>
<linearGradient id="paint17_linear_229_207" x1="286" y1="-8" x2="286" y2="514" gradientUnits="userSpaceOnUse">
<stop stop-color="#81D5FF"/>
<stop offset="1" stop-color="#39687A"/>
</linearGradient>
</defs>
</svg>
