<svg width="577" height="647" viewBox="0 0 577 647" fill="none" xmlns="http://www.w3.org/2000/svg">
<path d="M34.6401 116V2.08016H66.6401V116H34.6401ZM0.560059 29.2802V2.08016H100.88V29.2802H0.560059Z" fill="url(#paint0_linear_254_195)"/>
<path d="M112.909 116V2.08016H144.909V116H112.909ZM138.829 116V89.4402H199.949V116H138.829ZM138.829 70.8802V44.9602H194.029V70.8802H138.829ZM138.829 28.6402V2.08016H198.989V28.6402H138.829Z" fill="url(#paint1_linear_254_195)"/>
<path d="M249.084 117.92C239.377 117.92 230.897 116.533 223.644 113.76C216.497 110.88 209.884 106.347 203.804 100.16L223.804 80.1602C227.964 84.1068 232.337 87.1468 236.924 89.2802C241.51 91.3068 246.417 92.3202 251.644 92.3202C256.017 92.3202 259.324 91.6802 261.564 90.4002C263.804 89.0135 264.924 87.1468 264.924 84.8002C264.924 82.4535 263.964 80.5335 262.044 79.0402C260.124 77.4402 257.564 76.0535 254.364 74.8802C251.27 73.6002 247.804 72.3202 243.964 71.0402C240.23 69.7602 236.497 68.2135 232.764 66.4002C229.03 64.5868 225.564 62.4002 222.364 59.8402C219.27 57.1735 216.764 53.9202 214.844 50.0802C212.924 46.1335 211.964 41.3335 211.964 35.6802C211.964 28.3202 213.724 21.9735 217.244 16.6402C220.764 11.3068 225.724 7.25349 232.124 4.48016C238.524 1.60016 246.044 0.160156 254.684 0.160156C263.217 0.160156 271.11 1.54682 278.364 4.32016C285.724 6.98682 291.804 10.8268 296.604 15.8402L276.444 35.8402C272.924 32.4268 269.404 29.9202 265.884 28.3202C262.364 26.6135 258.524 25.7602 254.364 25.7602C251.057 25.7602 248.39 26.2935 246.364 27.3602C244.444 28.4268 243.484 30.0268 243.484 32.1602C243.484 34.4002 244.444 36.2668 246.364 37.7602C248.284 39.1468 250.79 40.4268 253.884 41.6002C257.084 42.7735 260.55 44.0002 264.284 45.2802C268.124 46.5602 271.91 48.1068 275.644 49.9202C279.377 51.6268 282.79 53.8668 285.884 56.6402C289.084 59.3068 291.644 62.6668 293.564 66.7202C295.484 70.7735 296.444 75.6802 296.444 81.4402C296.444 93.0668 292.284 102.08 283.964 108.48C275.75 114.773 264.124 117.92 249.084 117.92Z" fill="url(#paint2_linear_254_195)"/>
<path d="M333.39 116V2.08016H365.39V116H333.39ZM299.31 29.2802V2.08016H399.63V29.2802H299.31Z" fill="url(#paint3_linear_254_195)"/>
<path d="M33.3601 248V224.96H54.3201C58.3734 224.96 61.6267 223.893 64.0801 221.76C66.5334 219.52 67.7601 216.48 67.7601 212.64C67.7601 210.08 67.1734 207.893 66.0001 206.08C64.9334 204.16 63.3867 202.72 61.3601 201.76C59.4401 200.8 57.0934 200.32 54.3201 200.32H33.3601V178.24H52.8801C56.2934 178.24 59.1201 177.387 61.3601 175.68C63.6001 173.973 64.7201 171.307 64.7201 167.68C64.7201 164.053 63.6001 161.387 61.3601 159.68C59.1201 157.973 56.2934 157.12 52.8801 157.12H33.3601V134.08H61.8401C68.7734 134.08 74.8001 135.413 79.9201 138.08C85.1467 140.64 89.2001 144.213 92.0801 148.8C94.9601 153.28 96.4001 158.453 96.4001 164.32C96.4001 172.427 93.5201 179.04 87.7601 184.16C82.0001 189.28 73.5734 192.213 62.4801 192.96L62.1601 181.92C74.2134 182.667 83.4401 185.973 89.8401 191.84C96.2401 197.707 99.4401 205.227 99.4401 214.4C99.4401 221.013 97.7867 226.88 94.4801 232C91.1734 237.014 86.5334 240.96 80.5601 243.84C74.6934 246.613 67.8134 248 59.9201 248H33.3601ZM7.44006 248V134.08H38.8001V248H7.44006Z" fill="url(#paint4_linear_254_195)"/>
<path d="M112.909 248V134.08H144.909V248H112.909ZM138.829 248V221.44H199.949V248H138.829ZM138.829 202.88V176.96H194.029V202.88H138.829ZM138.829 160.64V134.08H198.989V160.64H138.829Z" fill="url(#paint5_linear_254_195)"/>
<path d="M239.328 248V134.08H271.328V248H239.328ZM205.248 161.28V134.08H305.568V161.28H205.248Z" fill="url(#paint6_linear_254_195)"/>
<path d="M296.616 248L339.976 134.08H372.616L415.496 248H382.216L350.376 151.2H361.896L329.256 248H296.616ZM324.776 228.8V203.84H388.456V228.8H324.776Z" fill="url(#paint7_linear_254_195)"/>
<path d="M33.3601 380V356.96H54.3201C58.3734 356.96 61.6267 355.893 64.0801 353.76C66.5334 351.52 67.7601 348.48 67.7601 344.64C67.7601 342.08 67.1734 339.894 66.0001 338.08C64.9334 336.16 63.3867 334.72 61.3601 333.76C59.4401 332.8 57.0934 332.32 54.3201 332.32H33.3601V310.24H52.8801C56.2934 310.24 59.1201 309.387 61.3601 307.68C63.6001 305.973 64.7201 303.307 64.7201 299.68C64.7201 296.053 63.6001 293.387 61.3601 291.68C59.1201 289.973 56.2934 289.12 52.8801 289.12H33.3601V266.08H61.8401C68.7734 266.08 74.8001 267.414 79.9201 270.08C85.1467 272.64 89.2001 276.213 92.0801 280.8C94.9601 285.28 96.4001 290.453 96.4001 296.32C96.4001 304.427 93.5201 311.04 87.7601 316.16C82.0001 321.28 73.5734 324.214 62.4801 324.96L62.1601 313.92C74.2134 314.667 83.4401 317.973 89.8401 323.84C96.2401 329.707 99.4401 337.227 99.4401 346.4C99.4401 353.013 97.7867 358.88 94.4801 364C91.1734 369.013 86.5334 372.96 80.5601 375.84C74.6934 378.613 67.8134 380 59.9201 380H33.3601ZM7.44006 380V266.08H38.8001V380H7.44006Z" fill="url(#paint8_linear_254_195)"/>
<path d="M160.749 381.92C150.722 381.92 141.975 379.893 134.509 375.84C127.042 371.68 121.229 365.973 117.069 358.72C112.909 351.467 110.829 343.147 110.829 333.76V266.08H142.829V336.64C142.829 340.267 143.629 343.36 145.229 345.92C146.829 348.48 148.962 350.453 151.629 351.84C154.402 353.12 157.442 353.76 160.749 353.76C164.162 353.76 167.149 353.12 169.709 351.84C172.375 350.453 174.455 348.534 175.949 346.08C177.442 343.52 178.189 340.427 178.189 336.8V266.08H210.349V333.92C210.349 343.307 208.269 351.627 204.109 358.88C200.055 366.027 194.295 371.68 186.829 375.84C179.469 379.893 170.775 381.92 160.749 381.92Z" fill="url(#paint9_linear_254_195)"/>
<path d="M227.128 380V266.08H259.128V380H227.128Z" fill="url(#paint10_linear_254_195)"/>
<path d="M278.065 380V266.08H310.065V380H278.065ZM304.145 380V352.8H357.425V380H304.145Z" fill="url(#paint11_linear_254_195)"/>
<path d="M391.068 380V352.8H417.628C423.601 352.8 428.774 351.733 433.148 349.6C437.521 347.36 440.881 344 443.228 339.52C445.574 335.04 446.748 329.493 446.748 322.88C446.748 316.267 445.521 310.773 443.068 306.4C440.721 302.027 437.361 298.773 432.988 296.64C428.721 294.4 423.601 293.28 417.628 293.28H389.468V266.08H417.628C426.588 266.08 434.801 267.414 442.268 270.08C449.841 272.747 456.401 276.587 461.948 281.6C467.494 286.613 471.761 292.64 474.748 299.68C477.841 306.613 479.388 314.4 479.388 323.04C479.388 331.68 477.841 339.52 474.748 346.56C471.761 353.493 467.494 359.467 461.948 364.48C456.401 369.493 449.894 373.333 442.428 376C434.961 378.667 426.801 380 417.948 380H391.068ZM369.628 380V266.08H401.628V380H369.628Z" fill="url(#paint12_linear_254_195)"/>
<path d="M529.24 381.92C519.533 381.92 511.053 380.533 503.8 377.76C496.653 374.88 490.04 370.347 483.96 364.16L503.96 344.16C508.12 348.107 512.493 351.147 517.08 353.28C521.667 355.307 526.573 356.32 531.8 356.32C536.173 356.32 539.48 355.68 541.72 354.4C543.96 353.013 545.08 351.147 545.08 348.8C545.08 346.454 544.12 344.533 542.2 343.04C540.28 341.44 537.72 340.053 534.52 338.88C531.427 337.6 527.96 336.32 524.12 335.04C520.387 333.76 516.653 332.213 512.92 330.4C509.187 328.587 505.72 326.4 502.52 323.84C499.427 321.173 496.92 317.92 495 314.08C493.08 310.134 492.12 305.333 492.12 299.68C492.12 292.32 493.88 285.974 497.4 280.64C500.92 275.307 505.88 271.253 512.28 268.48C518.68 265.6 526.2 264.16 534.84 264.16C543.373 264.16 551.267 265.547 558.52 268.32C565.88 270.987 571.96 274.827 576.76 279.84L556.6 299.84C553.08 296.427 549.56 293.92 546.04 292.32C542.52 290.613 538.68 289.76 534.52 289.76C531.213 289.76 528.547 290.294 526.52 291.36C524.6 292.427 523.64 294.027 523.64 296.16C523.64 298.4 524.6 300.267 526.52 301.76C528.44 303.147 530.947 304.427 534.04 305.6C537.24 306.773 540.707 308 544.44 309.28C548.28 310.56 552.067 312.107 555.8 313.92C559.533 315.627 562.947 317.867 566.04 320.64C569.24 323.307 571.8 326.667 573.72 330.72C575.64 334.773 576.6 339.68 576.6 345.44C576.6 357.067 572.44 366.08 564.12 372.48C555.907 378.773 544.28 381.92 529.24 381.92Z" fill="url(#paint13_linear_254_195)"/>
<path d="M7.44006 512V398.08H39.4401V512H7.44006ZM33.5201 512V484.8H86.8001V512H33.5201Z" fill="url(#paint14_linear_254_195)"/>
<path d="M99.0026 512V398.08H131.003V512H99.0026Z" fill="url(#paint15_linear_254_195)"/>
<path d="M219.06 512L179.22 452.64L217.14 398.08H255.7L211.86 457.28L211.7 447.04L257.46 512H219.06ZM149.94 512V398.08H181.94V512H149.94Z" fill="url(#paint16_linear_254_195)"/>
<path d="M265.096 512V398.08H297.096V512H265.096ZM291.016 512V485.44H352.136V512H291.016ZM291.016 466.88V440.96H346.216V466.88H291.016ZM291.016 424.64V398.08H351.176V424.64H291.016Z" fill="url(#paint17_linear_254_195)"/>
<path d="M383.023 512L426.383 398.08H459.023L501.903 512H468.623L436.783 415.2H448.303L415.663 512H383.023ZM411.183 492.8V467.84H474.863V492.8H411.183Z" fill="url(#paint18_linear_254_195)"/>
<path d="M33.3601 604V580.96H54.0001C56.4534 580.96 58.6934 580.48 60.7201 579.52C62.8534 578.453 64.5601 576.907 65.8401 574.88C67.1201 572.747 67.7601 570.133 67.7601 567.04C67.7601 563.947 67.1201 561.387 65.8401 559.36C64.5601 557.227 62.8534 555.68 60.7201 554.72C58.6934 553.653 56.4534 553.12 54.0001 553.12H33.3601V530.08H60.2401C67.6001 530.08 74.2134 531.574 80.0801 534.56C86.0534 537.44 90.7467 541.653 94.1601 547.2C97.6801 552.64 99.4401 559.253 99.4401 567.04C99.4401 574.72 97.6801 581.334 94.1601 586.88C90.7467 592.427 86.0534 596.694 80.0801 599.68C74.2134 602.56 67.6001 604 60.2401 604H33.3601ZM7.44006 644V530.08H39.4401V644H7.44006Z" fill="url(#paint19_linear_254_195)"/>
<path d="M136.798 598.56V576.48H156.158C160.531 576.48 163.838 575.413 166.078 573.28C168.424 571.147 169.598 568.32 169.598 564.8C169.598 561.28 168.424 558.453 166.078 556.32C163.838 554.187 160.531 553.12 156.158 553.12H136.798V530.08H161.278C169.171 530.08 176.104 531.52 182.078 534.4C188.051 537.28 192.744 541.28 196.158 546.4C199.571 551.52 201.278 557.493 201.278 564.32C201.278 571.147 199.518 577.12 195.998 582.24C192.584 587.36 187.784 591.36 181.598 594.24C175.411 597.12 168.104 598.56 159.678 598.56H136.798ZM110.878 644V530.08H142.878V644H110.878ZM172.318 644L141.278 595.36L170.078 589.12L208.638 644H172.318Z" fill="url(#paint20_linear_254_195)"/>
<path d="M273.135 646.24C264.175 646.24 255.908 644.747 248.335 641.76C240.868 638.773 234.308 634.613 228.655 629.28C223.108 623.947 218.788 617.653 215.695 610.4C212.602 603.147 211.055 595.307 211.055 586.88C211.055 578.347 212.548 570.507 215.535 563.36C218.628 556.213 222.948 549.973 228.495 544.64C234.042 539.307 240.548 535.2 248.015 532.32C255.588 529.334 263.855 527.84 272.815 527.84C281.775 527.84 289.988 529.334 297.455 532.32C305.028 535.2 311.588 539.307 317.135 544.64C322.682 549.973 326.948 556.267 329.935 563.52C333.028 570.667 334.575 578.507 334.575 587.04C334.575 595.467 333.028 603.307 329.935 610.56C326.948 617.707 322.682 624 317.135 629.44C311.588 634.774 305.082 638.933 297.615 641.92C290.148 644.8 281.988 646.24 273.135 646.24ZM272.815 618.08C278.788 618.08 283.962 616.8 288.335 614.24C292.708 611.68 296.068 608.054 298.415 603.36C300.762 598.667 301.935 593.174 301.935 586.88C301.935 582.187 301.242 577.974 299.855 574.24C298.575 570.4 296.655 567.147 294.095 564.48C291.535 561.707 288.442 559.627 284.815 558.24C281.295 556.747 277.295 556 272.815 556C266.842 556 261.668 557.28 257.295 559.84C252.922 562.293 249.562 565.867 247.215 570.56C244.868 575.147 243.695 580.587 243.695 586.88C243.695 591.68 244.335 596 245.615 599.84C247.002 603.68 248.975 606.987 251.535 609.76C254.095 612.427 257.135 614.507 260.655 616C264.282 617.387 268.335 618.08 272.815 618.08Z" fill="url(#paint21_linear_254_195)"/>
<path d="M422.64 643.8C394.74 643.8 364.64 626.3 364.64 587.9C364.64 549.5 394.74 532 422.64 532C438.14 532 452.44 537.1 463.04 546.4C474.54 556.6 480.64 571 480.64 587.9C480.64 604.8 474.54 619.1 463.04 629.3C452.44 638.6 438.04 643.8 422.64 643.8Z" fill="url(#paint22_radial_254_195)"/>
<path d="M470.53 554.67C475.86 563.27 478.64 573.51 478.64 584.9C478.64 601.8 472.54 616.1 461.04 626.3C450.44 635.6 436.04 640.8 420.64 640.8C402.58 640.8 383.64 633.45 372.46 617.86C383.22 635.52 403.46 643.8 422.64 643.8C438.04 643.8 452.44 638.6 463.04 629.3C474.54 619.1 480.64 604.8 480.64 587.9C480.64 575.16 477.17 563.84 470.53 554.67Z" fill="#EB8F00"/>
<path d="M423.04 618.81C411.53 618.81 403.31 612.81 400.84 609.07C399.91 607.86 399.72 606.24 400.34 604.85C400.81 603.96 401.74 603.41 402.75 603.44C403.12 603.44 403.49 603.5 403.84 603.61C410.07 605.49 416.54 606.43 423.04 606.39C429.54 606.43 436.02 605.49 442.24 603.61C442.59 603.5 442.96 603.44 443.33 603.44C444.34 603.41 445.27 603.96 445.74 604.85C446.36 606.24 446.17 607.86 445.24 609.07C442.77 612.83 434.55 618.81 423.04 618.81Z" fill="#422B0D"/>
<path d="M483.04 570.42C483.04 570.42 478.78 570.51 478.78 573.92C478.78 582.34 478.88 600.41 456.78 600.41C439.12 600.41 430.69 591.29 429.27 581.22C428.69 577.03 427.27 572.47 423 572.47C418.73 572.47 417.35 577 416.77 581.22C415.35 591.29 406.92 600.41 389.26 600.41C367.2 600.41 367.26 582.34 367.26 573.92C367.26 570.51 363 570.42 363 570.42V562.08C369.85 561.18 376.75 560.76 383.65 560.82C396.13 560.82 401.1 560.82 411.03 561.82C416.9 562.4 423.03 562.47 423.03 562.47C423.03 562.47 429.13 562.4 435.03 561.82C444.96 560.82 449.93 560.82 462.41 560.82C469.31 560.76 476.2 561.19 483.04 562.08V570.42Z" fill="#422B0D"/>
<path d="M380.16 577C380.06 578.6 379.42 580.08 377.85 580.38C377.67 580.41 377.5 580.43 377.32 580.43C375.91 580.42 374.7 579.4 374.48 578C373.87 575.24 374.54 572.35 376.3 570.14C377.92 568.18 380.34 567.05 382.88 567.06C384.39 566.92 385.73 568.03 385.87 569.54C385.87 569.57 385.88 569.6 385.88 569.64C385.88 571.52 384.38 572.32 382.88 572.84C381.24 573.58 380.18 575.2 380.16 577Z" fill="#896024"/>
<path d="M443.74 577C443.65 578.6 443 580.08 441.44 580.38C441.26 580.41 441.08 580.43 440.9 580.43C439.48 580.43 438.27 579.4 438.04 578C437.43 575.24 438.1 572.35 439.86 570.14C441.49 568.18 443.9 567.05 446.45 567.06C447.96 566.92 449.3 568.03 449.44 569.54C449.44 569.57 449.45 569.6 449.45 569.64C449.45 571.52 447.95 572.32 446.45 572.84C444.82 573.58 443.76 575.2 443.74 577Z" fill="#896024"/>
<defs>
<linearGradient id="paint0_linear_254_195" x1="289.5" y1="-9" x2="289.5" y2="651" gradientUnits="userSpaceOnUse">
<stop stop-color="#DB73C4"/>
<stop offset="1" stop-color="#FBBD4E"/>
</linearGradient>
<linearGradient id="paint1_linear_254_195" x1="289.5" y1="-9" x2="289.5" y2="651" gradientUnits="userSpaceOnUse">
<stop stop-color="#DB73C4"/>
<stop offset="1" stop-color="#FBBD4E"/>
</linearGradient>
<linearGradient id="paint2_linear_254_195" x1="289.5" y1="-9" x2="289.5" y2="651" gradientUnits="userSpaceOnUse">
<stop stop-color="#DB73C4"/>
<stop offset="1" stop-color="#FBBD4E"/>
</linearGradient>
<linearGradient id="paint3_linear_254_195" x1="289.5" y1="-9" x2="289.5" y2="651" gradientUnits="userSpaceOnUse">
<stop stop-color="#DB73C4"/>
<stop offset="1" stop-color="#FBBD4E"/>
</linearGradient>
<linearGradient id="paint4_linear_254_195" x1="289.5" y1="-9" x2="289.5" y2="651" gradientUnits="userSpaceOnUse">
<stop stop-color="#DB73C4"/>
<stop offset="1" stop-color="#FBBD4E"/>
</linearGradient>
<linearGradient id="paint5_linear_254_195" x1="289.5" y1="-9" x2="289.5" y2="651" gradientUnits="userSpaceOnUse">
<stop stop-color="#DB73C4"/>
<stop offset="1" stop-color="#FBBD4E"/>
</linearGradient>
<linearGradient id="paint6_linear_254_195" x1="289.5" y1="-9" x2="289.5" y2="651" gradientUnits="userSpaceOnUse">
<stop stop-color="#DB73C4"/>
<stop offset="1" stop-color="#FBBD4E"/>
</linearGradient>
<linearGradient id="paint7_linear_254_195" x1="289.5" y1="-9" x2="289.5" y2="651" gradientUnits="userSpaceOnUse">
<stop stop-color="#DB73C4"/>
<stop offset="1" stop-color="#FBBD4E"/>
</linearGradient>
<linearGradient id="paint8_linear_254_195" x1="289.5" y1="-9" x2="289.5" y2="651" gradientUnits="userSpaceOnUse">
<stop stop-color="#DB73C4"/>
<stop offset="1" stop-color="#FBBD4E"/>
</linearGradient>
<linearGradient id="paint9_linear_254_195" x1="289.5" y1="-9" x2="289.5" y2="651" gradientUnits="userSpaceOnUse">
<stop stop-color="#DB73C4"/>
<stop offset="1" stop-color="#FBBD4E"/>
</linearGradient>
<linearGradient id="paint10_linear_254_195" x1="289.5" y1="-9" x2="289.5" y2="651" gradientUnits="userSpaceOnUse">
<stop stop-color="#DB73C4"/>
<stop offset="1" stop-color="#FBBD4E"/>
</linearGradient>
<linearGradient id="paint11_linear_254_195" x1="289.5" y1="-9" x2="289.5" y2="651" gradientUnits="userSpaceOnUse">
<stop stop-color="#DB73C4"/>
<stop offset="1" stop-color="#FBBD4E"/>
</linearGradient>
<linearGradient id="paint12_linear_254_195" x1="289.5" y1="-9" x2="289.5" y2="651" gradientUnits="userSpaceOnUse">
<stop stop-color="#DB73C4"/>
<stop offset="1" stop-color="#FBBD4E"/>
</linearGradient>
<linearGradient id="paint13_linear_254_195" x1="289.5" y1="-9" x2="289.5" y2="651" gradientUnits="userSpaceOnUse">
<stop stop-color="#DB73C4"/>
<stop offset="1" stop-color="#FBBD4E"/>
</linearGradient>
<linearGradient id="paint14_linear_254_195" x1="289.5" y1="-9" x2="289.5" y2="651" gradientUnits="userSpaceOnUse">
<stop stop-color="#DB73C4"/>
<stop offset="1" stop-color="#FBBD4E"/>
</linearGradient>
<linearGradient id="paint15_linear_254_195" x1="289.5" y1="-9" x2="289.5" y2="651" gradientUnits="userSpaceOnUse">
<stop stop-color="#DB73C4"/>
<stop offset="1" stop-color="#FBBD4E"/>
</linearGradient>
<linearGradient id="paint16_linear_254_195" x1="289.5" y1="-9" x2="289.5" y2="651" gradientUnits="userSpaceOnUse">
<stop stop-color="#DB73C4"/>
<stop offset="1" stop-color="#FBBD4E"/>
</linearGradient>
<linearGradient id="paint17_linear_254_195" x1="289.5" y1="-9" x2="289.5" y2="651" gradientUnits="userSpaceOnUse">
<stop stop-color="#DB73C4"/>
<stop offset="1" stop-color="#FBBD4E"/>
</linearGradient>
<linearGradient id="paint18_linear_254_195" x1="289.5" y1="-9" x2="289.5" y2="651" gradientUnits="userSpaceOnUse">
<stop stop-color="#DB73C4"/>
<stop offset="1" stop-color="#FBBD4E"/>
</linearGradient>
<linearGradient id="paint19_linear_254_195" x1="289.5" y1="-9" x2="289.5" y2="651" gradientUnits="userSpaceOnUse">
<stop stop-color="#DB73C4"/>
<stop offset="1" stop-color="#FBBD4E"/>
</linearGradient>
<linearGradient id="paint20_linear_254_195" x1="289.5" y1="-9" x2="289.5" y2="651" gradientUnits="userSpaceOnUse">
<stop stop-color="#DB73C4"/>
<stop offset="1" stop-color="#FBBD4E"/>
</linearGradient>
<linearGradient id="paint21_linear_254_195" x1="289.5" y1="-9" x2="289.5" y2="651" gradientUnits="userSpaceOnUse">
<stop stop-color="#DB73C4"/>
<stop offset="1" stop-color="#FBBD4E"/>
</linearGradient>
<radialGradient id="paint22_radial_254_195" cx="0" cy="0" r="1" gradientUnits="userSpaceOnUse" gradientTransform="translate(422.64 587.9) scale(56.9597 56.9597)">
<stop offset="0.5" stop-color="#FDE030"/>
<stop offset="0.92" stop-color="#F7C02B"/>
<stop offset="1" stop-color="#F4A223"/>
</radialGradient>
</defs>
</svg>
