<svg width="351" height="174" viewBox="0 0 351 174" fill="none" xmlns="http://www.w3.org/2000/svg">
<g clip-path="url(#clip0_0_3)">
<g filter="url(#filter0_d_0_3)">
<mask id="mask0_0_3" style="mask-type:alpha" maskUnits="userSpaceOnUse" x="-21" y="-31" width="228" height="228">
<rect x="-21" y="36.8838" width="173" height="173" transform="rotate(-23.1034 -21 36.8838)" fill="#D9D9D9"/>
</mask>
<g mask="url(#mask0_0_3)">
<path d="M64.9192 164.804C61.2726 166.36 57.5969 166.393 53.8923 164.904C50.1876 163.415 47.5575 160.847 46.0018 157.201L2.443 55.0956C2.11301 54.3221 2.22059 53.6558 2.76576 53.0966C3.31093 52.5375 3.97763 52.4164 4.76585 52.7332L16.5892 57.4853L21.4608 45.0233C21.8409 44.0774 22.473 43.4159 23.3571 43.0388C24.2411 42.6616 25.156 42.6632 26.1019 43.0433L38.6347 48.0806L43.672 35.5478C44.0521 34.602 44.6842 33.9405 45.5683 33.5633C46.4523 33.1862 47.3672 33.1877 48.3131 33.5679L60.6801 38.6759L65.7174 26.1431C66.0976 25.1972 66.7297 24.5357 67.6137 24.1586C68.4977 23.7815 69.4127 23.783 70.3586 24.1631L82.8913 29.2004L87.7629 16.7383C88.143 15.7925 88.7751 15.131 89.6592 14.7538C90.5432 14.3767 91.4581 14.3782 92.404 14.7584L104.937 19.7957L109.974 7.26289C110.354 6.31702 110.986 5.65552 111.87 5.27839C112.754 4.90126 113.669 4.90278 114.615 5.28295L126.982 10.3909L131.734 -1.43244C132.051 -2.22067 132.6 -2.61807 133.381 -2.62466C134.162 -2.63125 134.717 -2.24779 135.047 -1.47426L178.606 100.631C180.162 104.278 180.195 107.953 178.706 111.658C177.217 115.363 174.649 117.993 171.003 119.548L64.9192 164.804ZM59.2622 151.544L105.674 131.744L88.7027 91.9631L42.2913 111.763L59.2622 151.544ZM118.934 126.087L165.346 106.288L159.689 93.0276L113.277 112.827L118.934 126.087ZM107.62 99.5666L154.032 79.7671L148.375 66.5067L101.963 86.3062L107.62 99.5666ZM36.6343 98.5022L142.718 53.2463L134.232 33.3557L28.1488 78.6115L36.6343 98.5022Z" fill="white"/>
</g>
</g>
<g filter="url(#filter1_d_0_3)">
<mask id="mask1_0_3" style="mask-type:alpha" maskUnits="userSpaceOnUse" x="171" y="-7" width="203" height="203">
<rect x="203.721" y="-7" width="173" height="173" transform="rotate(10.9026 203.721 -7)" fill="#D9D9D9"/>
</mask>
<g mask="url(#mask1_0_3)">
<path d="M203.403 147.096C199.51 146.346 196.444 144.318 194.206 141.012C191.968 137.706 191.224 134.106 191.973 130.213L212.97 21.2084C213.129 20.3826 213.59 19.8904 214.355 19.7318C215.12 19.5732 215.74 19.8457 216.216 20.5491L223.36 31.1011L234.368 23.4949C235.212 22.9234 236.106 22.7286 237.05 22.9104C237.994 23.0921 238.751 23.6051 239.323 24.4493L246.895 35.6344L258.08 28.0623C258.924 27.4908 259.818 27.2959 260.762 27.4777C261.706 27.6595 262.463 28.1725 263.035 29.0166L270.43 40.1677L281.615 32.5955C282.459 32.0241 283.353 31.8292 284.297 32.011C285.241 32.1928 285.999 32.7057 286.57 33.5499L294.142 44.735L305.15 37.1288C305.995 36.5573 306.888 36.3625 307.832 36.5443C308.776 36.726 309.534 37.239 310.105 38.0832L317.677 49.2683L328.862 41.6962C329.707 41.1247 330.601 40.9298 331.544 41.1116C332.488 41.2934 333.246 41.8064 333.817 42.6505L341.212 53.8016L351.764 46.658C352.468 46.1818 353.145 46.1593 353.796 46.5906C354.447 47.0218 354.693 47.6504 354.534 48.4762L333.538 157.481C332.788 161.374 330.76 164.439 327.454 166.678C324.147 168.916 320.548 169.66 316.655 168.91L203.403 147.096ZM206.13 132.94L255.677 142.484L263.858 100.014L214.31 90.4705L206.13 132.94ZM269.834 145.21L319.381 154.754L322.108 140.598L272.561 131.054L269.834 145.21ZM275.287 116.897L324.835 126.441L327.562 112.285L278.014 102.741L275.287 116.897ZM217.037 76.314L330.289 98.1282L334.379 76.8936L221.127 55.0793L217.037 76.314Z" fill="white"/>
</g>
</g>
</g>
<defs>
<filter id="filter0_d_0_3" x="-1.74364" y="-2.62474" width="185.542" height="176.621" filterUnits="userSpaceOnUse" color-interpolation-filters="sRGB">
<feFlood flood-opacity="0" result="BackgroundImageFix"/>
<feColorMatrix in="SourceAlpha" type="matrix" values="0 0 0 0 0 0 0 0 0 0 0 0 0 0 0 0 0 0 127 0" result="hardAlpha"/>
<feOffset dy="4"/>
<feGaussianBlur stdDeviation="2"/>
<feComposite in2="hardAlpha" operator="out"/>
<feColorMatrix type="matrix" values="0 0 0 0 0 0 0 0 0 0 0 0 0 0 0 0 0 0 0.25 0"/>
<feBlend mode="normal" in2="BackgroundImageFix" result="effect1_dropShadow_0_3"/>
<feBlend mode="normal" in="SourceGraphic" in2="effect1_dropShadow_0_3" result="shape"/>
</filter>
<filter id="filter1_d_0_3" x="187.691" y="19.688" width="170.89" height="157.505" filterUnits="userSpaceOnUse" color-interpolation-filters="sRGB">
<feFlood flood-opacity="0" result="BackgroundImageFix"/>
<feColorMatrix in="SourceAlpha" type="matrix" values="0 0 0 0 0 0 0 0 0 0 0 0 0 0 0 0 0 0 127 0" result="hardAlpha"/>
<feOffset dy="4"/>
<feGaussianBlur stdDeviation="2"/>
<feComposite in2="hardAlpha" operator="out"/>
<feColorMatrix type="matrix" values="0 0 0 0 0 0 0 0 0 0 0 0 0 0 0 0 0 0 0.25 0"/>
<feBlend mode="normal" in2="BackgroundImageFix" result="effect1_dropShadow_0_3"/>
<feBlend mode="normal" in="SourceGraphic" in2="effect1_dropShadow_0_3" result="shape"/>
</filter>
<clipPath id="clip0_0_3">
<rect width="351" height="174" fill="white"/>
</clipPath>
</defs>
</svg>
