<svg width="809" height="384" viewBox="0 0 809 384" fill="none" xmlns="http://www.w3.org/2000/svg">
<path d="M63.6001 118.92C54.7467 118.92 46.5334 117.48 38.9601 114.6C31.4934 111.613 24.9334 107.453 19.2801 102.12C13.7334 96.7865 9.41339 90.5465 6.32006 83.3998C3.22673 76.2532 1.68006 68.4665 1.68006 60.0398C1.68006 51.5065 3.28006 43.6665 6.48006 36.5198C9.78673 29.3732 14.3201 23.1865 20.0801 17.9598C25.9467 12.6265 32.7201 8.51984 40.4001 5.63984C48.0801 2.65317 56.2934 1.15984 65.0401 1.15984C75.6001 1.15984 85.0401 2.97317 93.3601 6.59984C101.787 10.2265 108.613 15.1332 113.84 21.3198L92.2401 42.9198C88.2934 38.3332 84.1867 34.9198 79.9201 32.6798C75.6534 30.4398 70.5334 29.3198 64.5601 29.3198C58.9067 29.3198 53.7867 30.5998 49.2001 33.1598C44.6134 35.6132 40.9334 39.1332 38.1601 43.7198C35.4934 48.3065 34.1601 53.6932 34.1601 59.8798C34.1601 66.0665 35.3867 71.5065 37.8401 76.1998C40.4001 80.7865 43.9201 84.3598 48.4001 86.9198C52.8801 89.4798 58.1067 90.7598 64.0801 90.7598C69.8401 90.7598 74.6934 89.6398 78.6401 87.3998C82.5867 85.1598 85.5734 81.9598 87.6001 77.7998C89.7334 73.6398 90.8001 68.7332 90.8001 63.0798L112.72 76.9998L59.7601 75.3998V49.7998H122.96V54.5998C122.96 68.2532 120.453 79.8798 115.44 89.4798C110.533 99.0798 103.6 106.387 94.6401 111.4C85.7867 116.413 75.4401 118.92 63.6001 118.92Z" fill="url(#paint0_linear_262_159)"/>
<path d="M134.94 117V3.07984H166.94V117H134.94ZM160.86 117V90.4398H221.98V117H160.86ZM160.86 71.8798V45.9598H216.06V71.8798H160.86ZM160.86 29.6398V3.07984H221.02V29.6398H160.86Z" fill="url(#paint1_linear_262_159)"/>
<path d="M261.359 117V3.07984H293.359V117H261.359ZM227.279 30.2798V3.07984H327.599V30.2798H227.279Z" fill="url(#paint2_linear_262_159)"/>
<path d="M395.906 77.7998L352.546 3.07984H389.346L422.146 64.0398H394.626L427.426 3.07984H463.426L419.746 77.7998H395.906ZM392.226 117V66.1198H424.226V117H392.226Z" fill="url(#paint3_linear_262_159)"/>
<path d="M522.198 119.24C513.238 119.24 504.971 117.747 497.398 114.76C489.931 111.773 483.371 107.613 477.718 102.28C472.171 96.9465 467.851 90.6532 464.758 83.3998C461.664 76.1465 460.118 68.3065 460.118 59.8798C460.118 51.3465 461.611 43.5065 464.598 36.3598C467.691 29.2132 472.011 22.9732 477.558 17.6398C483.104 12.3065 489.611 8.19984 497.078 5.31984C504.651 2.33318 512.918 0.839844 521.878 0.839844C530.838 0.839844 539.051 2.33318 546.518 5.31984C554.091 8.19984 560.651 12.3065 566.198 17.6398C571.744 22.9732 576.011 29.2665 578.998 36.5198C582.091 43.6665 583.638 51.5065 583.638 60.0398C583.638 68.4665 582.091 76.3065 578.998 83.5598C576.011 90.7065 571.744 96.9998 566.198 102.44C560.651 107.773 554.144 111.933 546.678 114.92C539.211 117.8 531.051 119.24 522.198 119.24ZM521.878 91.0798C527.851 91.0798 533.024 89.7998 537.398 87.2398C541.771 84.6798 545.131 81.0532 547.478 76.3598C549.824 71.6665 550.998 66.1732 550.998 59.8798C550.998 55.1865 550.304 50.9732 548.918 47.2398C547.638 43.3998 545.718 40.1465 543.158 37.4798C540.598 34.7065 537.504 32.6265 533.878 31.2398C530.358 29.7465 526.358 28.9998 521.878 28.9998C515.904 28.9998 510.731 30.2798 506.358 32.8398C501.984 35.2932 498.624 38.8665 496.278 43.5598C493.931 48.1465 492.758 53.5865 492.758 59.8798C492.758 64.6798 493.398 68.9998 494.678 72.8398C496.064 76.6798 498.038 79.9865 500.598 82.7598C503.158 85.4265 506.198 87.5065 509.718 88.9998C513.344 90.3865 517.398 91.0798 521.878 91.0798Z" fill="url(#paint4_linear_262_159)"/>
<path d="M644.655 118.92C634.628 118.92 625.882 116.893 618.415 112.84C610.948 108.68 605.135 102.973 600.975 95.7198C596.815 88.4665 594.735 80.1465 594.735 70.7598V3.07984H626.735V73.6398C626.735 77.2665 627.535 80.3598 629.135 82.9198C630.735 85.4798 632.868 87.4532 635.535 88.8398C638.308 90.1198 641.348 90.7598 644.655 90.7598C648.068 90.7598 651.055 90.1198 653.615 88.8398C656.282 87.4532 658.362 85.5332 659.855 83.0798C661.348 80.5198 662.095 77.4265 662.095 73.7998V3.07984H694.255V70.9198C694.255 80.3065 692.175 88.6265 688.015 95.8798C683.962 103.027 678.202 108.68 670.735 112.84C663.375 116.893 654.682 118.92 644.655 118.92Z" fill="url(#paint5_linear_262_159)"/>
<path d="M736.954 71.5598V49.4798H756.314C760.687 49.4798 763.994 48.4132 766.234 46.2798C768.58 44.1465 769.754 41.3198 769.754 37.7998C769.754 34.2798 768.58 31.4532 766.234 29.3198C763.994 27.1865 760.687 26.1198 756.314 26.1198H736.954V3.07984H761.434C769.327 3.07984 776.26 4.51984 782.234 7.39984C788.207 10.2798 792.9 14.2798 796.314 19.3998C799.727 24.5198 801.434 30.4932 801.434 37.3198C801.434 44.1465 799.674 50.1198 796.154 55.2398C792.74 60.3598 787.941 64.3598 781.754 67.2398C775.567 70.1198 768.26 71.5598 759.834 71.5598H736.954ZM711.034 117V3.07984H743.034V117H711.034ZM772.474 117L741.434 68.3598L770.234 62.1198L808.794 117H772.474Z" fill="url(#paint6_linear_262_159)"/>
<path d="M7.44006 249V135.08H29.8401L39.4401 159.08V249H7.44006ZM85.8401 249L19.7601 165.96L29.8401 135.08L95.9201 218.12L85.8401 249ZM85.8401 249L77.8401 223.72V135.08H109.84V249H85.8401Z" fill="url(#paint7_linear_262_159)"/>
<path d="M128.69 249V135.08H160.69V249H128.69ZM154.61 249V222.44H215.73V249H154.61ZM154.61 203.88V177.96H209.81V203.88H154.61ZM154.61 161.64V135.08H214.77V161.64H154.61Z" fill="url(#paint8_linear_262_159)"/>
<path d="M299.998 249L269.918 198.28H267.198L224.478 135.08H262.558L291.678 182.92H294.398L337.598 249H299.998ZM222.398 249L263.358 188.04L289.278 198.92L259.038 249H222.398ZM294.878 196.04L268.958 185.16L298.878 135.08H335.518L294.878 196.04Z" fill="url(#paint9_linear_262_159)"/>
<path d="M369.328 249V135.08H401.328V249H369.328ZM335.248 162.28V135.08H435.568V162.28H335.248Z" fill="url(#paint10_linear_262_159)"/>
<path d="M530.166 251.24C521.206 251.24 512.94 249.747 505.366 246.76C497.9 243.773 491.34 239.613 485.686 234.28C480.14 228.947 475.82 222.653 472.726 215.4C469.633 208.147 468.086 200.307 468.086 191.88C468.086 183.347 469.58 175.507 472.566 168.36C475.66 161.213 479.98 154.973 485.526 149.64C491.073 144.307 497.58 140.2 505.046 137.32C512.62 134.333 520.886 132.84 529.846 132.84C538.806 132.84 547.02 134.333 554.486 137.32C562.06 140.2 568.62 144.307 574.166 149.64C579.713 154.973 583.98 161.267 586.966 168.52C590.06 175.667 591.606 183.507 591.606 192.04C591.606 200.467 590.06 208.307 586.966 215.56C583.98 222.707 579.713 229 574.166 234.44C568.62 239.773 562.113 243.933 554.646 246.92C547.18 249.8 539.02 251.24 530.166 251.24ZM529.846 223.08C535.82 223.08 540.993 221.8 545.366 219.24C549.74 216.68 553.1 213.053 555.446 208.36C557.793 203.667 558.966 198.173 558.966 191.88C558.966 187.187 558.273 182.973 556.886 179.24C555.606 175.4 553.686 172.147 551.126 169.48C548.566 166.707 545.473 164.627 541.846 163.24C538.326 161.747 534.326 161 529.846 161C523.873 161 518.7 162.28 514.326 164.84C509.953 167.293 506.593 170.867 504.246 175.56C501.9 180.147 500.726 185.587 500.726 191.88C500.726 196.68 501.366 201 502.646 204.84C504.033 208.68 506.006 211.987 508.566 214.76C511.126 217.427 514.166 219.507 517.686 221C521.313 222.387 525.366 223.08 529.846 223.08Z" fill="url(#paint11_linear_262_159)"/>
<path d="M639.24 250.92C629.533 250.92 621.053 249.533 613.8 246.76C606.653 243.88 600.04 239.347 593.96 233.16L613.96 213.16C618.12 217.107 622.493 220.147 627.08 222.28C631.667 224.307 636.573 225.32 641.8 225.32C646.173 225.32 649.48 224.68 651.72 223.4C653.96 222.013 655.08 220.147 655.08 217.8C655.08 215.453 654.12 213.533 652.2 212.04C650.28 210.44 647.72 209.053 644.52 207.88C641.427 206.6 637.96 205.32 634.12 204.04C630.387 202.76 626.653 201.213 622.92 199.4C619.187 197.587 615.72 195.4 612.52 192.84C609.427 190.173 606.92 186.92 605 183.08C603.08 179.133 602.12 174.333 602.12 168.68C602.12 161.32 603.88 154.973 607.4 149.64C610.92 144.307 615.88 140.253 622.28 137.48C628.68 134.6 636.2 133.16 644.84 133.16C653.373 133.16 661.267 134.547 668.52 137.32C675.88 139.987 681.96 143.827 686.76 148.84L666.6 168.84C663.08 165.427 659.56 162.92 656.04 161.32C652.52 159.613 648.68 158.76 644.52 158.76C641.213 158.76 638.547 159.293 636.52 160.36C634.6 161.427 633.64 163.027 633.64 165.16C633.64 167.4 634.6 169.267 636.52 170.76C638.44 172.147 640.947 173.427 644.04 174.6C647.24 175.773 650.707 177 654.44 178.28C658.28 179.56 662.067 181.107 665.8 182.92C669.533 184.627 672.947 186.867 676.04 189.64C679.24 192.307 681.8 195.667 683.72 199.72C685.64 203.773 686.6 208.68 686.6 214.44C686.6 226.067 682.44 235.08 674.12 241.48C665.907 247.773 654.28 250.92 639.24 250.92Z" fill="url(#paint12_linear_262_159)"/>
<path d="M34.6401 381V267.08H66.6401V381H34.6401ZM0.560059 294.28V267.08H100.88V294.28H0.560059Z" fill="url(#paint13_linear_262_159)"/>
<path d="M164.698 383.24C155.738 383.24 147.471 381.747 139.898 378.76C132.431 375.773 125.871 371.613 120.218 366.28C114.671 360.947 110.351 354.653 107.258 347.4C104.164 340.147 102.618 332.307 102.618 323.88C102.618 315.347 104.111 307.506 107.098 300.36C110.191 293.213 114.511 286.973 120.058 281.64C125.604 276.307 132.111 272.2 139.578 269.32C147.151 266.333 155.418 264.84 164.378 264.84C173.338 264.84 181.551 266.333 189.018 269.32C196.591 272.2 203.151 276.307 208.698 281.64C214.244 286.973 218.511 293.267 221.498 300.52C224.591 307.667 226.138 315.507 226.138 324.04C226.138 332.467 224.591 340.307 221.498 347.56C218.511 354.707 214.244 361 208.698 366.44C203.151 371.773 196.644 375.933 189.178 378.92C181.711 381.8 173.551 383.24 164.698 383.24ZM164.378 355.08C170.351 355.08 175.524 353.8 179.898 351.24C184.271 348.68 187.631 345.053 189.978 340.36C192.324 335.666 193.498 330.173 193.498 323.88C193.498 319.187 192.804 314.973 191.418 311.24C190.138 307.4 188.218 304.147 185.658 301.48C183.098 298.707 180.004 296.627 176.378 295.24C172.858 293.747 168.858 293 164.378 293C158.404 293 153.231 294.28 148.858 296.84C144.484 299.293 141.124 302.867 138.778 307.56C136.431 312.147 135.258 317.587 135.258 323.88C135.258 328.68 135.898 333 137.178 336.84C138.564 340.68 140.538 343.987 143.098 346.76C145.658 349.427 148.698 351.507 152.218 353C155.844 354.387 159.898 355.08 164.378 355.08Z" fill="url(#paint14_linear_262_159)"/>
<path d="M260.755 381V353.8H287.315C293.288 353.8 298.462 352.733 302.835 350.6C307.208 348.36 310.568 345 312.915 340.52C315.262 336.04 316.435 330.493 316.435 323.88C316.435 317.267 315.208 311.773 312.755 307.4C310.408 303.027 307.048 299.773 302.675 297.64C298.408 295.4 293.288 294.28 287.315 294.28H259.155V267.08H287.315C296.275 267.08 304.488 268.413 311.955 271.08C319.528 273.746 326.088 277.587 331.635 282.6C337.182 287.613 341.448 293.64 344.435 300.68C347.528 307.613 349.075 315.4 349.075 324.04C349.075 332.68 347.528 340.52 344.435 347.56C341.448 354.493 337.182 360.467 331.635 365.48C326.088 370.493 319.582 374.333 312.115 377C304.648 379.667 296.488 381 287.635 381H260.755ZM239.315 381V267.08H271.315V381H239.315Z" fill="url(#paint15_linear_262_159)"/>
<path d="M353.648 381L397.008 267.08H429.648L472.528 381H439.248L407.408 284.2H418.928L386.288 381H353.648ZM381.808 361.8V336.84H445.488V361.8H381.808Z" fill="url(#paint16_linear_262_159)"/>
<path d="M502.781 341.8L459.421 267.08H496.221L529.021 328.04H501.501L534.301 267.08H570.301L526.621 341.8H502.781ZM499.101 381V330.12H531.101V381H499.101Z" fill="url(#paint17_linear_262_159)"/>
<path d="M579.363 382.92C574.349 382.92 570.189 381.213 566.883 377.8C563.576 374.387 561.923 370.227 561.923 365.32C561.923 360.307 563.576 356.093 566.883 352.68C570.189 349.267 574.349 347.56 579.363 347.56C584.376 347.56 588.483 349.267 591.683 352.68C594.989 356.093 596.643 360.307 596.643 365.32C596.643 370.227 594.989 374.387 591.683 377.8C588.483 381.213 584.376 382.92 579.363 382.92Z" fill="url(#paint18_linear_262_159)"/>
<defs>
<linearGradient id="paint0_linear_262_159" x1="404" y1="-8" x2="404" y2="388" gradientUnits="userSpaceOnUse">
<stop stop-color="#FFBF48"/>
<stop offset="1" stop-color="#FFFB64"/>
</linearGradient>
<linearGradient id="paint1_linear_262_159" x1="404" y1="-8" x2="404" y2="388" gradientUnits="userSpaceOnUse">
<stop stop-color="#FFBF48"/>
<stop offset="1" stop-color="#FFFB64"/>
</linearGradient>
<linearGradient id="paint2_linear_262_159" x1="404" y1="-8" x2="404" y2="388" gradientUnits="userSpaceOnUse">
<stop stop-color="#FFBF48"/>
<stop offset="1" stop-color="#FFFB64"/>
</linearGradient>
<linearGradient id="paint3_linear_262_159" x1="404" y1="-8" x2="404" y2="388" gradientUnits="userSpaceOnUse">
<stop stop-color="#FFBF48"/>
<stop offset="1" stop-color="#FFFB64"/>
</linearGradient>
<linearGradient id="paint4_linear_262_159" x1="404" y1="-8" x2="404" y2="388" gradientUnits="userSpaceOnUse">
<stop stop-color="#FFBF48"/>
<stop offset="1" stop-color="#FFFB64"/>
</linearGradient>
<linearGradient id="paint5_linear_262_159" x1="404" y1="-8" x2="404" y2="388" gradientUnits="userSpaceOnUse">
<stop stop-color="#FFBF48"/>
<stop offset="1" stop-color="#FFFB64"/>
</linearGradient>
<linearGradient id="paint6_linear_262_159" x1="404" y1="-8" x2="404" y2="388" gradientUnits="userSpaceOnUse">
<stop stop-color="#FFBF48"/>
<stop offset="1" stop-color="#FFFB64"/>
</linearGradient>
<linearGradient id="paint7_linear_262_159" x1="404" y1="-8" x2="404" y2="388" gradientUnits="userSpaceOnUse">
<stop stop-color="#FFBF48"/>
<stop offset="1" stop-color="#FFFB64"/>
</linearGradient>
<linearGradient id="paint8_linear_262_159" x1="404" y1="-8" x2="404" y2="388" gradientUnits="userSpaceOnUse">
<stop stop-color="#FFBF48"/>
<stop offset="1" stop-color="#FFFB64"/>
</linearGradient>
<linearGradient id="paint9_linear_262_159" x1="404" y1="-8" x2="404" y2="388" gradientUnits="userSpaceOnUse">
<stop stop-color="#FFBF48"/>
<stop offset="1" stop-color="#FFFB64"/>
</linearGradient>
<linearGradient id="paint10_linear_262_159" x1="404" y1="-8" x2="404" y2="388" gradientUnits="userSpaceOnUse">
<stop stop-color="#FFBF48"/>
<stop offset="1" stop-color="#FFFB64"/>
</linearGradient>
<linearGradient id="paint11_linear_262_159" x1="404" y1="-8" x2="404" y2="388" gradientUnits="userSpaceOnUse">
<stop stop-color="#FFBF48"/>
<stop offset="1" stop-color="#FFFB64"/>
</linearGradient>
<linearGradient id="paint12_linear_262_159" x1="404" y1="-8" x2="404" y2="388" gradientUnits="userSpaceOnUse">
<stop stop-color="#FFBF48"/>
<stop offset="1" stop-color="#FFFB64"/>
</linearGradient>
<linearGradient id="paint13_linear_262_159" x1="404" y1="-8" x2="404" y2="388" gradientUnits="userSpaceOnUse">
<stop stop-color="#FFBF48"/>
<stop offset="1" stop-color="#FFFB64"/>
</linearGradient>
<linearGradient id="paint14_linear_262_159" x1="404" y1="-8" x2="404" y2="388" gradientUnits="userSpaceOnUse">
<stop stop-color="#FFBF48"/>
<stop offset="1" stop-color="#FFFB64"/>
</linearGradient>
<linearGradient id="paint15_linear_262_159" x1="404" y1="-8" x2="404" y2="388" gradientUnits="userSpaceOnUse">
<stop stop-color="#FFBF48"/>
<stop offset="1" stop-color="#FFFB64"/>
</linearGradient>
<linearGradient id="paint16_linear_262_159" x1="404" y1="-8" x2="404" y2="388" gradientUnits="userSpaceOnUse">
<stop stop-color="#FFBF48"/>
<stop offset="1" stop-color="#FFFB64"/>
</linearGradient>
<linearGradient id="paint17_linear_262_159" x1="404" y1="-8" x2="404" y2="388" gradientUnits="userSpaceOnUse">
<stop stop-color="#FFBF48"/>
<stop offset="1" stop-color="#FFFB64"/>
</linearGradient>
<linearGradient id="paint18_linear_262_159" x1="404" y1="-8" x2="404" y2="388" gradientUnits="userSpaceOnUse">
<stop stop-color="#FFBF48"/>
<stop offset="1" stop-color="#FFFB64"/>
</linearGradient>
</defs>
</svg>
